{
.appVersion = "1342";
DisplayStrings = (
"ad/_corner.serif pnhesion",
"IJ/space jMUNO",
OPRJQnkK,
QU,
UNAVHYHP,
VwHWMZEnznT,
"annbnncnndnnHVHYennfnngnnhnninnjnnknnlnnmnnnnnoKXRNnnpnnqnnrnnsCGSKocsenntnnunnvnnwnnkxnnynnznn\012",
"8HH2HH8G88SDBP385S89688^R&KNSaH@H==47890",
csrurc
);
customParameters = (
{
name = licenseURL;
value = "http://scripts.sil.org/OFL";
},
{
name = license;
value = "This Font Software is licensed under the SIL Open Font License, Version 1.1. This license is available with a FAQ at: http://scripts.sil.org/OFL";
},
{
name = vendorID;
value = SUBY;
},
{
name = panose;
value = (
3,
8,
9,
2,
4,
3,
2,
2,
2,
0
);
},
{
name = unicodeRanges;
value = (
0,
1,
2,
3,
4,
5,
6,
16,
29,
31,
32,
33,
35,
36,
37,
38,
45,
62
);
},
{
name = fsType;
value = (
);
},
{
name = blueScale;
value = 0.03333;
},
{
name = blueShift;
value = 15;
},
{
name = Axes;
value = (
{
Name = Weight;
Tag = wght;
},
{
Name = Width;
Tag = wdth;
}
);
},
{
name = "EditView Line Height";
value = 1400;
}
);
date = "2020-01-07 22:21:28 +0000";
designer = "Suman Bhandary";
designerURL = "http://reg-it-bold.com/";
disablesNiceNames = 1;
familyName = "Alkatra Latin";
featurePrefixes = (
{
automatic = 1;
code = "languagesystem DFLT dflt;\012";
name = Languagesystems;
}
);
features = (
{
automatic = 1;
code = "feature lnum;\012feature onum;\012feature salt;\012feature ss01;\012";
name = aalt;
},
{
automatic = 1;
code = "sub zero.osf by zero;\012sub one.osf by one;\012sub two.osf by two;\012sub three.osf by three;\012sub four.osf by four;\012sub five.osf by five;\012sub six.osf by six;\012sub seven.osf by seven;\012sub eight.osf by eight;\012sub nine.osf by nine;\012";
name = lnum;
},
{
automatic = 1;
code = "sub zero by zero.osf;\012sub one by one.osf;\012sub two by two.osf;\012sub three by three.osf;\012sub four by four.osf;\012sub five by five.osf;\012sub six by six.osf;\012sub seven by seven.osf;\012sub eight by eight.osf;\012sub nine by nine.osf;\012";
name = onum;
},
{
automatic = 1;

glyphs = (
{
glyphname = A;
lastChange = "2021-04-06 09:21:54 +0000";
layers = (
{
layerId = "B0B60A8F-2DEB-4A58-A43B-60A0DADABD8F";
paths = (
{
closed = 1;
nodes = (
"-17 18 OFFCURVE",
"-20 10 OFFCURVE",
"-20 3 CURVE SMOOTH",
"-20 -9 OFFCURVE",
"-11 -14 OFFCURVE",
"7 -14 CURVE SMOOTH",
"31 -14 OFFCURVE",
"131 22 OFFCURVE",
"137 72 CURVE SMOOTH",
"142 112 OFFCURVE",
"139 132 OFFCURVE",
"166 189 CURVE SMOOTH",
"361 599 LINE",
"342 587 LINE",
"432 170 LINE SMOOTH",
"462 32 OFFCURVE",
"489 -12 OFFCURVE",
"519 -12 CURVE SMOOTH",
"554 -12 OFFCURVE",
"631 32 OFFCURVE",
"631 59 CURVE SMOOTH",
"631 71 OFFCURVE",
"611 77 OFFCURVE",
"597 97 CURVE SMOOTH",
"584 117 OFFCURVE",
"571 144 OFFCURVE",
"553 207 CURVE SMOOTH",
"511 355 OFFCURVE",
"477 512 OFFCURVE",
"454 665 CURVE SMOOTH",
"450 690 OFFCURVE",
"439 694 OFFCURVE",
"428 694 CURVE SMOOTH",
"361 694 OFFCURVE",
"299 657 OFFCURVE",
"285 628 CURVE SMOOTH",
"-12 29 LINE SMOOTH"
);
},
{
closed = 1;
nodes = (
"133 190 LINE",
"505 190 LINE",
"505 265 LINE",
"133 265 LINE"
);
}
);
width = 650;
},
{
associatedMasterId = "B0B60A8F-2DEB-4A58-A43B-60A0DADABD8F";
layerId = "E8B8A5C7-F07F-4AEB-9E60-71CCEB13C2CE";
name = "Apr 6 21, 10:46";
paths = (
{
closed = 1;
nodes = (
"-17 18 OFFCURVE",
"-20 10 OFFCURVE",
"-20 3 CURVE SMOOTH",
"-20 -9 OFFCURVE",
"-11 -14 OFFCURVE",
"7 -14 CURVE SMOOTH",
"31 -14 OFFCURVE",
"121 24 OFFCURVE",
"127 74 CURVE SMOOTH",
"132 114 OFFCURVE",
"134 132 OFFCURVE",
"160 189 CURVE SMOOTH",
"343 599 LINE",
"325 587 LINE",
"399 170 LINE SMOOTH",
"424 31 OFFCURVE",
"463 -12 OFFCURVE",
"493 -12 CURVE SMOOTH",
"528 -12 OFFCURVE",
"595 27 OFFCURVE",
"595 54 CURVE SMOOTH",
"595 66 OFFCURVE",
"586 72 OFFCURVE",
"572 92 CURVE SMOOTH",
"559 112 OFFCURVE",
"543 144 OFFCURVE",
"527 207 CURVE SMOOTH",
"489 359 OFFCURVE",
"459 512 OFFCURVE",
"436 665 CURVE SMOOTH",
"432 690 OFFCURVE",
"417 694 OFFCURVE",
"410 694 CURVE SMOOTH",
"372 694 OFFCURVE",
"297 684 OFFCURVE",
"285 659 CURVE SMOOTH",
"-12 29 LINE SMOOTH"
);
},
{
closed = 1;
nodes = (
"133 190 LINE",
"469 190 LINE",
"469 265 LINE",
"133 265 LINE"
);
}
);
width = 614;
}
);
unicode = 0041;
},
{
glyphname = B;
lastChange = "2021-04-06 13:06:44 +0000";
layers = (
{
hints = (
{
origin = "{0, 33}";
type = Corner;
name = _corner.serifUC;
}
);
layerId = "B0B60A8F-2DEB-4A58-A43B-60A0DADABD8F";
paths = (
{
closed = 1;
nodes = (
"534 288 OFFCURVE",
"504 344 OFFCURVE",
"400 385 CURVE",
"329 339 LINE",
"376 312 OFFCURVE",
"401 273 OFFCURVE",
"401 212 CURVE SMOOTH",
"401 113 OFFCURVE",
"330 75 OFFCURVE",
"226 75 CURVE SMOOTH",
"175 75 LINE",
"171 103 OFFCURVE",
"171 131 OFFCURVE",
"174 159 CURVE SMOOTH",
"221 605 LINE",
"301 605 LINE SMOOTH",
"373 605 OFFCURVE",
"406 579 OFFCURVE",
"405 522 CURVE SMOOTH",
"404 450 OFFCURVE",
"345 393 OFFCURVE",
"151 355 CURVE",
"159 281 LINE",
"293 305 OFFCURVE",
"345 338 OFFCURVE",
"390 356 CURVE",
"387 358 LINE",
"481 394 OFFCURVE",
"535 461 OFFCURVE",
"535 541 CURVE SMOOTH",
"535 628 OFFCURVE",
"472 680 OFFCURVE",
"313 680 CURVE SMOOTH",
"110 680 LINE",
"46 96 LINE SMOOTH",
"44 79 OFFCURVE",
"43 64 OFFCURVE",
"43 51 CURVE SMOOTH",
"43 15 OFFCURVE",
"51 -8 OFFCURVE",
"75 -8 CURVE SMOOTH",
"97 -8 OFFCURVE",
"229 0 OFFCURVE",
"282 0 CURVE SMOOTH",
"418 0 OFFCURVE",
"534 81 OFFCURVE",
"534 207 CURVE SMOOTH"
);
}
);
width = 557;
},
{
associatedMasterId = "B0B60A8F-2DEB-4A58-A43B-60A0DADABD8F";
hints = (
{
origin = "{0, 38}";
type = Corner;
name = _corner.serifUC;
}
);
layerId = "89E8C78E-04AB-4045-ADB2-0734EE1EE0F2";
name = "Apr 6 21, 11:20";
paths = (
{
closed = 1;
nodes = (
"541 294 OFFCURVE",
"491 346 OFFCURVE",
"401 364 CURVE",
"341 324 LINE",
"385 308 OFFCURVE",
"408 269 OFFCURVE",
"408 218 CURVE SMOOTH",
"408 119 OFFCURVE",
"325 75 OFFCURVE",
"205 75 CURVE SMOOTH",
"176 75 LINE",
"172 103 OFFCURVE",
"172 131 OFFCURVE",
"175 159 CURVE SMOOTH",
"222 605 LINE",
"284 605 LINE SMOOTH",
"368 605 OFFCURVE",
"398 574 OFFCURVE",
"398 514 CURVE SMOOTH",
"398 445 OFFCURVE",
"342 387 OFFCURVE",
"232 357 CURVE SMOOTH",
"219 353 OFFCURVE",
"213 349 OFFCURVE",
"213 337 CURVE SMOOTH",
"213 323 OFFCURVE",
"237 294 OFFCURVE",
"256 294 CURVE SMOOTH",
"292 294 OFFCURVE",
"348 315 OFFCURVE",
"388 338 CURVE",
"403 346 LINE",
"481 391 OFFCURVE",
"528 449 OFFCURVE",
"528 531 CURVE SMOOTH",
"528 621 OFFCURVE",
"464 680 OFFCURVE",
"320 680 CURVE SMOOTH",
"110 680 LINE",
"46 96 LINE SMOOTH",
"44 79 OFFCURVE",
"43 64 OFFCURVE",
"43 51 CURVE SMOOTH",
"43 15 OFFCURVE",
"51 -8 OFFCURVE",
"75 -8 CURVE SMOOTH",
"127 -8 OFFCURVE",
"222 0 OFFCURVE",
"308 0 CURVE SMOOTH",
"437 0 OFFCURVE",
"541 87 OFFCURVE",
"541 213 CURVE SMOOTH"
);
}
);
width = 570;
},
{
associatedMasterId = "B0B60A8F-2DEB-4A58-A43B-60A0DADABD8F";
hints = (
{
origin = "{0, 38}";
type = Corner;
name = _corner.serifUC;
}
);
layerId = "FFA6CF54-9692-4634-ACAA-3D2A6D3F3475";
name = "Apr 6 21, 15:34";
paths = (
{
closed = 1;
nodes = (
"540 288 OFFCURVE",
"491 344 OFFCURVE",
"413 375 CURVE",
"351 331 LINE",
"388 304 OFFCURVE",
"407 263 OFFCURVE",
"407 212 CURVE SMOOTH",
"407 113 OFFCURVE",
"314 75 OFFCURVE",
"204 75 CURVE SMOOTH",
"175 75 LINE",
"171 103 OFFCURVE",
"171 131 OFFCURVE",
"174 159 CURVE SMOOTH",
"221 605 LINE",
"297 605 LINE SMOOTH",
"371 605 OFFCURVE",
"412 579 OFFCURVE",
"411 522 CURVE SMOOTH",
"410 450 OFFCURVE",
"351 402 OFFCURVE",
"231 375 CURVE SMOOTH",
"218 372 OFFCURVE",
"212 367 OFFCURVE",
"212 355 CURVE SMOOTH",
"212 334 OFFCURVE",
"236 311 OFFCURVE",
"264 311 CURVE SMOOTH",
"299 311 OFFCURVE",
"357 330 OFFCURVE",
"397 353 CURVE",
"408 361 LINE",
"486 398 OFFCURVE",
"537 461 OFFCURVE",
"537 536 CURVE SMOOTH",
"537 628 OFFCURVE",
"469 680 OFFCURVE",
"310 680 CURVE SMOOTH",
"110 680 LINE",
"46 96 LINE SMOOTH",
"44 79 OFFCURVE",
"43 64 OFFCURVE",
"43 51 CURVE SMOOTH",
"43 15 OFFCURVE",
"51 -8 OFFCURVE",
"75 -8 CURVE SMOOTH",
"97 -8 OFFCURVE",
"235 0 OFFCURVE",
"288 0 CURVE SMOOTH",
"424 0 OFFCURVE",
"540 81 OFFCURVE",
"540 207 CURVE SMOOTH"
);
}
);
width = 569;
}
);
leftMetricsKey = H;
unicode = 0042;
},
{
glyphname = C;
lastChange = "2021-04-06 10:34:09 +0000";
layers = (
{
background = {
paths = (
{
closed = 1;
nodes = (
"711 206 OFFCURVE",
"546 -9 OFFCURVE",
"322 -9 CURVE SMOOTH",
"175 -9 OFFCURVE",
"30 72 OFFCURVE",
"30 243 CURVE SMOOTH",
"30 473 OFFCURVE",
"195 688 OFFCURVE",
"419 688 CURVE SMOOTH",
"566 688 OFFCURVE",
"711 607 OFFCURVE",
"711 436 CURVE SMOOTH"
);
},
{
closed = 1;
nodes = (
"503 56 OFFCURVE",
"576 283 OFFCURVE",
"576 418 CURVE SMOOTH",
"576 572 OFFCURVE",
"465 623 OFFCURVE",
"378 623 CURVE SMOOTH",
"238 623 OFFCURVE",
"165 396 OFFCURVE",
"165 261 CURVE SMOOTH",
"165 107 OFFCURVE",
"276 56 OFFCURVE",
"363 56 CURVE SMOOTH"
);
},
{
closed = 1;
nodes = (
"168 582 OFFCURVE",
"284 688 OFFCURVE",
"420 688 CURVE SMOOTH",
"532 688 OFFCURVE",
"608 601 OFFCURVE",
"604 512 CURVE SMOOTH",
"603 483 OFFCURVE",
"598 475 OFFCURVE",
"578 475 CURVE",
"508 475 LINE",
"489 475 OFFCURVE",
"487 482 OFFCURVE",
"487 492 CURVE SMOOTH",
"487 505 OFFCURVE",
"492 531 OFFCURVE",
"492 567 CURVE SMOOTH",
"492 614 OFFCURVE",
"465 644 OFFCURVE",
"416 644 CURVE SMOOTH",
"348 644 OFFCURVE",
"288 570 OFFCURVE",
"288 529 CURVE",
"168 512 LINE"
);
}
);
};
layerId = "B0B60A8F-2DEB-4A58-A43B-60A0DADABD8F";
paths = (
{
closed = 1;
nodes = (
"511 170 OFFCURVE",
"454 64 OFFCURVE",
"332 64 CURVE SMOOTH",
"229 64 OFFCURVE",
"161 162 OFFCURVE",
"161 301 CURVE SMOOTH",
"161 492 OFFCURVE",
"255 616 OFFCURVE",
"394 616 CURVE SMOOTH",
"458 616 OFFCURVE",
"493 593 OFFCURVE",
"525 577 CURVE SMOOTH",
"543 568 OFFCURVE",
"559 558 OFFCURVE",
"571 558 CURVE SMOOTH",
"584 558 OFFCURVE",
"598 584 OFFCURVE",
"598 616 CURVE SMOOTH",
"598 676 OFFCURVE",
"543 696 OFFCURVE",
"436 696 CURVE SMOOTH",
"183 696 OFFCURVE",
"28 522 OFFCURVE",
"28 283 CURVE SMOOTH",
"28 86 OFFCURVE",
"130 -16 OFFCURVE",
"300 -16 CURVE SMOOTH",
"450 -16 OFFCURVE",
"560 78 OFFCURVE",
"561 146 CURVE SMOOTH",
"561 167 OFFCURVE",
"551 170 OFFCURVE",
"537 170 CURVE SMOOTH"
);
}
);
width = 597;
},
{
associatedMasterId = "B0B60A8F-2DEB-4A58-A43B-60A0DADABD8F";
background = {
paths = (
{
closed = 1;
nodes = (
"711 206 OFFCURVE",
"546 -9 OFFCURVE",
"322 -9 CURVE SMOOTH",
"175 -9 OFFCURVE",
"30 72 OFFCURVE",
"30 243 CURVE SMOOTH",
"30 473 OFFCURVE",
"195 688 OFFCURVE",
"419 688 CURVE SMOOTH",
"566 688 OFFCURVE",
"711 607 OFFCURVE",
"711 436 CURVE SMOOTH"
);
},
{
closed = 1;
nodes = (
"503 56 OFFCURVE",
"576 283 OFFCURVE",
"576 418 CURVE SMOOTH",
"576 572 OFFCURVE",
"465 623 OFFCURVE",
"378 623 CURVE SMOOTH",
"238 623 OFFCURVE",
"165 396 OFFCURVE",
"165 261 CURVE SMOOTH",
"165 107 OFFCURVE",
"276 56 OFFCURVE",
"363 56 CURVE SMOOTH"
);
},
{
closed = 1;
nodes = (
"168 582 OFFCURVE",
"284 688 OFFCURVE",
"420 688 CURVE SMOOTH",
"532 688 OFFCURVE",
"608 601 OFFCURVE",
"604 512 CURVE SMOOTH",
"603 483 OFFCURVE",
"598 475 OFFCURVE",
"578 475 CURVE",
"508 475 LINE",
"489 475 OFFCURVE",
"487 482 OFFCURVE",
"487 492 CURVE SMOOTH",
"487 505 OFFCURVE",
"492 531 OFFCURVE",
"492 567 CURVE SMOOTH",
"492 614 OFFCURVE",
"465 644 OFFCURVE",
"416 644 CURVE SMOOTH",
"348 644 OFFCURVE",
"288 570 OFFCURVE",
"288 529 CURVE",
"168 512 LINE"
);
}
);
};
layerId = "0920ED52-C724-43A2-9CBF-F90F83CF4883";
name = "Apr 6 21, 13:29";
paths = (
{
closed = 1;
nodes = (
"511 170 OFFCURVE",
"444 64 OFFCURVE",
"334 64 CURVE SMOOTH",
"232 64 OFFCURVE",
"161 142 OFFCURVE",
"161 301 CURVE SMOOTH",
"161 492 OFFCURVE",
"255 616 OFFCURVE",
"390 616 CURVE SMOOTH",
"490 616 OFFCURVE",
"534 555 OFFCURVE",
"562 555 CURVE SMOOTH",
"583 555 OFFCURVE",
"597 590 OFFCURVE",
"597 614 CURVE SMOOTH",
"597 669 OFFCURVE",
"526 696 OFFCURVE",
"416 696 CURVE SMOOTH",
"183 696 OFFCURVE",
"28 522 OFFCURVE",
"28 283 CURVE SMOOTH",
"28 86 OFFCURVE",
"150 -16 OFFCURVE",
"331 -16 CURVE SMOOTH",
"470 -16 OFFCURVE",
"561 38 OFFCURVE",
"561 119 CURVE SMOOTH",
"561 146 OFFCURVE",
"551 170 OFFCURVE",
"537 170 CURVE SMOOTH"
);
}
);
width = 597;
}
);
leftMetricsKey = O;
unicode = 0043;
},
{
glyphname = D;
lastChange = "2021-04-06 12:37:40 +0000";
layers = (
{
background = {
paths = (
{
closed = 1;
nodes = (
"536 0 OFFCURVE",
"547 2 OFFCURVE",
"543 20 CURVE SMOOTH",
"532 73 OFFCURVE",
"433 523 OFFCURVE",
"411 631 CURVE SMOOTH",
"403 668 OFFCURVE",
"396 680 OFFCURVE",
"378 680 CURVE SMOOTH",
"353 680 OFFCURVE",
"303 663 OFFCURVE",
"275 628 CURVE",
"314 593 LINE",
"318 593 OFFCURVE",
"320 593 OFFCURVE",
"324 593 CURVE",
"325 566 OFFCURVE",
"327 538 OFFCURVE",
"329 523 CURVE SMOOTH",
"341 445 OFFCURVE",
"401 87 OFFCURVE",
"412 28 CURVE SMOOTH",
"415 10 OFFCURVE",
"424 0 OFFCURVE",
"446 0 CURVE",
"462 0 OFFCURVE",
"511 0 OFFCURVE",
"527 0 CURVE"
);
},
{
closed = 1;
nodes = (
"302 628 OFFCURVE",
"287 628 OFFCURVE",
"275 628 CURVE",
"259 608 OFFCURVE",
"221 518 OFFCURVE",
"210 490 CURVE SMOOTH",
"192 445 OFFCURVE",
"50 89 OFFCURVE",
"20 22 CURVE SMOOTH",
"13 6 OFFCURVE",
"18 0 OFFCURVE",
"29 0 CURVE SMOOTH",
"39 0 OFFCURVE",
"61 0 OFFCURVE",
"73 0 CURVE SMOOTH",
"97 0 OFFCURVE",
"108 3 OFFCURVE",
"128 71 CURVE SMOOTH",
"173 224 OFFCURVE",
"254 455 OFFCURVE",
"314 593 CURVE",
"314 628 LINE"
);
},
{
closed = 1;
nodes = (
"194 217 LINE",
"363 217 LINE",
"363 252 LINE",
"194 252 LINE"
);
},
{
closed = 1;
nodes = (
"196 291 LINE",
"157 184 LINE",
"163 184 LINE",
"174 215 OFFCURVE",
"185 217 OFFCURVE",
"212 217 CURVE",
"220 252 LINE",
"196 252 OFFCURVE",
"189 266 OFFCURVE",
"199 291 CURVE"
);
},
{
closed = 1;
nodes = (
"371 265 OFFCURVE",
"370 252 OFFCURVE",
"339 252 CURVE",
"339 217 LINE",
"366 217 OFFCURVE",
"380 216 OFFCURVE",
"385 185 CURVE",
"391 185 LINE",
"370 291 LINE",
"367 291 LINE"
);
}
);
};
hints = (
{
origin = "{0, 12}";
type = Corner;
name = _corner.serifUC;
}
);
layerId = "B0B60A8F-2DEB-4A58-A43B-60A0DADABD8F";
paths = (
{
closed = 1;
nodes = (
"51 23 OFFCURVE",
"64 -12 OFFCURVE",
"88 -12 CURVE SMOOTH",
"136 -12 OFFCURVE",
"177 0 OFFCURVE",
"213 0 CURVE SMOOTH",
"472 0 OFFCURVE",
"645 168 OFFCURVE",
"645 400 CURVE SMOOTH",
"645 583 OFFCURVE",
"526 680 OFFCURVE",
"337 680 CURVE SMOOTH",
"110 680 LINE",
"60 186 LINE SMOOTH",
"54 127 OFFCURVE",
"51 85 OFFCURVE",
"51 59 CURVE SMOOTH"
);
},
{
closed = 1;
nodes = (
"176 106 OFFCURVE",
"177 136 OFFCURVE",
"179 159 CURVE SMOOTH",
"224 605 LINE",
"309 605 LINE SMOOTH",
"436 605 OFFCURVE",
"512 535 OFFCURVE",
"512 388 CURVE SMOOTH",
"512 202 OFFCURVE",
"394 75 OFFCURVE",
"218 75 CURVE SMOOTH",
"178 75 LINE"
);
}
);
width = 650;
}
);
leftMetricsKey = H;
rightMetricsKey = O;
unicode = 0044;
},
{
glyphname = E;
lastChange = "2021-04-06 13:08:39 +0000";
layers = (
{
hints = (
{
origin = "{1, 12}";
type = Corner;
name = _corner.serifUC;
}
);
layerId = "B0B60A8F-2DEB-4A58-A43B-60A0DADABD8F";
paths = (
{
closed = 1;
nodes = (
"267 317 LINE SMOOTH",
"323 318 OFFCURVE",
"394 357 OFFCURVE",
"394 387 CURVE SMOOTH",
"394 397 OFFCURVE",
"388 404 OFFCURVE",
"378 404 CURVE SMOOTH",
"364 404 OFFCURVE",
"285 392 OFFCURVE",
"200 392 CURVE SMOOTH",
"152 392 LINE",
"139 315 LINE"
);
},
{
closed = 1;
nodes = (
"279 597 OFFCURVE",
"407 578 OFFCURVE",
"439 578 CURVE SMOOTH",
"468 578 OFFCURVE",
"491 631 OFFCURVE",
"491 668 CURVE SMOOTH",
"491 688 OFFCURVE",
"486 690 OFFCURVE",
"471 690 CURVE SMOOTH",
"451 690 OFFCURVE",
"405 680 OFFCURVE",
"264 680 CURVE SMOOTH",
"110 680 LINE",
"60 186 LINE SMOOTH",
"54 127 OFFCURVE",
"51 85 OFFCURVE",
"51 59 CURVE SMOOTH",
"51 23 OFFCURVE",
"64 -12 OFFCURVE",
"88 -12 CURVE SMOOTH",
"123 -12 OFFCURVE",
"204 0 OFFCURVE",
"354 0 CURVE SMOOTH",
"384 0 LINE SMOOTH",
"427 0 OFFCURVE",
"453 90 OFFCURVE",
"453 140 CURVE SMOOTH",
"453 150 OFFCURVE",
"447 154 OFFCURVE",
"441 154 CURVE SMOOTH",
"424 154 OFFCURVE",
"344 75 OFFCURVE",
"180 75 CURVE",
"176 103 OFFCURVE",
"176 131 OFFCURVE",
"179 159 CURVE SMOOTH",
"224 605 LINE"
);
}
);
width = 489;
},
{
associatedMasterId = "B0B60A8F-2DEB-4A58-A43B-60A0DADABD8F";
hints = (
{
origin = "{1, 29}";
type = Corner;
name = _corner.serifUC;
}
);
layerId = "1A80F6DC-E374-4844-814C-4491431A0499";
name = "Apr 6 21, 10:12";
paths = (
{
closed = 1;
nodes = (
"140 315 LINE",
"292 317 LINE SMOOTH",
"334 318 OFFCURVE",
"405 348 OFFCURVE",
"405 378 CURVE SMOOTH",
"405 388 OFFCURVE",
"399 396 OFFCURVE",
"389 396 CURVE SMOOTH",
"153 392 LINE"
);
},
{
closed = 1;
nodes = (
"46 15 OFFCURVE",
"62 -10 OFFCURVE",
"86 -10 CURVE SMOOTH",
"121 -10 OFFCURVE",
"212 0 OFFCURVE",
"292 0 CURVE SMOOTH",
"384 0 LINE SMOOTH",
"438 0 OFFCURVE",
"464 75 OFFCURVE",
"464 125 CURVE SMOOTH",
"464 135 OFFCURVE",
"458 139 OFFCURVE",
"452 139 CURVE SMOOTH",
"435 139 OFFCURVE",
"353 82 OFFCURVE",
"175 75 CURVE",
"171 103 OFFCURVE",
"174 131 OFFCURVE",
"177 159 CURVE SMOOTH",
"225 605 LINE",
"418 605 OFFCURVE",
"447 552 OFFCURVE",
"467 552 CURVE SMOOTH",
"488 552 OFFCURVE",
"513 601 OFFCURVE",
"511 645 CURVE SMOOTH",
"510 671 OFFCURVE",
"505 680 OFFCURVE",
"474 680 CURVE SMOOTH",
"112 680 LINE",
"49 96 LINE SMOOTH",
"47 79 OFFCURVE",
"46 64 OFFCURVE",
"46 51 CURVE SMOOTH"
);
}
);
visible = 1;
width = 507;
}
);
leftMetricsKey = H;
unicode = 0045;
},
{
glyphname = F;
lastChange = "2021-04-06 13:08:44 +0000";
layers = (
{
background = {
paths = (
{
closed = 1;
nodes = (
"157 680 OFFCURVE",
"107 680 OFFCURVE",
"95 680 CURVE",
"87 680 OFFCURVE",
"73 678 OFFCURVE",
"71 656 CURVE SMOOTH",
"61 518 OFFCURVE",
"35 246 OFFCURVE",
"14 75 CURVE SMOOTH",
"8 28 OFFCURVE",
"2 0 OFFCURVE",
"42 0 CURVE SMOOTH",
"51 0 OFFCURVE",
"68 0 OFFCURVE",
"104 0 CURVE SMOOTH",
"131 0 OFFCURVE",
"127 28 OFFCURVE",
"131 71 CURVE SMOOTH",
"145 242 OFFCURVE",
"171 516 OFFCURVE",
"189 660 CURVE SMOOTH",
"191 678 OFFCURVE",
"182 680 OFFCURVE",
"173 680 CURVE"
);
},
{
closed = 1;
nodes = (
"173 389 LINE",
"173 342 LINE",
"377 342 LINE",
"377 389 LINE"
);
},
{
closed = 1;
nodes = (
"161 432 LINE",
"146 308 LINE",
"152 308 LINE",
"155 344 OFFCURVE",
"168 342 OFFCURVE",
"201 342 CURVE",
"201 389 LINE",
"169 389 OFFCURVE",
"161 397 OFFCURVE",
"164 432 CURVE"
);
},
{
closed = 1;
nodes = (
"392 340 OFFCURVE",
"394 341 OFFCURVE",
"396 348 CURVE SMOOTH",
"398 355 OFFCURVE",
"402 371 OFFCURVE",
"405 382 CURVE SMOOTH",
"407 390 OFFCURVE",
"402 392 OFFCURVE",
"396 392 CURVE SMOOTH",
"380 392 OFFCURVE",
"332 389 OFFCURVE",
"318 389 CURVE",
"318 342 LINE",
"342 342 OFFCURVE",
"373 340 OFFCURVE",
"385 340 CURVE"
);
},
{
closed = 1;
nodes = (
"220 680 LINE",
"220 635 LINE",
"374 635 LINE",
"374 680 LINE"
);
},
{
closed = 1;
nodes = (
"173 680 LINE",
"173 593 LINE",
"181 593 LINE",
"185 631 OFFCURVE",
"195 635 OFFCURVE",
"228 635 CURVE",
"228 680 LINE"
);
},
{
closed = 1;
nodes = (
"447 630 OFFCURVE",
"449 631 OFFCURVE",
"451 638 CURVE SMOOTH",
"453 645 OFFCURVE",
"457 659 OFFCURVE",
"460 670 CURVE SMOOTH",
"462 679 OFFCURVE",
"457 680 OFFCURVE",
"451 680 CURVE SMOOTH",
"435 680 OFFCURVE",
"360 680 OFFCURVE",
"346 680 CURVE",
"346 635 LINE",
"396 635 OFFCURVE",
"432 630 OFFCURVE",
"440 630 CURVE"
);
},
{
closed = 1;
nodes = (
"331 55 LINE",
"161 55 LINE",
"161 0 LINE",
"331 0 LINE"
);
},
{
closed = 1;
nodes = (
"169 55 LINE",
"136 55 OFFCURVE",
"129 59 OFFCURVE",
"134 107 CURVE",
"105 107 LINE",
"104 0 LINE",
"169 0 LINE"
);
},
{
closed = 1;
nodes = (
"403 0 OFFCURVE",
"405 1 OFFCURVE",
"407 8 CURVE SMOOTH",
"409 15 OFFCURVE",
"415 41 OFFCURVE",
"418 52 CURVE SMOOTH",
"420 61 OFFCURVE",
"413 62 OFFCURVE",
"407 62 CURVE SMOOTH",
"391 62 OFFCURVE",
"347 55 OFFCURVE",
"305 55 CURVE",
"305 0 LINE",
"329 0 OFFCURVE",
"384 0 OFFCURVE",
"396 0 CURVE"
);
}
);
};
hints = (
{
origin = "{1, 12}";
type = Corner;
name = _corner.serifUC;
},
{
origin = "{1, 20}";
type = Corner;
name = _corner.serifUC;
}
);
layerId = "B0B60A8F-2DEB-4A58-A43B-60A0DADABD8F";
paths = (
{
closed = 1;
nodes = (
"262 297 LINE SMOOTH",
"328 298 OFFCURVE",
"399 337 OFFCURVE",
"399 367 CURVE SMOOTH",
"399 377 OFFCURVE",
"393 384 OFFCURVE",
"383 384 CURVE SMOOTH",
"369 384 OFFCURVE",
"280 372 OFFCURVE",
"195 372 CURVE SMOOTH",
"147 372 LINE",
"134 295 LINE"
);
},
{
closed = 1;
nodes = (
"267 598 OFFCURVE",
"392 578 OFFCURVE",
"424 578 CURVE SMOOTH",
"453 578 OFFCURVE",
"476 631 OFFCURVE",
"476 668 CURVE SMOOTH",
"476 688 OFFCURVE",
"471 690 OFFCURVE",
"456 690 CURVE SMOOTH",
"436 690 OFFCURVE",
"390 680 OFFCURVE",
"259 680 CURVE SMOOTH",
"110 680 LINE",
"57 186 LINE SMOOTH",
"51 127 OFFCURVE",
"47 85 OFFCURVE",
"47 59 CURVE SMOOTH",
"47 23 OFFCURVE",
"54 -12 OFFCURVE",
"80 -12 CURVE SMOOTH",
"160 -12 LINE",
"219 605 LINE"
);
}
);
width = 456;
}
);
leftMetricsKey = H;
rightMetricsKey = E;
unicode = 0046;
},
{
glyphname = G;
lastChange = "2021-04-06 10:33:32 +0000";
layers = (
{
associatedMasterId = "B0B60A8F-2DEB-4A58-A43B-60A0DADABD8F";
background = {
paths = (
{
closed = 1;
nodes = (
"554 169 OFFCURVE",
"575 136 OFFCURVE",
"575 109 CURVE SMOOTH",
"575 74 OFFCURVE",
"453 -9 OFFCURVE",
"307 -9 CURVE SMOOTH",
"173 -9 OFFCURVE",
"30 65 OFFCURVE",
"30 234 CURVE SMOOTH",
"30 473 OFFCURVE",
"234 688 OFFCURVE",
"439 688 CURVE SMOOTH",
"569 688 OFFCURVE",
"641 592 OFFCURVE",
"641 463 CURVE SMOOTH",
"641 434 OFFCURVE",
"635 426 OFFCURVE",
"615 426 CURVE",
"526 426 LINE",
"507 426 OFFCURVE",
"505 433 OFFCURVE",
"505 443 CURVE SMOOTH",
"505 463 OFFCURVE",
"510 479 OFFCURVE",
"510 518 CURVE SMOOTH",
"510 589 OFFCURVE",
"482 630 OFFCURVE",
"423 630 CURVE SMOOTH",
"281 630 OFFCURVE",
"167 409 OFFCURVE",
"167 247 CURVE SMOOTH",
"167 103 OFFCURVE",
"263 56 OFFCURVE",
"324 56 CURVE SMOOTH",
"424 56 OFFCURVE",
"509 169 OFFCURVE",
"537 169 CURVE SMOOTH"
);
}
);
};
hints = (
{
origin = "{0, 15}";
type = Corner;
name = _corner.serifUC;
}
);
layerId = "1E3E5393-37B4-495A-B4F1-37D0090E79B2";
name = "Apr 6 21, 11:40";
paths = (
{
closed = 1;
nodes = (
"25 86 OFFCURVE",
"144 -16 OFFCURVE",
"321 -16 CURVE SMOOTH",
"407 -16 OFFCURVE",
"481 9 OFFCURVE",
"532 54 CURVE",
"547 -6 LINE",
"588 0 LINE",
"612 334 LINE SMOOTH",
"613 342 OFFCURVE",
"613 350 OFFCURVE",
"613 358 CURVE SMOOTH",
"613 394 OFFCURVE",
"604 404 OFFCURVE",
"577 404 CURVE SMOOTH",
"497 404 LINE",
"478 202 LINE SMOOTH",
"470 118 OFFCURVE",
"418 64 OFFCURVE",
"334 64 CURVE SMOOTH",
"231 64 OFFCURVE",
"158 142 OFFCURVE",
"158 301 CURVE SMOOTH",
"158 492 OFFCURVE",
"252 616 OFFCURVE",
"382 616 CURVE SMOOTH",
"487 616 OFFCURVE",
"531 528 OFFCURVE",
"559 528 CURVE SMOOTH",
"580 528 OFFCURVE",
"594 574 OFFCURVE",
"594 616 CURVE SMOOTH",
"594 668 OFFCURVE",
"508 696 OFFCURVE",
"400 696 CURVE SMOOTH",
"180 696 OFFCURVE",
"25 522 OFFCURVE",
"25 283 CURVE SMOOTH"
);
}
);
width = 671;
},
{
background = {
paths = (
{
closed = 1;
nodes = (
"557 169 OFFCURVE",
"578 136 OFFCURVE",
"578 109 CURVE SMOOTH",
"578 74 OFFCURVE",
"456 -9 OFFCURVE",
"310 -9 CURVE SMOOTH",
"176 -9 OFFCURVE",
"33 65 OFFCURVE",
"33 234 CURVE SMOOTH",
"33 473 OFFCURVE",
"237 688 OFFCURVE",
"442 688 CURVE SMOOTH",
"572 688 OFFCURVE",
"644 592 OFFCURVE",
"644 463 CURVE SMOOTH",
"644 434 OFFCURVE",
"638 426 OFFCURVE",
"618 426 CURVE",
"529 426 LINE",
"510 426 OFFCURVE",
"508 433 OFFCURVE",
"508 443 CURVE SMOOTH",
"508 463 OFFCURVE",
"513 479 OFFCURVE",
"513 518 CURVE SMOOTH",
"513 589 OFFCURVE",
"485 630 OFFCURVE",
"426 630 CURVE SMOOTH",
"284 630 OFFCURVE",
"170 409 OFFCURVE",
"170 247 CURVE SMOOTH",
"170 103 OFFCURVE",
"266 56 OFFCURVE",
"327 56 CURVE SMOOTH",
"427 56 OFFCURVE",
"512 169 OFFCURVE",
"540 169 CURVE SMOOTH"
);
}
);
};
hints = (
{
origin = "{0, 16}";
type = Corner;
name = _corner.serifUC;
}
);
layerId = "B0B60A8F-2DEB-4A58-A43B-60A0DADABD8F";
paths = (
{
closed = 1;
nodes = (
"28 86 OFFCURVE",
"147 -16 OFFCURVE",
"324 -16 CURVE SMOOTH",
"415 -16 OFFCURVE",
"489 3 OFFCURVE",
"555 52 CURVE SMOOTH",
"587 75 OFFCURVE",
"589 96 OFFCURVE",
"593 135 CURVE SMOOTH",
"615 334 LINE SMOOTH",
"616 342 OFFCURVE",
"616 350 OFFCURVE",
"616 358 CURVE SMOOTH",
"616 394 OFFCURVE",
"610 404 OFFCURVE",
"583 404 CURVE SMOOTH",
"503 404 LINE",
"476 154 LINE SMOOTH",
"469 90 OFFCURVE",
"437 64 OFFCURVE",
"337 64 CURVE SMOOTH",
"234 64 OFFCURVE",
"161 142 OFFCURVE",
"161 301 CURVE SMOOTH",
"161 492 OFFCURVE",
"255 616 OFFCURVE",
"394 616 CURVE SMOOTH",
"458 616 OFFCURVE",
"492 592 OFFCURVE",
"525 577 CURVE SMOOTH",
"543 568 OFFCURVE",
"559 558 OFFCURVE",
"571 558 CURVE SMOOTH",
"584 558 OFFCURVE",
"598 584 OFFCURVE",
"598 616 CURVE SMOOTH",
"598 676 OFFCURVE",
"543 696 OFFCURVE",
"436 696 CURVE SMOOTH",
"177 696 OFFCURVE",
"28 522 OFFCURVE",
"28 283 CURVE SMOOTH"
);
}
);
width = 636;
}
);
leftMetricsKey = O;
unicode = 0047;
},
{
glyphname = H;
lastChange = "2021-04-06 07:09:31 +0000";
layers = (
{
components = (
{
name = I;
},
{
name = I;
transform = "{1, 0, 0, 1, 362, 0}";
}
);
layerId = "B0B60A8F-2DEB-4A58-A43B-60A0DADABD8F";
paths = (
{
closed = 1;
nodes = (
"153 315 LINE",
"484 315 LINE",
"484 390 LINE",
"153 390 LINE"
);
}
);
width = 613;
},
{
associatedMasterId = "B0B60A8F-2DEB-4A58-A43B-60A0DADABD8F";
layerId = "506A5724-3951-421D-B233-FED29727E909";
name = "Mar 2 21, 15:32";
paths = (
{
closed = 1;
nodes = (
"125 680 LINE SMOOTH",
"117 679 OFFCURVE",
"103 678 OFFCURVE",
"101 656 CURVE SMOOTH",
"91 518 OFFCURVE",
"65 232 OFFCURVE",
"44 61 CURVE SMOOTH",
"38 14 OFFCURVE",
"33 -23 OFFCURVE",
"72 -15 CURVE SMOOTH",
"133 -3 LINE SMOOTH",
"159 2 OFFCURVE",
"156 26 OFFCURVE",
"160 69 CURVE SMOOTH",
"174 240 OFFCURVE",
"200 528 OFFCURVE",
"218 672 CURVE SMOOTH",
"220 690 OFFCURVE",
"211 693 OFFCURVE",
"202 692 CURVE SMOOTH"
);
},
{
closed = 1;
nodes = (
"571 680 LINE SMOOTH",
"563 679 OFFCURVE",
"554 678 OFFCURVE",
"553 660 CURVE SMOOTH",
"543 516 OFFCURVE",
"516 226 OFFCURVE",
"494 57 CURVE SMOOTH",
"488 14 OFFCURVE",
"482 -20 OFFCURVE",
"509 -15 CURVE SMOOTH",
"583 -2 LINE SMOOTH",
"610 3 OFFCURVE",
"607 26 OFFCURVE",
"610 69 CURVE SMOOTH",
"623 246 OFFCURVE",
"653 530 OFFCURVE",
"670 668 CURVE SMOOTH",
"673 690 OFFCURVE",
"656 694 OFFCURVE",
"646 692 CURVE SMOOTH"
);
},
{
closed = 1;
nodes = (
"181 308 LINE",
"184 339 OFFCURVE",
"193 342 OFFCURVE",
"216 342 CURVE SMOOTH",
"490 342 LINE SMOOTH",
"522 342 OFFCURVE",
"525 340 OFFCURVE",
"521 304 CURVE",
"527 304 LINE",
"538 447 LINE",
"535 447 LINE",
"531 408 OFFCURVE",
"526 395 OFFCURVE",
"490 395 CURVE SMOOTH",
"230 395 LINE SMOOTH",
"198 395 OFFCURVE",
"190 404 OFFCURVE",
"194 441 CURVE",
"191 441 LINE",
"175 308 LINE"
);
}
);
width = 710;
}
);
leftMetricsKey = I;
rightMetricsKey = I;
unicode = 0048;
},
{
glyphname = I;
lastChange = "2021-04-06 09:50:56 +0000";
layers = (
{
hints = (
{
origin = "{0, 13}";
type = Corner;
name = _corner.serifUC;
},
{
origin = "{0, 5}";
type = Corner;
name = _corner.serifUC;
}
);
layerId = "B0B60A8F-2DEB-4A58-A43B-60A0DADABD8F";
paths = (
{
closed = 1;
nodes = (
"52 107 OFFCURVE",
"52 53 CURVE SMOOTH",
"52 14 OFFCURVE",
"61 -8 OFFCURVE",
"79 -8 CURVE SMOOTH",
"159 -8 LINE",
"209 466 LINE SMOOTH",
"219 560 OFFCURVE",
"225 601 OFFCURVE",
"225 649 CURVE SMOOTH",
"225 685 OFFCURVE",
"216 695 OFFCURVE",
"192 695 CURVE SMOOTH",
"112 695 LINE",
"64 234 LINE SMOOTH",
"58 175 OFFCURVE"
);
}
);
width = 248;
}
);
unicode = 0049;
},
{
glyphname = J;
lastChange = "2021-04-06 13:41:27 +0000";
layers = (
{
hints = (
{
origin = "{0, 13}";
type = Corner;
name = _corner.serifUC;
}
);
layerId = "B0B60A8F-2DEB-4A58-A43B-60A0DADABD8F";
paths = (
{
closed = 1;
nodes = (
"-132 -136 OFFCURVE",
"-98 -170 OFFCURVE",
"-29 -170 CURVE SMOOTH",
"40 -170 OFFCURVE",
"157 -94 OFFCURVE",
"182 134 CURVE SMOOTH",
"218 466 LINE SMOOTH",
"228 560 OFFCURVE",
"236 625 OFFCURVE",
"236 649 CURVE SMOOTH",
"236 685 OFFCURVE",
"229 695 OFFCURVE",
"202 695 CURVE SMOOTH",
"122 695 LINE",
"54 78 LINE SMOOTH",
"40 -49 OFFCURVE",
"26 -88 OFFCURVE",
"-4 -88 CURVE SMOOTH",
"-27 -88 OFFCURVE",
"-58 -77 OFFCURVE",
"-90 -63 CURVE SMOOTH",
"-107 -56 OFFCURVE",
"-112 -53 OFFCURVE",
"-119 -53 CURVE SMOOTH",
"-125 -53 OFFCURVE",
"-132 -59 OFFCURVE",
"-132 -72 CURVE SMOOTH"
);
}
);
width = 219;
}
);
rightMetricsKey = H;
unicode = 004A;
},
{
glyphname = K;
lastChange = "2021-04-06 12:58:02 +0000";
layers = (
{
components = (
{
name = I;
}
);
layerId = "B0B60A8F-2DEB-4A58-A43B-60A0DADABD8F";
paths = (
{
closed = 1;
nodes = (
"234 321 OFFCURVE",
"243 305 OFFCURVE",
"250 291 CURVE SMOOTH",
"326 144 OFFCURVE",
"419 -7 OFFCURVE",
"472 -7 CURVE SMOOTH",
"514 -7 OFFCURVE",
"587 48 OFFCURVE",
"587 73 CURVE SMOOTH",
"587 88 OFFCURVE",
"569 83 OFFCURVE",
"552 83 CURVE SMOOTH",
"516 83 OFFCURVE",
"387 249 OFFCURVE",
"315 418 CURVE",
"307 351 LINE",
"448 497 LINE SMOOTH",
"496 546 OFFCURVE",
"514 562 OFFCURVE",
"539 562 CURVE SMOOTH",
"563 562 OFFCURVE",
"579 546 OFFCURVE",
"593 546 CURVE SMOOTH",
"613 546 OFFCURVE",
"633 591 OFFCURVE",
"633 640 CURVE SMOOTH",
"633 674 OFFCURVE",
"620 694 OFFCURVE",
"579 694 CURVE SMOOTH",
"532 694 OFFCURVE",
"487 662 OFFCURVE",
"431 604 CURVE SMOOTH",
"364 535 LINE SMOOTH",
"256 423 OFFCURVE",
"234 373 OFFCURVE",
"234 340 CURVE SMOOTH"
);
}
);
width = 617;
}
);
leftMetricsKey = H;
unicode = 004B;
},
{
glyphname = L;
lastChange = "2021-04-06 09:52:56 +0000";
layers = (
{
background = {
paths = (
{
closed = 1;
nodes = (
"175 680 OFFCURVE",
"125 680 OFFCURVE",
"113 680 CURVE",
"105 680 OFFCURVE",
"91 678 OFFCURVE",
"89 656 CURVE SMOOTH",
"79 518 OFFCURVE",
"53 246 OFFCURVE",
"32 75 CURVE SMOOTH",
"26 28 OFFCURVE",
"20 0 OFFCURVE",
"60 0 CURVE SMOOTH",
"69 0 OFFCURVE",
"86 0 OFFCURVE",
"122 0 CURVE SMOOTH",
"149 0 OFFCURVE",
"145 28 OFFCURVE",
"149 71 CURVE SMOOTH",
"163 242 OFFCURVE",
"189 516 OFFCURVE",
"207 660 CURVE SMOOTH",
"209 678 OFFCURVE",
"200 680 OFFCURVE",
"191 680 CURVE"
);
},
{
closed = 1;
nodes = (
"191 389 LINE",
"191 342 LINE",
"395 342 LINE",
"395 389 LINE"
);
},
{
closed = 1;
nodes = (
"179 432 LINE",
"164 308 LINE",
"170 308 LINE",
"173 344 OFFCURVE",
"186 342 OFFCURVE",
"219 342 CURVE",
"219 389 LINE",
"187 389 OFFCURVE",
"179 397 OFFCURVE",
"182 432 CURVE"
);
},
{
closed = 1;
nodes = (
"410 340 OFFCURVE",
"412 341 OFFCURVE",
"414 348 CURVE SMOOTH",
"416 355 OFFCURVE",
"420 371 OFFCURVE",
"423 382 CURVE SMOOTH",
"425 390 OFFCURVE",
"420 392 OFFCURVE",
"414 392 CURVE SMOOTH",
"398 392 OFFCURVE",
"350 389 OFFCURVE",
"336 389 CURVE",
"336 342 LINE",
"360 342 OFFCURVE",
"391 340 OFFCURVE",
"403 340 CURVE"
);
},
{
closed = 1;
nodes = (
"238 680 LINE",
"238 635 LINE",
"392 635 LINE",
"392 680 LINE"
);
},
{
closed = 1;
nodes = (
"191 680 LINE",
"191 593 LINE",
"199 593 LINE",
"203 631 OFFCURVE",
"213 635 OFFCURVE",
"246 635 CURVE",
"246 680 LINE"
);
},
{
closed = 1;
nodes = (
"465 630 OFFCURVE",
"467 631 OFFCURVE",
"469 638 CURVE SMOOTH",
"471 645 OFFCURVE",
"475 659 OFFCURVE",
"478 670 CURVE SMOOTH",
"480 679 OFFCURVE",
"475 680 OFFCURVE",
"469 680 CURVE SMOOTH",
"453 680 OFFCURVE",
"378 680 OFFCURVE",
"364 680 CURVE",
"364 635 LINE",
"414 635 OFFCURVE",
"450 630 OFFCURVE",
"458 630 CURVE"
);
},
{
closed = 1;
nodes = (
"349 55 LINE",
"179 55 LINE",
"179 0 LINE",
"349 0 LINE"
);
},
{
closed = 1;
nodes = (
"187 55 LINE",
"154 55 OFFCURVE",
"147 59 OFFCURVE",
"152 107 CURVE",
"123 107 LINE",
"122 0 LINE",
"187 0 LINE"
);
},
{
closed = 1;
nodes = (
"421 0 OFFCURVE",
"423 1 OFFCURVE",
"425 8 CURVE SMOOTH",
"427 15 OFFCURVE",
"433 41 OFFCURVE",
"436 52 CURVE SMOOTH",
"438 61 OFFCURVE",
"431 62 OFFCURVE",
"425 62 CURVE SMOOTH",
"409 62 OFFCURVE",
"365 55 OFFCURVE",
"323 55 CURVE",
"323 0 LINE",
"347 0 OFFCURVE",
"402 0 OFFCURVE",
"414 0 CURVE"
);
}
);
};
hints = (
{
origin = "{0, 3}";
type = Corner;
name = _corner.serifUC;
}
);
layerId = "B0B60A8F-2DEB-4A58-A43B-60A0DADABD8F";
paths = (
{
closed = 1;
nodes = (
"232 664 OFFCURVE",
"234 695 OFFCURVE",
"192 695 CURVE SMOOTH",
"112 695 LINE",
"60 186 LINE SMOOTH",
"54 127 OFFCURVE",
"51 85 OFFCURVE",
"51 59 CURVE SMOOTH",
"51 23 OFFCURVE",
"64 -12 OFFCURVE",
"88 -12 CURVE SMOOTH",
"123 -12 OFFCURVE",
"182 0 OFFCURVE",
"332 0 CURVE SMOOTH",
"362 0 LINE SMOOTH",
"405 0 OFFCURVE",
"431 90 OFFCURVE",
"431 140 CURVE SMOOTH",
"431 150 OFFCURVE",
"425 154 OFFCURVE",
"419 154 CURVE SMOOTH",
"402 154 OFFCURVE",
"322 75 OFFCURVE",
"178 75 CURVE",
"174 103 OFFCURVE",
"174 131 OFFCURVE",
"177 159 CURVE SMOOTH",
"223 583 LINE SMOOTH"
);
}
);
width = 442;
}
);
leftMetricsKey = H;
rightMetricsKey = A;
unicode = 004C;
},
{
glyphname = M;
lastChange = "2021-04-06 13:41:49 +0000";
layers = (
{
hints = (
{
origin = "{0, 41}";
type = Corner;
name = _corner.serifUC;
},
{
origin = "{0, 27}";
type = Corner;
name = _corner.serifUC;
}
);
layerId = "B0B60A8F-2DEB-4A58-A43B-60A0DADABD8F";
paths = (
{
closed = 1;
nodes = (
"40 11 OFFCURVE",
"44 -12 OFFCURVE",
"66 -12 CURVE SMOOTH",
"90 -12 OFFCURVE",
"165 19 OFFCURVE",
"165 48 CURVE SMOOTH",
"165 81 OFFCURVE",
"128 82 OFFCURVE",
"151 293 CURVE SMOOTH",
"179 552 LINE",
"163 551 LINE",
"299 41 LINE SMOOTH",
"305 17 OFFCURVE",
"316 12 OFFCURVE",
"334 12 CURVE SMOOTH",
"366 12 OFFCURVE",
"390 32 OFFCURVE",
"489 264 CURVE SMOOTH",
"610 546 LINE",
"604 550 LINE",
"567 234 LINE SMOOTH",
"560 175 OFFCURVE",
"557 107 OFFCURVE",
"557 53 CURVE SMOOTH",
"557 14 OFFCURVE",
"566 -8 OFFCURVE",
"584 -8 CURVE SMOOTH",
"664 -8 LINE",
"732 649 LINE SMOOTH",
"736 685 OFFCURVE",
"721 695 OFFCURVE",
"694 695 CURVE SMOOTH",
"627 695 OFFCURVE",
"568 654 OFFCURVE",
"543 594 CURVE SMOOTH",
"347 125 LINE",
"397 123 LINE",
"250 664 LINE SMOOTH",
"243 691 OFFCURVE",
"230 697 OFFCURVE",
"187 696 CURVE SMOOTH",
"107 695 LINE",
"52 191 LINE SMOOTH",
"46 140 OFFCURVE",
"40 86 OFFCURVE",
"40 39 CURVE SMOOTH"
);
}
);
width = 753;
}
);
leftMetricsKey = N;
rightMetricsKey = H;
unicode = 004D;
},
{
glyphname = N;
lastChange = "2021-04-06 13:41:56 +0000";
layers = (
{
background = {
paths = (
{
closed = 1;
nodes = (
"168 680 OFFCURVE",
"118 680 OFFCURVE",
"106 680 CURVE",
"98 680 OFFCURVE",
"84 678 OFFCURVE",
"82 656 CURVE SMOOTH",
"72 518 OFFCURVE",
"46 246 OFFCURVE",
"25 75 CURVE SMOOTH",
"19 28 OFFCURVE",
"13 0 OFFCURVE",
"53 0 CURVE SMOOTH",
"62 0 OFFCURVE",
"79 0 OFFCURVE",
"115 0 CURVE SMOOTH",
"142 0 OFFCURVE",
"138 28 OFFCURVE",
"142 71 CURVE SMOOTH",
"156 242 OFFCURVE",
"182 516 OFFCURVE",
"200 660 CURVE SMOOTH",
"202 678 OFFCURVE",
"193 680 OFFCURVE",
"184 680 CURVE"
);
},
{
closed = 1;
nodes = (
"615 680 OFFCURVE",
"565 680 OFFCURVE",
"553 680 CURVE",
"545 680 OFFCURVE",
"536 678 OFFCURVE",
"535 660 CURVE SMOOTH",
"525 516 OFFCURVE",
"498 240 OFFCURVE",
"476 71 CURVE SMOOTH",
"470 28 OFFCURVE",
"464 0 OFFCURVE",
"491 0 CURVE SMOOTH",
"500 0 OFFCURVE",
"531 0 OFFCURVE",
"567 0 CURVE SMOOTH",
"594 0 OFFCURVE",
"591 28 OFFCURVE",
"594 71 CURVE SMOOTH",
"607 248 OFFCURVE",
"634 518 OFFCURVE",
"651 656 CURVE SMOOTH",
"654 678 OFFCURVE",
"637 680 OFFCURVE",
"627 680 CURVE"
);
},
{
closed = 1;
nodes = (
"184 342 LINE",
"503 342 LINE",
"503 395 LINE",
"184 395 LINE"
);
},
{
closed = 1;
nodes = (
"173 441 LINE",
"157 308 LINE",
"163 308 LINE",
"166 344 OFFCURVE",
"179 342 OFFCURVE",
"212 342 CURVE",
"212 395 LINE",
"180 395 OFFCURVE",
"172 404 OFFCURVE",
"176 441 CURVE"
);
},
{
closed = 1;
nodes = (
"513 408 OFFCURVE",
"508 395 OFFCURVE",
"472 395 CURVE",
"472 342 LINE",
"504 342 OFFCURVE",
"507 340 OFFCURVE",
"503 304 CURVE",
"509 304 LINE",
"520 447 LINE",
"517 447 LINE"
);
}
);
};
guideLines = (
{
angle = 264;
position = "{517, 327}";
}
);
hints = (
{
origin = "{0, 38}";
type = Corner;
name = _corner.serifUC;
}
);
layerId = "B0B60A8F-2DEB-4A58-A43B-60A0DADABD8F";
paths = (
{
closed = 1;
nodes = (
"178 552 LINE",
"164 550 LINE",
"243 399 OFFCURVE",
"367 252 OFFCURVE",
"431 137 CURVE SMOOTH",
"450 104 OFFCURVE",
"480 49 OFFCURVE",
"479 23 CURVE SMOOTH",
"478 1 OFFCURVE",
"489 -11 OFFCURVE",
"501 -11 CURVE SMOOTH",
"529 -11 OFFCURVE",
"598 16 OFFCURVE",
"598 46 CURVE SMOOTH",
"598 97 OFFCURVE",
"585 141 OFFCURVE",
"612 392 CURVE SMOOTH",
"626 524 LINE SMOOTH",
"633 589 OFFCURVE",
"637 623 OFFCURVE",
"637 646 CURVE SMOOTH",
"637 672 OFFCURVE",
"630 694 OFFCURVE",
"605 694 CURVE SMOOTH",
"579 694 OFFCURVE",
"512 662 OFFCURVE",
"512 635 CURVE SMOOTH",
"512 600 OFFCURVE",
"542 573 OFFCURVE",
"523 387 CURVE SMOOTH",
"501 172 LINE",
"527 203 LINE",
"461 326 OFFCURVE",
"328 496 OFFCURVE",
"232 664 CURVE SMOOTH",
"215 694 OFFCURVE",
"204 696 OFFCURVE",
"180 696 CURVE SMOOTH",
"107 695 LINE",
"52 191 LINE SMOOTH",
"46 140 OFFCURVE",
"40 86 OFFCURVE",
"40 39 CURVE SMOOTH",
"40 11 OFFCURVE",
"44 -12 OFFCURVE",
"66 -12 CURVE SMOOTH",
"90 -12 OFFCURVE",
"165 19 OFFCURVE",
"165 48 CURVE SMOOTH",
"165 81 OFFCURVE",
"128 82 OFFCURVE",
"151 293 CURVE SMOOTH"
);
}
);
width = 653;
},
{
associatedMasterId = "B0B60A8F-2DEB-4A58-A43B-60A0DADABD8F";
background = {
paths = (
{
closed = 1;
nodes = (
"175 680 OFFCURVE",
"125 680 OFFCURVE",
"113 680 CURVE",
"105 680 OFFCURVE",
"91 678 OFFCURVE",
"89 656 CURVE SMOOTH",
"79 518 OFFCURVE",
"53 246 OFFCURVE",
"32 75 CURVE SMOOTH",
"26 28 OFFCURVE",
"20 0 OFFCURVE",
"60 0 CURVE SMOOTH",
"69 0 OFFCURVE",
"86 0 OFFCURVE",
"122 0 CURVE SMOOTH",
"149 0 OFFCURVE",
"145 28 OFFCURVE",
"149 71 CURVE SMOOTH",
"163 242 OFFCURVE",
"189 516 OFFCURVE",
"207 660 CURVE SMOOTH",
"209 678 OFFCURVE",
"200 680 OFFCURVE",
"191 680 CURVE"
);
},
{
closed = 1;
nodes = (
"622 680 OFFCURVE",
"572 680 OFFCURVE",
"560 680 CURVE",
"552 680 OFFCURVE",
"543 678 OFFCURVE",
"542 660 CURVE SMOOTH",
"532 516 OFFCURVE",
"505 240 OFFCURVE",
"483 71 CURVE SMOOTH",
"477 28 OFFCURVE",
"471 0 OFFCURVE",
"498 0 CURVE SMOOTH",
"507 0 OFFCURVE",
"538 0 OFFCURVE",
"574 0 CURVE SMOOTH",
"601 0 OFFCURVE",
"598 28 OFFCURVE",
"601 71 CURVE SMOOTH",
"614 248 OFFCURVE",
"641 518 OFFCURVE",
"658 656 CURVE SMOOTH",
"661 678 OFFCURVE",
"644 680 OFFCURVE",
"634 680 CURVE"
);
},
{
closed = 1;
nodes = (
"191 342 LINE",
"510 342 LINE",
"510 395 LINE",
"191 395 LINE"
);
},
{
closed = 1;
nodes = (
"180 441 LINE",
"164 308 LINE",
"170 308 LINE",
"173 344 OFFCURVE",
"186 342 OFFCURVE",
"219 342 CURVE",
"219 395 LINE",
"187 395 OFFCURVE",
"179 404 OFFCURVE",
"183 441 CURVE"
);
},
{
closed = 1;
nodes = (
"520 408 OFFCURVE",
"515 395 OFFCURVE",
"479 395 CURVE",
"479 342 LINE",
"511 342 OFFCURVE",
"514 340 OFFCURVE",
"510 304 CURVE",
"516 304 LINE",
"527 447 LINE",
"524 447 LINE"
);
}
);
};
hints = (
{
origin = "{0, 44}";
type = Corner;
name = _corner.serifUC;
}
);
layerId = "A09B1C72-78F7-4C8A-9F23-5F63C3B47719";
name = "Apr 6 21, 09:03";
paths = (
{
closed = 1;
nodes = (
"45 15 OFFCURVE",
"53 -8 OFFCURVE",
"77 -8 CURVE SMOOTH",
"105 -6 OFFCURVE",
"153 15 OFFCURVE",
"153 42 CURVE SMOOTH",
"153 77 OFFCURVE",
"143 141 OFFCURVE",
"147 176 CURVE SMOOTH",
"189 550 LINE",
"173 548 LINE",
"278 390 OFFCURVE",
"355 162 OFFCURVE",
"448 34 CURVE SMOOTH",
"464 12 OFFCURVE",
"471 -11 OFFCURVE",
"495 -11 CURVE SMOOTH",
"523 -9 OFFCURVE",
"572 12 OFFCURVE",
"572 39 CURVE SMOOTH",
"572 74 OFFCURVE",
"572 141 OFFCURVE",
"576 176 CURVE SMOOTH",
"621 591 LINE SMOOTH",
"623 608 OFFCURVE",
"624 623 OFFCURVE",
"624 636 CURVE SMOOTH",
"624 672 OFFCURVE",
"611 695 OFFCURVE",
"592 694 CURVE SMOOTH",
"559 693 OFFCURVE",
"515 672 OFFCURVE",
"515 645 CURVE SMOOTH",
"515 610 OFFCURVE",
"526 573 OFFCURVE",
"520 511 CURVE SMOOTH",
"487 178 LINE",
"502 179 LINE",
"415 293 OFFCURVE",
"354 515 OFFCURVE",
"234 681 CURVE SMOOTH",
"226 692 OFFCURVE",
"218 696 OFFCURVE",
"194 696 CURVE SMOOTH",
"114 695 LINE",
"48 96 LINE SMOOTH",
"46 79 OFFCURVE",
"45 64 OFFCURVE",
"45 51 CURVE SMOOTH"
);
}
);
width = 648;
}
);
unicode = 004E;
},
{
glyphname = O;
lastChange = "2021-04-06 08:55:23 +0000";
layers = (
{
background = {
paths = (
{
closed = 1;
nodes = (
"390 -9 OFFCURVE",
"242 -6 CURVE SMOOTH",
"134 -5 OFFCURVE",
"78 58 OFFCURVE",
"78 174 CURVE SMOOTH",
"78 338 OFFCURVE",
"189 492 OFFCURVE",
"349 492 CURVE SMOOTH",
"466 492 OFFCURVE",
"510 403 OFFCURVE",
"506 287 CURVE SMOOTH",
"500 136 OFFCURVE"
);
},
{
closed = 1;
nodes = (
"401 223 OFFCURVE",
"401 320 CURVE SMOOTH",
"401 385 OFFCURVE",
"358 431 OFFCURVE",
"283 431 CURVE SMOOTH",
"219 431 OFFCURVE",
"185 274 OFFCURVE",
"185 173 CURVE SMOOTH",
"185 91 OFFCURVE",
"257 62 OFFCURVE",
"308 62 CURVE SMOOTH",
"375 62 OFFCURVE"
);
},
{
closed = 1;
nodes = (
"568 -13 OFFCURVE",
"361 -9 CURVE SMOOTH",
"210 -7 OFFCURVE",
"72 81 OFFCURVE",
"72 243 CURVE SMOOTH",
"72 473 OFFCURVE",
"237 688 OFFCURVE",
"461 688 CURVE SMOOTH",
"625 688 OFFCURVE",
"746 564 OFFCURVE",
"741 401 CURVE SMOOTH",
"732 190 OFFCURVE"
);
},
{
closed = 1;
nodes = (
"599 312 OFFCURVE",
"599 447 CURVE SMOOTH",
"599 538 OFFCURVE",
"474 603 OFFCURVE",
"369 603 CURVE SMOOTH",
"279 603 OFFCURVE",
"216 383 OFFCURVE",
"216 242 CURVE SMOOTH",
"216 127 OFFCURVE",
"382 86 OFFCURVE",
"454 86 CURVE SMOOTH",
"547 86 OFFCURVE"
);
},
{
closed = 1;
nodes = (
"553 57 OFFCURVE",
"614 283 OFFCURVE",
"614 418 CURVE SMOOTH",
"614 550 OFFCURVE",
"510 623 OFFCURVE",
"410 623 CURVE SMOOTH",
"285 623 OFFCURVE",
"201 396 OFFCURVE",
"201 261 CURVE SMOOTH",
"201 107 OFFCURVE",
"324 57 OFFCURVE",
"405 57 CURVE SMOOTH"
);
}
);
};
layerId = "B0B60A8F-2DEB-4A58-A43B-60A0DADABD8F";
paths = (
{
closed = 1;
nodes = (
"524 -16 OFFCURVE",
"684 158 OFFCURVE",
"684 398 CURVE SMOOTH",
"684 594 OFFCURVE",
"578 696 OFFCURVE",
"398 696 CURVE SMOOTH",
"188 696 OFFCURVE",
"28 522 OFFCURVE",
"28 283 CURVE SMOOTH",
"28 86 OFFCURVE",
"142 -16 OFFCURVE",
"314 -16 CURVE SMOOTH"
);
},
{
closed = 1;
nodes = (
"476 616 OFFCURVE",
"551 541 OFFCURVE",
"551 378 CURVE SMOOTH",
"551 192 OFFCURVE",
"439 64 OFFCURVE",
"327 64 CURVE SMOOTH",
"236 64 OFFCURVE",
"161 139 OFFCURVE",
"161 302 CURVE SMOOTH",
"161 488 OFFCURVE",
"263 616 OFFCURVE",
"385 616 CURVE SMOOTH"
);
}
);
width = 690;
},
{
associatedMasterId = "B0B60A8F-2DEB-4A58-A43B-60A0DADABD8F";
background = {
paths = (
{
closed = 1;
nodes = (
"356 -9 OFFCURVE",
"208 -6 CURVE SMOOTH",
"100 -5 OFFCURVE",
"44 58 OFFCURVE",
"44 174 CURVE SMOOTH",
"44 338 OFFCURVE",
"155 492 OFFCURVE",
"315 492 CURVE SMOOTH",
"432 492 OFFCURVE",
"476 403 OFFCURVE",
"472 287 CURVE SMOOTH",
"466 136 OFFCURVE"
);
},
{
closed = 1;
nodes = (
"367 223 OFFCURVE",
"367 320 CURVE SMOOTH",
"367 385 OFFCURVE",
"324 431 OFFCURVE",
"249 431 CURVE SMOOTH",
"185 431 OFFCURVE",
"151 274 OFFCURVE",
"151 173 CURVE SMOOTH",
"151 91 OFFCURVE",
"223 62 OFFCURVE",
"274 62 CURVE SMOOTH",
"341 62 OFFCURVE"
);
},
{
closed = 1;
nodes = (
"534 -13 OFFCURVE",
"327 -9 CURVE SMOOTH",
"176 -7 OFFCURVE",
"38 81 OFFCURVE",
"38 243 CURVE SMOOTH",
"38 473 OFFCURVE",
"203 688 OFFCURVE",
"427 688 CURVE SMOOTH",
"591 688 OFFCURVE",
"712 564 OFFCURVE",
"707 401 CURVE SMOOTH",
"698 190 OFFCURVE"
);
},
{
closed = 1;
nodes = (
"565 312 OFFCURVE",
"565 447 CURVE SMOOTH",
"565 538 OFFCURVE",
"440 603 OFFCURVE",
"335 603 CURVE SMOOTH",
"245 603 OFFCURVE",
"182 383 OFFCURVE",
"182 242 CURVE SMOOTH",
"182 127 OFFCURVE",
"348 86 OFFCURVE",
"420 86 CURVE SMOOTH",
"513 86 OFFCURVE"
);
},
{
closed = 1;
nodes = (
"519 57 OFFCURVE",
"580 283 OFFCURVE",
"580 418 CURVE SMOOTH",
"580 550 OFFCURVE",
"476 623 OFFCURVE",
"376 623 CURVE SMOOTH",
"251 623 OFFCURVE",
"167 396 OFFCURVE",
"167 261 CURVE SMOOTH",
"167 107 OFFCURVE",
"290 57 OFFCURVE",
"371 57 CURVE SMOOTH"
);
}
);
};
layerId = "4C2DB51E-46CA-45EB-9842-86D44B9271B9";
name = "Apr 6 21, 11:24";
paths = (
{
closed = 1;
nodes = (
"136 -15 OFFCURVE",
"30 99 OFFCURVE",
"30 304 CURVE SMOOTH",
"30 535 OFFCURVE",
"179 696 OFFCURVE",
"393 696 CURVE SMOOTH",
"583 696 OFFCURVE",
"689 582 OFFCURVE",
"689 377 CURVE SMOOTH",
"689 146 OFFCURVE",
"540 -15 OFFCURVE",
"326 -15 CURVE SMOOTH"
);
},
{
closed = 1;
nodes = (
"251 616 OFFCURVE",
"160 491 OFFCURVE",
"160 309 CURVE SMOOTH",
"160 160 OFFCURVE",
"241 65 OFFCURVE",
"344 65 CURVE SMOOTH",
"468 65 OFFCURVE",
"559 195 OFFCURVE",
"559 372 CURVE SMOOTH",
"559 519 OFFCURVE",
"490 616 OFFCURVE",
"383 616 CURVE SMOOTH"
);
}
);
width = 697;
},
{
associatedMasterId = "B0B60A8F-2DEB-4A58-A43B-60A0DADABD8F";
background = {
paths = (
{
closed = 1;
nodes = (
"356 -9 OFFCURVE",
"208 -6 CURVE SMOOTH",
"100 -5 OFFCURVE",
"44 58 OFFCURVE",
"44 174 CURVE SMOOTH",
"44 338 OFFCURVE",
"155 492 OFFCURVE",
"315 492 CURVE SMOOTH",
"432 492 OFFCURVE",
"476 403 OFFCURVE",
"472 287 CURVE SMOOTH",
"466 136 OFFCURVE"
);
},
{
closed = 1;
nodes = (
"367 223 OFFCURVE",
"367 320 CURVE SMOOTH",
"367 385 OFFCURVE",
"324 431 OFFCURVE",
"249 431 CURVE SMOOTH",
"185 431 OFFCURVE",
"151 274 OFFCURVE",
"151 173 CURVE SMOOTH",
"151 91 OFFCURVE",
"223 62 OFFCURVE",
"274 62 CURVE SMOOTH",
"341 62 OFFCURVE"
);
},
{
closed = 1;
nodes = (
"534 -13 OFFCURVE",
"327 -9 CURVE SMOOTH",
"176 -7 OFFCURVE",
"38 81 OFFCURVE",
"38 243 CURVE SMOOTH",
"38 473 OFFCURVE",
"203 688 OFFCURVE",
"427 688 CURVE SMOOTH",
"591 688 OFFCURVE",
"712 564 OFFCURVE",
"707 401 CURVE SMOOTH",
"698 190 OFFCURVE"
);
},
{
closed = 1;
nodes = (
"565 312 OFFCURVE",
"565 447 CURVE SMOOTH",
"565 538 OFFCURVE",
"440 603 OFFCURVE",
"335 603 CURVE SMOOTH",
"245 603 OFFCURVE",
"182 383 OFFCURVE",
"182 242 CURVE SMOOTH",
"182 127 OFFCURVE",
"348 86 OFFCURVE",
"420 86 CURVE SMOOTH",
"513 86 OFFCURVE"
);
},
{
closed = 1;
nodes = (
"519 57 OFFCURVE",
"580 283 OFFCURVE",
"580 418 CURVE SMOOTH",
"580 550 OFFCURVE",
"476 623 OFFCURVE",
"376 623 CURVE SMOOTH",
"251 623 OFFCURVE",
"167 396 OFFCURVE",
"167 261 CURVE SMOOTH",
"167 107 OFFCURVE",
"290 57 OFFCURVE",
"371 57 CURVE SMOOTH"
);
}
);
};
layerId = "8B1115C9-7A40-4497-8987-8565BA979C8B";
name = "Apr 6 21, 11:29";
paths = (
{
closed = 1;
nodes = (
"285 -16 LINE",
"76 -16 OFFCURVE",
"-4 86 OFFCURVE",
"-4 272 CURVE SMOOTH",
"-4 522 OFFCURVE",
"125 696 OFFCURVE",
"359 696 CURVE",
"351 616 LINE",
"211 616 OFFCURVE",
"125 468 OFFCURVE",
"125 272 CURVE SMOOTH",
"125 139 OFFCURVE",
"170 64 OFFCURVE",
"293 64 CURVE"
);
},
{
closed = 1;
nodes = (
"359 696 LINE",
"568 696 OFFCURVE",
"648 594 OFFCURVE",
"648 408 CURVE SMOOTH",
"648 158 OFFCURVE",
"519 -16 OFFCURVE",
"285 -16 CURVE",
"293 64 LINE",
"433 64 OFFCURVE",
"519 212 OFFCURVE",
"519 408 CURVE SMOOTH",
"519 541 OFFCURVE",
"474 616 OFFCURVE",
"351 616 CURVE"
);
}
);
width = 697;
}
);
rightMetricsKey = "=|";
unicode = 004F;
},
{
glyphname = P;
lastChange = "2021-04-06 09:51:14 +0000";
layers = (
{
background = {
paths = (
{
closed = 1;
nodes = (
"191 629 OFFCURVE",
"197 634 OFFCURVE",
"313 634 CURVE SMOOTH",
"459 634 OFFCURVE",
"517 555 OFFCURVE",
"517 418 CURVE SMOOTH",
"517 261 OFFCURVE",
"424 59 OFFCURVE",
"244 59 CURVE SMOOTH",
"186 59 OFFCURVE",
"137 65 OFFCURVE",
"141 120 CURVE",
"110 120 LINE",
"110 0 LINE",
"144 0 OFFCURVE",
"171 0 OFFCURVE",
"206 0 CURVE SMOOTH",
"543 0 OFFCURVE",
"657 241 OFFCURVE",
"657 429 CURVE SMOOTH",
"657 598 OFFCURVE",
"554 684 OFFCURVE",
"375 684 CURVE SMOOTH",
"305 684 OFFCURVE",
"257 680 OFFCURVE",
"179 680 CURVE",
"179 584 LINE",
"186 584 LINE"
);
},
{
closed = 1;
nodes = (
"188 364 OFFCURVE",
"191 362 OFFCURVE",
"200 363 CURVE SMOOTH",
"259 372 OFFCURVE",
"379 393 OFFCURVE",
"401 393 CURVE",
"401 396 OFFCURVE",
"401 401 OFFCURVE",
"401 406 CURVE",
"471 434 OFFCURVE",
"542 487 OFFCURVE",
"542 557 CURVE SMOOTH",
"542 619 OFFCURVE",
"483 684 OFFCURVE",
"332 684 CURVE SMOOTH",
"277 684 OFFCURVE",
"257 680 OFFCURVE",
"179 680 CURVE",
"179 584 LINE",
"186 584 LINE",
"191 629 OFFCURVE",
"197 646 OFFCURVE",
"293 646 CURVE SMOOTH",
"395 646 OFFCURVE",
"423 594 OFFCURVE",
"423 565 CURVE SMOOTH",
"423 502 OFFCURVE",
"357 421 OFFCURVE",
"204 406 CURVE SMOOTH",
"193 405 OFFCURVE",
"191 401 OFFCURVE",
"190 391 CURVE",
"189 373 LINE"
);
}
);
};
hints = (
{
origin = "{0, 24}";
type = Corner;
name = _corner.serifUC;
},
{
origin = "{0, 3}";
type = Corner;
name = _corner.serifUC;
}
);
layerId = "B0B60A8F-2DEB-4A58-A43B-60A0DADABD8F";
paths = (
{
closed = 1;
nodes = (
"44 15 OFFCURVE",
"52 -8 OFFCURVE",
"75 -8 CURVE SMOOTH",
"156 -8 LINE",
"222 605 LINE",
"278 605 LINE SMOOTH",
"371 605 OFFCURVE",
"408 560 OFFCURVE",
"408 490 CURVE SMOOTH",
"408 385 OFFCURVE",
"325 326 OFFCURVE",
"235 309 CURVE SMOOTH",
"224 307 OFFCURVE",
"213 302 OFFCURVE",
"213 288 CURVE SMOOTH",
"213 266 OFFCURVE",
"248 241 OFFCURVE",
"270 241 CURVE SMOOTH",
"379 241 OFFCURVE",
"541 349 OFFCURVE",
"541 503 CURVE SMOOTH",
"541 629 OFFCURVE",
"452 680 OFFCURVE",
"314 680 CURVE SMOOTH",
"110 680 LINE",
"47 96 LINE SMOOTH",
"45 79 OFFCURVE",
"44 64 OFFCURVE",
"44 51 CURVE SMOOTH"
);
}
);
width = 534;
},
{
associatedMasterId = "B0B60A8F-2DEB-4A58-A43B-60A0DADABD8F";
background = {
paths = (
{
closed = 1;
nodes = (
"199 629 OFFCURVE",
"205 634 OFFCURVE",
"321 634 CURVE SMOOTH",
"467 634 OFFCURVE",
"525 555 OFFCURVE",
"525 418 CURVE SMOOTH",
"525 261 OFFCURVE",
"432 59 OFFCURVE",
"252 59 CURVE SMOOTH",
"194 59 OFFCURVE",
"145 65 OFFCURVE",
"149 120 CURVE",
"118 120 LINE",
"118 0 LINE",
"152 0 OFFCURVE",
"179 0 OFFCURVE",
"214 0 CURVE SMOOTH",
"551 0 OFFCURVE",
"665 241 OFFCURVE",
"665 429 CURVE SMOOTH",
"665 598 OFFCURVE",
"562 684 OFFCURVE",
"383 684 CURVE SMOOTH",
"313 684 OFFCURVE",
"265 680 OFFCURVE",
"187 680 CURVE",
"187 584 LINE",
"194 584 LINE"
);
},
{
closed = 1;
nodes = (
"196 364 OFFCURVE",
"199 362 OFFCURVE",
"208 363 CURVE SMOOTH",
"267 372 OFFCURVE",
"387 393 OFFCURVE",
"409 393 CURVE",
"409 396 OFFCURVE",
"409 401 OFFCURVE",
"409 406 CURVE",
"479 434 OFFCURVE",
"550 487 OFFCURVE",
"550 557 CURVE SMOOTH",
"550 619 OFFCURVE",
"491 684 OFFCURVE",
"340 684 CURVE SMOOTH",
"285 684 OFFCURVE",
"265 680 OFFCURVE",
"187 680 CURVE",
"187 584 LINE",
"194 584 LINE",
"199 629 OFFCURVE",
"205 646 OFFCURVE",
"301 646 CURVE SMOOTH",
"403 646 OFFCURVE",
"431 594 OFFCURVE",
"431 565 CURVE SMOOTH",
"431 502 OFFCURVE",
"365 421 OFFCURVE",
"212 406 CURVE SMOOTH",
"201 405 OFFCURVE",
"199 401 OFFCURVE",
"198 391 CURVE",
"197 373 LINE"
);
}
);
};
hints = (
{
origin = "{0, 21}";
type = Corner;
name = _corner.serifUC;
},
{
origin = "{0, 3}";
type = Corner;
name = _corner.serifUC;
}
);
layerId = "892F862E-1A43-467F-87C1-51B360F34DFE";
name = "Apr 6 21, 09:03";
paths = (
{
closed = 1;
nodes = (
"51 15 OFFCURVE",
"59 -8 OFFCURVE",
"83 -8 CURVE SMOOTH",
"164 -8 LINE",
"230 605 LINE",
"288 605 LINE SMOOTH",
"388 605 OFFCURVE",
"446 559 OFFCURVE",
"446 460 CURVE SMOOTH",
"446 346 OFFCURVE",
"363 290 OFFCURVE",
"247 290 CURVE SMOOTH",
"173 290 LINE",
"178 214 LINE",
"245 214 LINE SMOOTH",
"416 214 OFFCURVE",
"576 307 OFFCURVE",
"576 474 CURVE SMOOTH",
"576 605 OFFCURVE",
"492 680 OFFCURVE",
"296 680 CURVE SMOOTH",
"118 680 LINE",
"54 96 LINE SMOOTH",
"52 79 OFFCURVE",
"51 64 OFFCURVE",
"51 51 CURVE SMOOTH"
);
}
);
width = 578;
}
);
leftMetricsKey = H;
rightMetricsKey = O;
unicode = 0050;
},
{
glyphname = Q;
lastChange = "2021-04-06 09:21:12 +0000";
layers = (
{
background = {
paths = (
{
closed = 1;
nodes = (
"708 206 OFFCURVE",
"543 -9 OFFCURVE",
"319 -9 CURVE SMOOTH",
"172 -9 OFFCURVE",
"27 72 OFFCURVE",
"27 243 CURVE SMOOTH",
"27 473 OFFCURVE",
"192 688 OFFCURVE",
"416 688 CURVE SMOOTH",
"563 688 OFFCURVE",
"708 607 OFFCURVE",
"708 436 CURVE SMOOTH"
);
},
{
closed = 1;
nodes = (
"500 56 OFFCURVE",
"573 283 OFFCURVE",
"573 418 CURVE SMOOTH",
"573 572 OFFCURVE",
"462 623 OFFCURVE",
"375 623 CURVE SMOOTH",
"235 623 OFFCURVE",
"162 396 OFFCURVE",
"162 261 CURVE SMOOTH",
"162 107 OFFCURVE",
"273 56 OFFCURVE",
"360 56 CURVE SMOOTH"
);
},
{
closed = 1;
nodes = (
"708 203 OFFCURVE",
"549 11 OFFCURVE",
"329 11 CURVE SMOOTH",
"172 11 OFFCURVE",
"27 72 OFFCURVE",
"27 276 CURVE SMOOTH",
"27 491 OFFCURVE",
"192 688 OFFCURVE",
"416 688 CURVE SMOOTH",
"557 688 OFFCURVE",
"708 609 OFFCURVE",
"708 429 CURVE SMOOTH"
);
}
);
};
components = (
{
name = O;
}
);
layerId = "B0B60A8F-2DEB-4A58-A43B-60A0DADABD8F";
paths = (
{
closed = 1;
nodes = (
"449 -109 OFFCURVE",
"532 -170 OFFCURVE",
"601 -170 CURVE SMOOTH",
"653 -170 OFFCURVE",
"730 -113 OFFCURVE",
"730 -80 CURVE SMOOTH",
"730 -69 OFFCURVE",
"725 -64 OFFCURVE",
"715 -64 CURVE SMOOTH",
"580 -64 OFFCURVE",
"545 -39 OFFCURVE",
"468 31 CURVE",
"379 -9 LINE"
);
}
);
width = 690;
}
);
leftMetricsKey = "=O";
unicode = 0051;
},
{
glyphname = R;
lastChange = "2021-04-06 12:57:56 +0000";
layers = (
{
background = {
paths = (
{
closed = 1;
nodes = (
"183 334 OFFCURVE",
"186 331 OFFCURVE",
"195 331 CURVE SMOOTH",
"428 331 OFFCURVE",
"558 414 OFFCURVE",
"558 544 CURVE SMOOTH",
"558 626 OFFCURVE",
"482 684 OFFCURVE",
"335 684 CURVE SMOOTH",
"286 684 OFFCURVE",
"264 680 OFFCURVE",
"186 680 CURVE",
"186 584 LINE",
"193 584 LINE",
"198 629 OFFCURVE",
"209 639 OFFCURVE",
"299 639 CURVE SMOOTH",
"420 639 OFFCURVE",
"440 581 OFFCURVE",
"440 533 CURVE SMOOTH",
"440 445 OFFCURVE",
"369 374 OFFCURVE",
"199 374 CURVE SMOOTH",
"188 374 OFFCURVE",
"187 369 OFFCURVE",
"186 360 CURVE",
"184 343 LINE"
);
},
{
closed = 1;
nodes = (
"185 350 OFFCURVE",
"188 347 OFFCURVE",
"197 347 CURVE SMOOTH",
"415 347 OFFCURVE",
"558 414 OFFCURVE",
"558 544 CURVE SMOOTH",
"558 626 OFFCURVE",
"482 684 OFFCURVE",
"335 684 CURVE SMOOTH",
"286 684 OFFCURVE",
"264 680 OFFCURVE",
"186 680 CURVE",
"186 584 LINE",
"193 584 LINE",
"198 629 OFFCURVE",
"209 639 OFFCURVE",
"299 639 CURVE SMOOTH",
"420 639 OFFCURVE",
"440 581 OFFCURVE",
"440 533 CURVE SMOOTH",
"440 445 OFFCURVE",
"356 390 OFFCURVE",
"201 390 CURVE SMOOTH",
"190 390 OFFCURVE",
"189 385 OFFCURVE",
"188 376 CURVE",
"186 359 LINE"
);
},
{
closed = 1;
nodes = (
"195 364 OFFCURVE",
"198 362 OFFCURVE",
"207 363 CURVE SMOOTH",
"266 372 OFFCURVE",
"386 393 OFFCURVE",
"408 393 CURVE",
"408 396 OFFCURVE",
"408 401 OFFCURVE",
"408 406 CURVE",
"478 434 OFFCURVE",
"549 487 OFFCURVE",
"549 557 CURVE SMOOTH",
"549 619 OFFCURVE",
"490 684 OFFCURVE",
"339 684 CURVE SMOOTH",
"284 684 OFFCURVE",
"264 680 OFFCURVE",
"186 680 CURVE",
"186 584 LINE",
"193 584 LINE",
"198 629 OFFCURVE",
"204 646 OFFCURVE",
"300 646 CURVE SMOOTH",
"402 646 OFFCURVE",
"430 594 OFFCURVE",
"430 565 CURVE SMOOTH",
"430 502 OFFCURVE",
"364 421 OFFCURVE",
"211 406 CURVE SMOOTH",
"200 405 OFFCURVE",
"198 401 OFFCURVE",
"197 391 CURVE",
"196 373 LINE"
);
}
);
};
hints = (
{
origin = "{0, 3}";
type = Corner;
name = _corner.serifUC;
},
{
origin = "{0, 37}";
type = Corner;
name = _corner.serifUC;
}
);
layerId = "B0B60A8F-2DEB-4A58-A43B-60A0DADABD8F";
paths = (
{
closed = 1;
nodes = (
"43 15 OFFCURVE",
"51 -8 OFFCURVE",
"74 -8 CURVE SMOOTH",
"155 -8 LINE",
"221 605 LINE",
"255 605 LINE SMOOTH",
"363 605 OFFCURVE",
"403 559 OFFCURVE",
"403 488 CURVE SMOOTH",
"403 403 OFFCURVE",
"334 346 OFFCURVE",
"244 329 CURVE SMOOTH",
"233 327 OFFCURVE",
"222 322 OFFCURVE",
"222 308 CURVE SMOOTH",
"222 295 OFFCURVE",
"230 282 OFFCURVE",
"235 270 CURVE SMOOTH",
"296 124 OFFCURVE",
"374 -9 OFFCURVE",
"427 -9 CURVE SMOOTH",
"452 -9 OFFCURVE",
"538 34 OFFCURVE",
"538 67 CURVE SMOOTH",
"538 77 OFFCURVE",
"529 78 OFFCURVE",
"515 78 CURVE SMOOTH",
"476 78 OFFCURVE",
"397 191 OFFCURVE",
"329 333 CURVE",
"321 283 LINE",
"425 304 OFFCURVE",
"536 373 OFFCURVE",
"536 499 CURVE SMOOTH",
"536 632 OFFCURVE",
"430 680 OFFCURVE",
"284 680 CURVE SMOOTH",
"110 680 LINE",
"46 96 LINE SMOOTH",
"44 79 OFFCURVE",
"43 64 OFFCURVE",
"43 51 CURVE SMOOTH"
);
}
);
width = 557;
}
);
leftMetricsKey = H;
rightMetricsKey = A;
unicode = 0052;
},
{
glyphname = S;
lastChange = "2021-04-06 13:08:21 +0000";
layers = (
{
background = {
paths = (
{
closed = 1;
nodes = (
"639 206 OFFCURVE",
"474 -9 OFFCURVE",
"250 -9 CURVE SMOOTH",
"103 -9 OFFCURVE",
"-42 72 OFFCURVE",
"-42 243 CURVE SMOOTH",
"-42 473 OFFCURVE",
"123 688 OFFCURVE",
"347 688 CURVE SMOOTH",
"494 688 OFFCURVE",
"639 607 OFFCURVE",
"639 436 CURVE SMOOTH"
);
},
{
closed = 1;
nodes = (
"431 56 OFFCURVE",
"504 283 OFFCURVE",
"504 418 CURVE SMOOTH",
"504 572 OFFCURVE",
"393 623 OFFCURVE",
"306 623 CURVE SMOOTH",
"166 623 OFFCURVE",
"93 396 OFFCURVE",
"93 261 CURVE SMOOTH",
"93 107 OFFCURVE",
"204 56 OFFCURVE",
"291 56 CURVE SMOOTH"
);
}
);
};
layerId = "B0B60A8F-2DEB-4A58-A43B-60A0DADABD8F";
paths = (
{
closed = 1;
nodes = (
"9 26 OFFCURVE",
"86 -16 OFFCURVE",
"200 -16 CURVE SMOOTH",
"364 -16 OFFCURVE",
"469 66 OFFCURVE",
"469 208 CURVE SMOOTH",
"469 322 OFFCURVE",
"401 361 OFFCURVE",
"323 399 CURVE SMOOTH",
"270 425 LINE SMOOTH",
"220 450 OFFCURVE",
"185 473 OFFCURVE",
"185 528 CURVE SMOOTH",
"185 587 OFFCURVE",
"226 616 OFFCURVE",
"279 616 CURVE SMOOTH",
"327 616 OFFCURVE",
"372 599 OFFCURVE",
"391 590 CURVE SMOOTH",
"415 579 OFFCURVE",
"426 572 OFFCURVE",
"437 572 CURVE SMOOTH",
"449 572 OFFCURVE",
"462 591 OFFCURVE",
"462 629 CURVE SMOOTH",
"462 669 OFFCURVE",
"442 696 OFFCURVE",
"308 696 CURVE SMOOTH",
"165 696 OFFCURVE",
"60 624 OFFCURVE",
"60 500 CURVE SMOOTH",
"60 400 OFFCURVE",
"118 358 OFFCURVE",
"186 315 CURVE SMOOTH",
"249 275 LINE SMOOTH",
"305 239 OFFCURVE",
"336 219 OFFCURVE",
"336 159 CURVE SMOOTH",
"336 96 OFFCURVE",
"288 64 OFFCURVE",
"219 64 CURVE SMOOTH",
"124 64 OFFCURVE",
"52 145 OFFCURVE",
"31 145 CURVE SMOOTH",
"15 145 OFFCURVE",
"9 128 OFFCURVE",
"9 84 CURVE SMOOTH"
);
}
);
width = 490;
},
{
associatedMasterId = "B0B60A8F-2DEB-4A58-A43B-60A0DADABD8F";
background = {
paths = (
{
closed = 1;
nodes = (
"690 206 OFFCURVE",
"525 -9 OFFCURVE",
"301 -9 CURVE SMOOTH",
"154 -9 OFFCURVE",
"9 72 OFFCURVE",
"9 243 CURVE SMOOTH",
"9 473 OFFCURVE",
"174 688 OFFCURVE",
"398 688 CURVE SMOOTH",
"545 688 OFFCURVE",
"690 607 OFFCURVE",
"690 436 CURVE SMOOTH"
);
},
{
closed = 1;
nodes = (
"482 56 OFFCURVE",
"555 283 OFFCURVE",
"555 418 CURVE SMOOTH",
"555 572 OFFCURVE",
"444 623 OFFCURVE",
"357 623 CURVE SMOOTH",
"217 623 OFFCURVE",
"144 396 OFFCURVE",
"144 261 CURVE SMOOTH",
"144 107 OFFCURVE",
"255 56 OFFCURVE",
"342 56 CURVE SMOOTH"
);
}
);
};
layerId = "401CACC2-0731-4BB5-97A8-CA43EBA6C0BF";
name = "Apr 5 21, 17:30";
paths = (
{
closed = 1;
nodes = (
"99 600 OFFCURVE",
"215 688 OFFCURVE",
"345 688 CURVE SMOOTH",
"463 688 OFFCURVE",
"535 602 OFFCURVE",
"535 512 CURVE SMOOTH",
"535 483 OFFCURVE",
"529 475 OFFCURVE",
"509 475 CURVE",
"439 475 LINE",
"420 475 OFFCURVE",
"418 482 OFFCURVE",
"418 492 CURVE SMOOTH",
"418 505 OFFCURVE",
"423 531 OFFCURVE",
"423 567 CURVE SMOOTH",
"423 614 OFFCURVE",
"396 644 OFFCURVE",
"347 644 CURVE SMOOTH",
"279 644 OFFCURVE",
"219 576 OFFCURVE",
"219 529 CURVE",
"99 512 LINE"
);
},
{
closed = 1;
nodes = (
"141 253 OFFCURVE",
"146 250 OFFCURVE",
"146 234 CURVE SMOOTH",
"146 217 OFFCURVE",
"143 192 OFFCURVE",
"143 165 CURVE SMOOTH",
"143 93 OFFCURVE",
"185 46 OFFCURVE",
"243 46 CURVE SMOOTH",
"333 46 OFFCURVE",
"386 131 OFFCURVE",
"386 184 CURVE",
"506 184 LINE",
"506 90 OFFCURVE",
"407 -9 OFFCURVE",
"250 -9 CURVE SMOOTH",
"134 -9 OFFCURVE",
"25 64 OFFCURVE",
"25 208 CURVE SMOOTH",
"25 240 OFFCURVE",
"33 253 OFFCURVE",
"60 253 CURVE",
"126 253 LINE"
);
},
{
closed = 1;
nodes = (
"299 436 OFFCURVE",
"369 378 OFFCURVE",
"408 346 CURVE SMOOTH",
"456 307 OFFCURVE",
"506 263 OFFCURVE",
"506 184 CURVE",
"506 146 OFFCURVE",
"386 160 OFFCURVE",
"386 184 CURVE",
"386 227 OFFCURVE",
"350 255 OFFCURVE",
"321 279 CURVE SMOOTH",
"292 303 OFFCURVE",
"236 348 OFFCURVE",
"204 373 CURVE SMOOTH",
"141 422 OFFCURVE",
"99 459 OFFCURVE",
"99 512 CURVE SMOOTH",
"99 540 OFFCURVE",
"219 576 OFFCURVE",
"219 529 CURVE SMOOTH",
"219 504 OFFCURVE",
"239 486 OFFCURVE",
"275 456 CURVE SMOOTH"
);
}
);
width = 560;
},
{
associatedMasterId = "B0B60A8F-2DEB-4A58-A43B-60A0DADABD8F";
background = {
paths = (
{
closed = 1;
nodes = (
"690 206 OFFCURVE",
"525 -9 OFFCURVE",
"301 -9 CURVE SMOOTH",
"154 -9 OFFCURVE",
"9 72 OFFCURVE",
"9 243 CURVE SMOOTH",
"9 473 OFFCURVE",
"174 688 OFFCURVE",
"398 688 CURVE SMOOTH",
"545 688 OFFCURVE",
"690 607 OFFCURVE",
"690 436 CURVE SMOOTH"
);
},
{
closed = 1;
nodes = (
"482 56 OFFCURVE",
"555 283 OFFCURVE",
"555 418 CURVE SMOOTH",
"555 572 OFFCURVE",
"444 623 OFFCURVE",
"357 623 CURVE SMOOTH",
"217 623 OFFCURVE",
"144 396 OFFCURVE",
"144 261 CURVE SMOOTH",
"144 107 OFFCURVE",
"255 56 OFFCURVE",
"342 56 CURVE SMOOTH"
);
}
);
};
layerId = "530A7CF0-28FF-4B3F-BB61-D0B5D253A8D6";
name = "Apr 5 21, 17:30";
paths = (
{
closed = 1;
nodes = (
"128 696 OFFCURVE",
"-27 513 OFFCURVE",
"-27 283 CURVE SMOOTH",
"-27 75 OFFCURVE",
"86 -16 OFFCURVE",
"250 -16 CURVE SMOOTH",
"460 -16 OFFCURVE",
"615 167 OFFCURVE",
"615 397 CURVE SMOOTH",
"615 605 OFFCURVE",
"502 696 OFFCURVE",
"334 696 CURVE SMOOTH"
);
},
{
closed = 1;
nodes = (
"159 64 OFFCURVE",
"103 161 OFFCURVE",
"103 301 CURVE SMOOTH",
"103 469 OFFCURVE",
"167 616 OFFCURVE",
"318 616 CURVE SMOOTH",
"436 616 OFFCURVE",
"485 518 OFFCURVE",
"485 379 CURVE SMOOTH",
"485 211 OFFCURVE",
"417 64 OFFCURVE",
"271 64 CURVE SMOOTH"
);
}
);
width = 560;
},
{
associatedMasterId = "B0B60A8F-2DEB-4A58-A43B-60A0DADABD8F";
background = {
paths = (
{
closed = 1;
nodes = (
"658 206 OFFCURVE",
"493 -9 OFFCURVE",
"269 -9 CURVE SMOOTH",
"122 -9 OFFCURVE",
"-23 72 OFFCURVE",
"-23 243 CURVE SMOOTH",
"-23 473 OFFCURVE",
"142 688 OFFCURVE",
"366 688 CURVE SMOOTH",
"513 688 OFFCURVE",
"658 607 OFFCURVE",
"658 436 CURVE SMOOTH"
);
},
{
closed = 1;
nodes = (
"450 56 OFFCURVE",
"523 283 OFFCURVE",
"523 418 CURVE SMOOTH",
"523 572 OFFCURVE",
"412 623 OFFCURVE",
"325 623 CURVE SMOOTH",
"185 623 OFFCURVE",
"112 396 OFFCURVE",
"112 261 CURVE SMOOTH",
"112 107 OFFCURVE",
"223 56 OFFCURVE",
"310 56 CURVE SMOOTH"
);
}
);
};
layerId = "806AFB3F-B184-4F9F-842A-2807B4D09AA0";
name = "Apr 5 21, 17:44";
paths = (
{
closed = 1;
nodes = (
"1 21 OFFCURVE",
"77 -16 OFFCURVE",
"213 -16 CURVE SMOOTH",
"369 -16 OFFCURVE",
"484 60 OFFCURVE",
"484 208 CURVE SMOOTH",
"484 311 OFFCURVE",
"426 354 OFFCURVE",
"354 390 CURVE SMOOTH",
"261 437 LINE SMOOTH",
"217 459 OFFCURVE",
"187 487 OFFCURVE",
"187 532 CURVE SMOOTH",
"187 588 OFFCURVE",
"222 616 OFFCURVE",
"279 616 CURVE SMOOTH",
"366 616 OFFCURVE",
"429 542 OFFCURVE",
"449 542 CURVE SMOOTH",
"470 542 OFFCURVE",
"483 578 OFFCURVE",
"483 607 CURVE SMOOTH",
"483 667 OFFCURVE",
"423 696 OFFCURVE",
"312 696 CURVE SMOOTH",
"177 696 OFFCURVE",
"71 618 OFFCURVE",
"71 490 CURVE SMOOTH",
"71 419 OFFCURVE",
"102 375 OFFCURVE",
"174 334 CURVE SMOOTH",
"270 280 LINE SMOOTH",
"318 253 OFFCURVE",
"364 226 OFFCURVE",
"364 164 CURVE SMOOTH",
"364 101 OFFCURVE",
"317 64 OFFCURVE",
"248 64 CURVE SMOOTH",
"140 64 OFFCURVE",
"49 185 OFFCURVE",
"21 185 CURVE SMOOTH",
"5 185 OFFCURVE",
"1 168 OFFCURVE",
"1 142 CURVE SMOOTH"
);
}
);
width = 508;
},
{
associatedMasterId = "B0B60A8F-2DEB-4A58-A43B-60A0DADABD8F";
background = {
paths = (
{
closed = 1;
nodes = (
"628 206 OFFCURVE",
"463 -9 OFFCURVE",
"239 -9 CURVE SMOOTH",
"92 -9 OFFCURVE",
"-53 72 OFFCURVE",
"-53 243 CURVE SMOOTH",
"-53 473 OFFCURVE",
"112 688 OFFCURVE",
"336 688 CURVE SMOOTH",
"483 688 OFFCURVE",
"628 607 OFFCURVE",
"628 436 CURVE SMOOTH"
);
},
{
closed = 1;
nodes = (
"420 56 OFFCURVE",
"493 283 OFFCURVE",
"493 418 CURVE SMOOTH",
"493 572 OFFCURVE",
"382 623 OFFCURVE",
"295 623 CURVE SMOOTH",
"155 623 OFFCURVE",
"82 396 OFFCURVE",
"82 261 CURVE SMOOTH",
"82 107 OFFCURVE",
"193 56 OFFCURVE",
"280 56 CURVE SMOOTH"
);
}
);
};
layerId = "73848C8A-0563-42C4-9998-551AC433A294";
name = "Apr 6 21, 10:24";
paths = (
{
closed = 1;
nodes = (
"11 18 OFFCURVE",
"94 -16 OFFCURVE",
"203 -16 CURVE SMOOTH",
"332 -16 OFFCURVE",
"457 49 OFFCURVE",
"457 211 CURVE SMOOTH",
"457 311 OFFCURVE",
"405 372 OFFCURVE",
"318 403 CURVE SMOOTH",
"249 428 LINE SMOOTH",
"197 447 OFFCURVE",
"164 470 OFFCURVE",
"164 526 CURVE SMOOTH",
"164 579 OFFCURVE",
"203 616 OFFCURVE",
"262 616 CURVE SMOOTH",
"347 616 OFFCURVE",
"406 542 OFFCURVE",
"424 542 CURVE SMOOTH",
"443 542 OFFCURVE",
"454 578 OFFCURVE",
"454 607 CURVE SMOOTH",
"454 667 OFFCURVE",
"421 696 OFFCURVE",
"292 696 CURVE SMOOTH",
"167 696 OFFCURVE",
"54 634 OFFCURVE",
"54 491 CURVE SMOOTH",
"54 419 OFFCURVE",
"91 362 OFFCURVE",
"172 319 CURVE SMOOTH",
"250 277 LINE SMOOTH",
"309 245 OFFCURVE",
"339 224 OFFCURVE",
"339 167 CURVE SMOOTH",
"339 105 OFFCURVE",
"297 64 OFFCURVE",
"218 64 CURVE SMOOTH",
"131 64 OFFCURVE",
"54 184 OFFCURVE",
"29 184 CURVE SMOOTH",
"15 184 OFFCURVE",
"11 167 OFFCURVE",
"11 141 CURVE SMOOTH"
);
}
);
width = 476;
},
{
associatedMasterId = "B0B60A8F-2DEB-4A58-A43B-60A0DADABD8F";
background = {
paths = (
{
closed = 1;
nodes = (
"639 206 OFFCURVE",
"474 -9 OFFCURVE",
"250 -9 CURVE SMOOTH",
"103 -9 OFFCURVE",
"-42 72 OFFCURVE",
"-42 243 CURVE SMOOTH",
"-42 473 OFFCURVE",
"123 688 OFFCURVE",
"347 688 CURVE SMOOTH",
"494 688 OFFCURVE",
"639 607 OFFCURVE",
"639 436 CURVE SMOOTH"
);
},
{
closed = 1;
nodes = (
"431 56 OFFCURVE",
"504 283 OFFCURVE",
"504 418 CURVE SMOOTH",
"504 572 OFFCURVE",
"393 623 OFFCURVE",
"306 623 CURVE SMOOTH",
"166 623 OFFCURVE",
"93 396 OFFCURVE",
"93 261 CURVE SMOOTH",
"93 107 OFFCURVE",
"204 56 OFFCURVE",
"291 56 CURVE SMOOTH"
);
}
);
};
layerId = "976D06B9-2D06-468E-8DD2-2E4E16D7D584";
name = "Apr 6 21, 15:32";
paths = (
{
closed = 1;
nodes = (
"98 -15 OFFCURVE",
"238 -15 CURVE SMOOTH",
"395 -15 OFFCURVE",
"502 76 OFFCURVE",
"502 198 CURVE SMOOTH",
"502 311 OFFCURVE",
"426 347 OFFCURVE",
"325 393 CURVE SMOOTH",
"283 412 LINE SMOOTH",
"242 430 OFFCURVE",
"188 468 OFFCURVE",
"188 527 CURVE SMOOTH",
"188 579 OFFCURVE",
"225 615 OFFCURVE",
"292 615 CURVE SMOOTH",
"355 615 OFFCURVE",
"385 584 OFFCURVE",
"385 532 CURVE SMOOTH",
"385 480 OFFCURVE",
"343 430 OFFCURVE",
"283 409 CURVE",
"320 372 LINE",
"418 387 OFFCURVE",
"504 460 OFFCURVE",
"504 548 CURVE SMOOTH",
"504 646 OFFCURVE",
"435 696 OFFCURVE",
"299 696 CURVE SMOOTH",
"160 696 OFFCURVE",
"60 623 OFFCURVE",
"64 502 CURVE SMOOTH",
"64 405 OFFCURVE",
"134 352 OFFCURVE",
"219 315 CURVE SMOOTH",
"253 300 LINE SMOOTH",
"334 264 OFFCURVE",
"375 230 OFFCURVE",
"375 169 CURVE SMOOTH",
"375 103 OFFCURVE",
"325 64 OFFCURVE",
"253 64 CURVE SMOOTH",
"182 64 OFFCURVE",
"139 100 OFFCURVE",
"139 165 CURVE SMOOTH",
"139 235 OFFCURVE",
"191 279 OFFCURVE",
"253 300 CURVE",
"226 345 LINE",
"94 333 OFFCURVE",
"9 247 OFFCURVE",
"9 150 CURVE SMOOTH",
"9 36 OFFCURVE"
);
}
);
visible = 1;
width = 480;
},
{
associatedMasterId = "B0B60A8F-2DEB-4A58-A43B-60A0DADABD8F";
background = {
paths = (
{
closed = 1;
nodes = (
"639 206 OFFCURVE",
"474 -9 OFFCURVE",
"250 -9 CURVE SMOOTH",
"103 -9 OFFCURVE",
"-42 72 OFFCURVE",
"-42 243 CURVE SMOOTH",
"-42 473 OFFCURVE",
"123 688 OFFCURVE",
"347 688 CURVE SMOOTH",
"494 688 OFFCURVE",
"639 607 OFFCURVE",
"639 436 CURVE SMOOTH"
);
},
{
closed = 1;
nodes = (
"431 56 OFFCURVE",
"504 283 OFFCURVE",
"504 418 CURVE SMOOTH",
"504 572 OFFCURVE",
"393 623 OFFCURVE",
"306 623 CURVE SMOOTH",
"166 623 OFFCURVE",
"93 396 OFFCURVE",
"93 261 CURVE SMOOTH",
"93 107 OFFCURVE",
"204 56 OFFCURVE",
"291 56 CURVE SMOOTH"
);
}
);
};
layerId = "B10BF4B4-99A7-46F1-8F2B-3C51B6D952AD";
name = "Apr 6 21, 15:32";
paths = (
{
closed = 1;
nodes = (
"9 26 OFFCURVE",
"86 -16 OFFCURVE",
"200 -16 CURVE SMOOTH",
"364 -16 OFFCURVE",
"469 71 OFFCURVE",
"469 208 CURVE SMOOTH",
"469 322 OFFCURVE",
"401 361 OFFCURVE",
"323 399 CURVE SMOOTH",
"270 425 LINE SMOOTH",
"220 450 OFFCURVE",
"185 473 OFFCURVE",
"185 528 CURVE SMOOTH",
"185 587 OFFCURVE",
"223 616 OFFCURVE",
"277 616 CURVE SMOOTH",
"324 616 OFFCURVE",
"372 599 OFFCURVE",
"391 590 CURVE SMOOTH",
"415 579 OFFCURVE",
"426 572 OFFCURVE",
"437 572 CURVE SMOOTH",
"449 572 OFFCURVE",
"462 591 OFFCURVE",
"462 629 CURVE SMOOTH",
"462 669 OFFCURVE",
"442 696 OFFCURVE",
"308 696 CURVE SMOOTH",
"165 696 OFFCURVE",
"60 624 OFFCURVE",
"60 500 CURVE SMOOTH",
"60 400 OFFCURVE",
"118 358 OFFCURVE",
"186 315 CURVE SMOOTH",
"249 275 LINE SMOOTH",
"305 239 OFFCURVE",
"336 219 OFFCURVE",
"336 159 CURVE SMOOTH",
"336 96 OFFCURVE",
"288 64 OFFCURVE",
"219 64 CURVE SMOOTH",
"124 64 OFFCURVE",
"52 145 OFFCURVE",
"31 145 CURVE SMOOTH",
"15 145 OFFCURVE",
"9 128 OFFCURVE",
"9 84 CURVE SMOOTH"
);
}
);
width = 480;
}
);
unicode = 0053;
},
{
glyphname = T;
lastChange = "2021-04-06 13:09:00 +0000";
layers = (
{
background = {
paths = (
{
closed = 1;
nodes = (
"391 680 LINE",
"391 635 LINE",
"517 635 LINE",
"517 680 LINE"
);
},
{
closed = 1;
nodes = (
"344 680 LINE",
"344 593 LINE",
"352 593 LINE",
"356 631 OFFCURVE",
"366 635 OFFCURVE",
"399 635 CURVE",
"399 680 LINE"
);
},
{
closed = 1;
nodes = (
"590 630 OFFCURVE",
"592 631 OFFCURVE",
"594 638 CURVE SMOOTH",
"596 645 OFFCURVE",
"600 659 OFFCURVE",
"603 670 CURVE SMOOTH",
"605 679 OFFCURVE",
"600 680 OFFCURVE",
"594 680 CURVE SMOOTH",
"578 680 OFFCURVE",
"503 680 OFFCURVE",
"489 680 CURVE",
"489 635 LINE",
"539 635 OFFCURVE",
"575 630 OFFCURVE",
"583 630 CURVE"
);
},
{
closed = 1;
nodes = (
"328 680 OFFCURVE",
"278 680 OFFCURVE",
"266 680 CURVE",
"258 680 OFFCURVE",
"244 678 OFFCURVE",
"242 656 CURVE SMOOTH",
"232 518 OFFCURVE",
"206 246 OFFCURVE",
"185 75 CURVE SMOOTH",
"179 28 OFFCURVE",
"173 0 OFFCURVE",
"213 0 CURVE SMOOTH",
"222 0 OFFCURVE",
"239 0 OFFCURVE",
"275 0 CURVE SMOOTH",
"302 0 OFFCURVE",
"298 28 OFFCURVE",
"302 71 CURVE SMOOTH",
"316 242 OFFCURVE",
"342 516 OFFCURVE",
"360 660 CURVE SMOOTH",
"362 678 OFFCURVE",
"353 680 OFFCURVE",
"344 680 CURVE"
);
},
{
closed = 1;
nodes = (
"95 635 LINE",
"201 635 LINE",
"201 680 LINE",
"95 680 LINE"
);
},
{
closed = 1;
nodes = (
"193 635 LINE",
"234 635 OFFCURVE",
"241 632 OFFCURVE",
"237 591 CURVE",
"266 591 LINE",
"266 680 LINE",
"193 680 LINE"
);
},
{
closed = 1;
nodes = (
"35 630 OFFCURVE",
"73 635 OFFCURVE",
"123 635 CURVE",
"123 680 LINE",
"109 680 OFFCURVE",
"32 680 OFFCURVE",
"16 680 CURVE SMOOTH",
"10 680 OFFCURVE",
"5 679 OFFCURVE",
"7 670 CURVE SMOOTH",
"10 659 OFFCURVE",
"14 645 OFFCURVE",
"16 638 CURVE SMOOTH",
"18 631 OFFCURVE",
"20 630 OFFCURVE",
"27 630 CURVE"
);
}
);
};
hints = (
{
origin = "{0, 13}";
type = Corner;
name = _corner.serifUC;
}
);
layerId = "B0B60A8F-2DEB-4A58-A43B-60A0DADABD8F";
paths = (
{
closed = 1;
nodes = (
"45 573 OFFCURVE",
"51 562 OFFCURVE",
"66 562 CURVE SMOOTH",
"91 562 OFFCURVE",
"162 587 OFFCURVE",
"234 605 CURVE",
"190 216 LINE SMOOTH",
"181 138 OFFCURVE",
"176 100 OFFCURVE",
"176 64 CURVE SMOOTH",
"176 28 OFFCURVE",
"185 -8 OFFCURVE",
"206 -8 CURVE SMOOTH",
"286 -8 LINE",
"353 605 LINE",
"402 599 OFFCURVE",
"480 583 OFFCURVE",
"500 583 CURVE SMOOTH",
"521 583 OFFCURVE",
"546 631 OFFCURVE",
"544 671 CURVE SMOOTH",
"543 687 OFFCURVE",
"538 691 OFFCURVE",
"525 691 CURVE SMOOTH",
"503 691 OFFCURVE",
"460 680 OFFCURVE",
"307 680 CURVE SMOOTH",
"92 680 LINE SMOOTH",
"68 680 OFFCURVE",
"48 635 OFFCURVE",
"46 586 CURVE SMOOTH"
);
}
);
width = 508;
}
);
rightMetricsKey = "=|";
unicode = 0054;
},
{
glyphname = U;
lastChange = "2021-04-06 13:42:15 +0000";
layers = (
{
background = {
paths = (
{
closed = 1;
nodes = (
"162 680 OFFCURVE",
"112 680 OFFCURVE",
"100 680 CURVE",
"92 680 OFFCURVE",
"78 678 OFFCURVE",
"76 656 CURVE SMOOTH",
"66 518 OFFCURVE",
"40 246 OFFCURVE",
"19 75 CURVE SMOOTH",
"13 28 OFFCURVE",
"7 0 OFFCURVE",
"47 0 CURVE SMOOTH",
"56 0 OFFCURVE",
"73 0 OFFCURVE",
"109 0 CURVE SMOOTH",
"136 0 OFFCURVE",
"132 28 OFFCURVE",
"136 71 CURVE SMOOTH",
"150 242 OFFCURVE",
"176 516 OFFCURVE",
"194 660 CURVE SMOOTH",
"196 678 OFFCURVE",
"187 680 OFFCURVE",
"178 680 CURVE"
);
},
{
closed = 1;
nodes = (
"609 680 OFFCURVE",
"559 680 OFFCURVE",
"547 680 CURVE",
"539 680 OFFCURVE",
"530 678 OFFCURVE",
"529 660 CURVE SMOOTH",
"519 516 OFFCURVE",
"492 240 OFFCURVE",
"470 71 CURVE SMOOTH",
"464 28 OFFCURVE",
"458 0 OFFCURVE",
"485 0 CURVE SMOOTH",
"494 0 OFFCURVE",
"525 0 OFFCURVE",
"561 0 CURVE SMOOTH",
"588 0 OFFCURVE",
"585 28 OFFCURVE",
"588 71 CURVE SMOOTH",
"601 248 OFFCURVE",
"628 518 OFFCURVE",
"645 656 CURVE SMOOTH",
"648 678 OFFCURVE",
"631 680 OFFCURVE",
"621 680 CURVE"
);
},
{
closed = 1;
nodes = (
"178 342 LINE",
"497 342 LINE",
"497 395 LINE",
"178 395 LINE"
);
},
{
closed = 1;
nodes = (
"167 441 LINE",
"151 308 LINE",
"157 308 LINE",
"160 344 OFFCURVE",
"173 342 OFFCURVE",
"206 342 CURVE",
"206 395 LINE",
"174 395 OFFCURVE",
"166 404 OFFCURVE",
"170 441 CURVE"
);
},
{
closed = 1;
nodes = (
"507 408 OFFCURVE",
"502 395 OFFCURVE",
"466 395 CURVE",
"466 342 LINE",
"498 342 OFFCURVE",
"501 340 OFFCURVE",
"497 304 CURVE",
"503 304 LINE",
"514 447 LINE",
"511 447 LINE"
);
}
);
};
hints = (
{
origin = "{0, 33}";
type = Corner;
name = _corner.serifUC;
}
);
layerId = "B0B60A8F-2DEB-4A58-A43B-60A0DADABD8F";
paths = (
{
closed = 1;
nodes = (
"44 39 OFFCURVE",
"117 -16 OFFCURVE",
"312 -16 CURVE SMOOTH",
"469 -16 OFFCURVE",
"577 52 OFFCURVE",
"591 182 CURVE SMOOTH",
"628 524 LINE SMOOTH",
"635 589 OFFCURVE",
"638 623 OFFCURVE",
"638 646 CURVE SMOOTH",
"638 672 OFFCURVE",
"631 694 OFFCURVE",
"606 694 CURVE SMOOTH",
"580 694 OFFCURVE",
"513 662 OFFCURVE",
"513 635 CURVE SMOOTH",
"513 600 OFFCURVE",
"543 572 OFFCURVE",
"525 408 CURVE SMOOTH",
"504 212 LINE SMOOTH",
"492 102 OFFCURVE",
"421 64 OFFCURVE",
"336 64 CURVE SMOOTH",
"244 64 OFFCURVE",
"171 106 OFFCURVE",
"185 239 CURVE SMOOTH",
"209 466 LINE SMOOTH",
"219 560 OFFCURVE",
"227 601 OFFCURVE",
"227 649 CURVE SMOOTH",
"227 685 OFFCURVE",
"219 695 OFFCURVE",
"192 695 CURVE SMOOTH",
"112 695 LINE",
"61 203 LINE SMOOTH"
);
}
);
width = 651;
}
);
leftMetricsKey = H;
unicode = 0055;
},
{
glyphname = V;
lastChange = "2021-04-06 10:08:00 +0000";
layers = (
{
layerId = "B0B60A8F-2DEB-4A58-A43B-60A0DADABD8F";
paths = (
{
closed = 1;
nodes = (
"689 662 OFFCURVE",
"691 670 OFFCURVE",
"691 677 CURVE SMOOTH",
"691 689 OFFCURVE",
"682 694 OFFCURVE",
"664 694 CURVE SMOOTH",
"640 694 OFFCURVE",
"541 661 OFFCURVE",
"535 611 CURVE SMOOTH",
"530 571 OFFCURVE",
"526 548 OFFCURVE",
"498 491 CURVE SMOOTH",
"296 81 LINE",
"339 93 LINE",
"239 510 LINE SMOOTH",
"206 647 OFFCURVE",
"182 692 OFFCURVE",
"152 692 CURVE SMOOTH",
"117 692 OFFCURVE",
"40 648 OFFCURVE",
"40 621 CURVE SMOOTH",
"40 609 OFFCURVE",
"60 603 OFFCURVE",
"74 583 CURVE SMOOTH",
"87 563 OFFCURVE",
"100 536 OFFCURVE",
"118 473 CURVE SMOOTH",
"160 325 OFFCURVE",
"204 168 OFFCURVE",
"227 15 CURVE SMOOTH",
"231 -10 OFFCURVE",
"242 -14 OFFCURVE",
"253 -14 CURVE SMOOTH",
"320 -14 OFFCURVE",
"361 23 OFFCURVE",
"376 52 CURVE SMOOTH",
"683 651 LINE SMOOTH"
);
}
);
width = 650;
}
);
leftMetricsKey = "=|A";
rightMetricsKey = "=|A";
unicode = 0056;
},
{
glyphname = W;
lastChange = "2021-04-06 09:53:50 +0000";
layers = (
{
background = {
paths = (
{
closed = 1;
nodes = (
"-76 680 OFFCURVE",
"-88 678 OFFCURVE",
"-83 660 CURVE SMOOTH",
"-65 600 OFFCURVE",
"59 159 OFFCURVE",
"89 49 CURVE SMOOTH",
"100 9 OFFCURVE",
"107 0 OFFCURVE",
"128 0 CURVE SMOOTH",
"153 0 OFFCURVE",
"202 17 OFFCURVE",
"230 52 CURVE",
"186 87 LINE",
"182 87 OFFCURVE",
"180 87 OFFCURVE",
"176 87 CURVE",
"175 114 OFFCURVE",
"175 142 OFFCURVE",
"164 185 CURVE SMOOTH",
"152 235 OFFCURVE",
"62 593 OFFCURVE",
"48 652 CURVE SMOOTH",
"44 670 OFFCURVE",
"36 680 OFFCURVE",
"14 680 CURVE",
"-2 680 OFFCURVE",
"-51 680 OFFCURVE",
"-67 680 CURVE"
);
},
{
closed = 1;
nodes = (
"198 52 OFFCURVE",
"218 52 OFFCURVE",
"230 52 CURVE",
"246 72 OFFCURVE",
"281 162 OFFCURVE",
"292 190 CURVE SMOOTH",
"310 235 OFFCURVE",
"455 591 OFFCURVE",
"485 658 CURVE SMOOTH",
"492 674 OFFCURVE",
"487 680 OFFCURVE",
"476 680 CURVE SMOOTH",
"466 680 OFFCURVE",
"442 680 OFFCURVE",
"430 680 CURVE SMOOTH",
"406 680 OFFCURVE",
"395 677 OFFCURVE",
"377 615 CURVE SMOOTH",
"330 456 OFFCURVE",
"246 225 OFFCURVE",
"186 87 CURVE",
"186 52 LINE"
);
}
);
};
layerId = "B0B60A8F-2DEB-4A58-A43B-60A0DADABD8F";
paths = (
{
closed = 1;
nodes = (
"213 81 LINE",
"260 93 LINE",
"220 510 LINE SMOOTH",
"207 650 OFFCURVE",
"172 692 OFFCURVE",
"142 692 CURVE SMOOTH",
"107 692 OFFCURVE",
"40 648 OFFCURVE",
"40 621 CURVE SMOOTH",
"40 609 OFFCURVE",
"56 598 OFFCURVE",
"69 577 CURVE SMOOTH",
"83 555 OFFCURVE",
"93 533 OFFCURVE",
"104 426 CURVE SMOOTH",
"147 15 LINE",
"151 -10 OFFCURVE",
"162 -14 OFFCURVE",
"173 -14 CURVE SMOOTH",
"240 -14 OFFCURVE",
"275 23 OFFCURVE",
"288 52 CURVE SMOOTH",
"449 403 LINE",
"436 558 LINE"
);
},
{
closed = 1;
nodes = (
"872 662 OFFCURVE",
"875 670 OFFCURVE",
"875 677 CURVE SMOOTH",
"875 689 OFFCURVE",
"866 694 OFFCURVE",
"848 694 CURVE SMOOTH",
"824 694 OFFCURVE",
"728 661 OFFCURVE",
"722 611 CURVE SMOOTH",
"717 571 OFFCURVE",
"725 550 OFFCURVE",
"702 491 CURVE SMOOTH",
"545 81 LINE",
"583 93 LINE",
"523 510 LINE SMOOTH",
"503 650 OFFCURVE",
"482 692 OFFCURVE",
"452 692 CURVE SMOOTH",
"425 692 OFFCURVE",
"356 655 OFFCURVE",
"356 628 CURVE SMOOTH",
"356 616 OFFCURVE",
"366 605 OFFCURVE",
"377 585 CURVE SMOOTH",
"388 565 OFFCURVE",
"399 538 OFFCURVE",
"408 473 CURVE SMOOTH",
"471 15 LINE",
"475 -10 OFFCURVE",
"486 -14 OFFCURVE",
"497 -14 CURVE SMOOTH",
"564 -14 OFFCURVE",
"603 23 OFFCURVE",
"615 52 CURVE SMOOTH",
"867 651 LINE SMOOTH"
);
}
);
width = 834;
}
);
leftMetricsKey = V;
rightMetricsKey = V;
unicode = 0057;
},
{
glyphname = X;
lastChange = "2021-04-06 10:19:14 +0000";
layers = (
{
background = {
paths = (
{
closed = 1;
nodes = (
"478 490 OFFCURVE",
"574 598 OFFCURVE",
"623 658 CURVE SMOOTH",
"635 673 OFFCURVE",
"626 680 OFFCURVE",
"615 680 CURVE SMOOTH",
"605 680 OFFCURVE",
"552 680 OFFCURVE",
"538 680 CURVE SMOOTH",
"522 680 OFFCURVE",
"514 672 OFFCURVE",
"495 641 CURVE SMOOTH",
"455 577 OFFCURVE",
"407 516 OFFCURVE",
"374 474 CURVE SMOOTH",
"365 462 OFFCURVE",
"361 449 OFFCURVE",
"361 438 CURVE",
"355 438 LINE",
"355 416 OFFCURVE",
"355 382 OFFCURVE",
"355 363 CURVE",
"384 363 LINE"
);
}
);
};
layerId = "B0B60A8F-2DEB-4A58-A43B-60A0DADABD8F";
paths = (
{
closed = 1;
nodes = (
"-10 28 OFFCURVE",
"12 -13 OFFCURVE",
"57 -13 CURVE SMOOTH",
"174 -13 OFFCURVE",
"249 150 OFFCURVE",
"321 306 CURVE",
"343 321 LINE",
"425 483 OFFCURVE",
"498 567 OFFCURVE",
"524 567 CURVE SMOOTH",
"547 567 OFFCURVE",
"556 553 OFFCURVE",
"569 553 CURVE SMOOTH",
"593 553 OFFCURVE",
"602 595 OFFCURVE",
"602 632 CURVE SMOOTH",
"602 678 OFFCURVE",
"584 694 OFFCURVE",
"551 694 CURVE SMOOTH",
"455 694 OFFCURVE",
"375 536 OFFCURVE",
"288 375 CURVE",
"272 360 LINE",
"175 176 OFFCURVE",
"105 114 OFFCURVE",
"80 114 CURVE SMOOTH",
"53 114 OFFCURVE",
"34 129 OFFCURVE",
"15 129 CURVE SMOOTH",
"-3 129 OFFCURVE",
"-10 111 OFFCURVE",
"-10 83 CURVE SMOOTH"
);
},
{
closed = 1;
nodes = (
"45 600 OFFCURVE",
"52 596 OFFCURVE",
"72 593 CURVE SMOOTH",
"131 583 OFFCURVE",
"188 489 OFFCURVE",
"286 272 CURVE SMOOTH",
"354 121 OFFCURVE",
"407 -8 OFFCURVE",
"471 -8 CURVE SMOOTH",
"523 -8 OFFCURVE",
"572 59 OFFCURVE",
"572 82 CURVE SMOOTH",
"572 98 OFFCURVE",
"555 96 OFFCURVE",
"544 96 CURVE SMOOTH",
"499 96 OFFCURVE",
"466 145 OFFCURVE",
"350 395 CURVE SMOOTH",
"276 554 OFFCURVE",
"208 696 OFFCURVE",
"144 696 CURVE SMOOTH",
"112 696 OFFCURVE",
"45 656 OFFCURVE",
"45 613 CURVE SMOOTH"
);
}
);
width = 594;
}
);
unicode = 0058;
},
{
glyphname = Y;
lastChange = "2021-04-06 13:09:46 +0000";
layers = (
{
hints = (
{
origin = "{1, 7}";
type = Corner;
name = _corner.serifUC;
}
);
layerId = "B0B60A8F-2DEB-4A58-A43B-60A0DADABD8F";
paths = (
{
closed = 1;
nodes = (
"601 644 OFFCURVE",
"613 664 OFFCURVE",
"613 678 CURVE SMOOTH",
"613 689 OFFCURVE",
"605 694 OFFCURVE",
"595 694 CURVE SMOOTH",
"563 694 OFFCURVE",
"452 661 OFFCURVE",
"446 611 CURVE SMOOTH",
"441 571 OFFCURVE",
"432 550 OFFCURVE",
"395 494 CURVE SMOOTH",
"295 340 LINE",
"341 362 LINE",
"274 510 LINE SMOOTH",
"214 643 OFFCURVE",
"182 692 OFFCURVE",
"152 692 CURVE SMOOTH",
"117 692 OFFCURVE",
"40 648 OFFCURVE",
"40 621 CURVE SMOOTH",
"40 609 OFFCURVE",
"63 605 OFFCURVE",
"81 585 CURVE SMOOTH",
"99 565 OFFCURVE",
"135 539 OFFCURVE",
"164 476 CURVE SMOOTH",
"265 261 LINE",
"331 261 LINE",
"583 619 LINE SMOOTH"
);
},
{
closed = 1;
nodes = (
"215 96 LINE SMOOTH",
"213 79 OFFCURVE",
"212 64 OFFCURVE",
"212 51 CURVE SMOOTH",
"212 15 OFFCURVE",
"220 -8 OFFCURVE",
"244 -8 CURVE SMOOTH",
"325 -8 LINE",
"361 321 LINE",
"242 339 LINE"
);
}
);
width = 573;
}
);
leftMetricsKey = V;
rightMetricsKey = V;
unicode = 0059;
},
{
glyphname = Z;
lastChange = "2021-04-06 13:09:06 +0000";
layers = (
{
background = {
paths = (
{
closed = 1;
nodes = (
"536 680 OFFCURVE",
"483 680 OFFCURVE",
"471 680 CURVE",
"463 680 OFFCURVE",
"448 678 OFFCURVE",
"434 656 CURVE SMOOTH",
"350 518 OFFCURVE",
"176 246 OFFCURVE",
"36 36 CURVE SMOOTH",
"24 17 OFFCURVE",
"25 0 OFFCURVE",
"54 0 CURVE SMOOTH",
"63 0 OFFCURVE",
"83 0 OFFCURVE",
"119 0 CURVE SMOOTH",
"146 0 OFFCURVE",
"157 28 OFFCURVE",
"184 71 CURVE SMOOTH",
"289 242 OFFCURVE",
"461 516 OFFCURVE",
"557 660 CURVE SMOOTH",
"565 672 OFFCURVE",
"561 680 OFFCURVE",
"552 680 CURVE"
);
},
{
closed = 1;
nodes = (
"434 55 LINE",
"119 55 LINE",
"119 0 LINE",
"434 0 LINE"
);
},
{
closed = 1;
nodes = (
"506 0 OFFCURVE",
"508 1 OFFCURVE",
"510 8 CURVE SMOOTH",
"512 15 OFFCURVE",
"518 41 OFFCURVE",
"521 52 CURVE SMOOTH",
"523 61 OFFCURVE",
"516 62 OFFCURVE",
"510 62 CURVE SMOOTH",
"494 62 OFFCURVE",
"450 55 OFFCURVE",
"408 55 CURVE",
"408 0 LINE",
"432 0 OFFCURVE",
"487 0 OFFCURVE",
"499 0 CURVE"
);
}
);
};
layerId = "B0B60A8F-2DEB-4A58-A43B-60A0DADABD8F";
paths = (
{
closed = 1;
nodes = (
"86 -10 OFFCURVE",
"156 0 OFFCURVE",
"345 0 CURVE SMOOTH",
"422 0 LINE SMOOTH",
"465 0 OFFCURVE",
"491 90 OFFCURVE",
"491 140 CURVE SMOOTH",
"491 150 OFFCURVE",
"485 154 OFFCURVE",
"479 154 CURVE SMOOTH",
"461 154 OFFCURVE",
"368 62 OFFCURVE",
"68 77 CURVE",
"129 40 LINE",
"251 218 OFFCURVE",
"403 397 OFFCURVE",
"515 575 CURVE SMOOTH",
"535 606 OFFCURVE",
"548 680 OFFCURVE",
"513 680 CURVE SMOOTH",
"335 680 LINE SMOOTH",
"191 680 OFFCURVE",
"125 691 OFFCURVE",
"96 691 CURVE SMOOTH",
"65 691 OFFCURVE",
"48 619 OFFCURVE",
"48 596 CURVE SMOOTH",
"48 572 OFFCURVE",
"53 565 OFFCURVE",
"71 565 CURVE SMOOTH",
"95 565 OFFCURVE",
"319 596 OFFCURVE",
"437 608 CURVE",
"415 643 LINE",
"320 488 OFFCURVE",
"183 338 OFFCURVE",
"23 102 CURVE SMOOTH",
"8 80 OFFCURVE",
"-5 54 OFFCURVE",
"-6 32 CURVE SMOOTH",
"-7 6 OFFCURVE",
"1 -10 OFFCURVE",
"20 -10 CURVE SMOOTH"
);
}
);
width = 516;
}
);
unicode = 005A;
},
{
glyphname = K.ss01;
lastChange = "2021-04-06 08:02:30 +0000";
layers = (
{
components = (
{
name = I;
}
);
layerId = "B0B60A8F-2DEB-4A58-A43B-60A0DADABD8F";
paths = (
{
closed = 1;
nodes = (
"337 134 OFFCURVE",
"421 -14 OFFCURVE",
"486 -14 CURVE SMOOTH",
"538 -14 OFFCURVE",
"595 33 OFFCURVE",
"595 76 CURVE SMOOTH",
"595 87 OFFCURVE",
"592 93 OFFCURVE",
"584 93 CURVE SMOOTH",
"574 93 OFFCURVE",
"564 90 OFFCURVE",
"553 90 CURVE SMOOTH",
"522 90 OFFCURVE",
"433 217 OFFCURVE",
"348 424 CURVE",
"257 330 LINE"
);
},
{
closed = 1;
nodes = (
"137 189 LINE",
"289 347 LINE",
"306 353 LINE",
"447 498 LINE SMOOTH",
"495 547 OFFCURVE",
"514 567 OFFCURVE",
"539 567 CURVE SMOOTH",
"563 567 OFFCURVE",
"569 540 OFFCURVE",
"583 540 CURVE SMOOTH",
"608 540 OFFCURVE",
"626 597 OFFCURVE",
"626 634 CURVE SMOOTH",
"626 680 OFFCURVE",
"615 694 OFFCURVE",
"574 694 CURVE SMOOTH",
"527 694 OFFCURVE",
"487 663 OFFCURVE",
"431 605 CURVE SMOOTH",
"182 349 LINE"
);
}
);
width = 617;
}
);
leftMetricsKey = H;
},
{
glyphname = a;
lastChange = "2021-04-06 10:04:36 +0000";
layers = (
{
background = {
paths = (
{
closed = 1;
nodes = (
"-837 823 OFFCURVE",
"-740 721 OFFCURVE",
"-625 721 CURVE SMOOTH",
"-488 721 OFFCURVE",
"-372 834 OFFCURVE",
"-372 937 CURVE SMOOTH",
"-372 1027 OFFCURVE",
"-423 1173 OFFCURVE",
"-489 1173 CURVE SMOOTH",
"-513 1173 OFFCURVE",
"-552 1159 OFFCURVE",
"-586 1133 CURVE SMOOTH",
"-611 1114 OFFCURVE",
"-628 1086 OFFCURVE",
"-628 1076 CURVE SMOOTH",
"-628 1073 OFFCURVE",
"-627 1068 OFFCURVE",
"-621 1068 CURVE SMOOTH",
"-607 1068 OFFCURVE",
"-575 1085 OFFCURVE",
"-561 1085 CURVE SMOOTH",
"-525 1085 OFFCURVE",
"-489 974 OFFCURVE",
"-489 915 CURVE SMOOTH",
"-489 862 OFFCURVE",
"-558 805 OFFCURVE",
"-619 805 CURVE SMOOTH",
"-693 805 OFFCURVE",
"-733 907 OFFCURVE",
"-733 995 CURVE SMOOTH",
"-733 1080 OFFCURVE",
"-703 1122 OFFCURVE",
"-703 1150 CURVE SMOOTH",
"-703 1154 OFFCURVE",
"-705 1158 OFFCURVE",
"-711 1158 CURVE SMOOTH",
"-733 1158 OFFCURVE",
"-837 1050 OFFCURVE",
"-837 933 CURVE SMOOTH"
);
},
{
closed = 1;
nodes = (
"-395 873 LINE",
"-361 873 OFFCURVE",
"-312 823 OFFCURVE",
"-301 779 CURVE",
"-292 853 LINE",
"-290 903 OFFCURVE",
"-360 987 OFFCURVE",
"-395 987 CURVE"
);
},
{
closed = 1;
nodes = (
"-271 1225 LINE",
"-271 1225 OFFCURVE",
"-301 860 OFFCURVE",
"-318 740 CURVE SMOOTH",
"-323 704 OFFCURVE",
"-333 663 OFFCURVE",
"-307 663 CURVE SMOOTH",
"-261 663 OFFCURVE",
"-196 791 OFFCURVE",
"-192 858 CURVE SMOOTH",
"-181 1045 OFFCURVE",
"-158 1222 OFFCURVE",
"-158 1222 CURVE"
);
},
{
closed = 1;
nodes = (
"-882 1290 LINE",
"-911 1290 OFFCURVE",
"-924 1293 OFFCURVE",
"-931 1271 CURVE SMOOTH",
"-947 1218 LINE SMOOTH",
"-952 1203 OFFCURVE",
"-945 1196 OFFCURVE",
"-926 1196 CURVE SMOOTH",
"-104 1196 LINE",
"-75 1196 OFFCURVE",
"-62 1193 OFFCURVE",
"-55 1215 CURVE SMOOTH",
"-38 1268 LINE SMOOTH",
"-33 1283 OFFCURVE",
"-40 1290 OFFCURVE",
"-59 1290 CURVE SMOOTH"
);
},
{
closed = 1;
nodes = (
"-501 538 OFFCURVE",
"-524 361 OFFCURVE",
"-535 174 CURVE SMOOTH",
"-539 107 OFFCURVE",
"-601 -21 OFFCURVE",
"-642 -21 CURVE SMOOTH",
"-673 -21 OFFCURVE",
"-668 14 OFFCURVE",
"-662 56 CURVE SMOOTH",
"-648 162 OFFCURVE",
"-614 541 OFFCURVE",
"-614 541 CURVE",
"-501 538 LINE"
);
},
{
closed = 1;
nodes = (
"-169 606 OFFCURVE",
"-162 599 OFFCURVE",
"-167 584 CURVE SMOOTH",
"-184 531 LINE SMOOTH",
"-191 509 OFFCURVE",
"-204 512 OFFCURVE",
"-233 512 CURVE",
"-667 512 LINE SMOOTH",
"-686 512 OFFCURVE",
"-693 519 OFFCURVE",
"-688 534 CURVE SMOOTH",
"-672 587 LINE SMOOTH",
"-665 609 OFFCURVE",
"-652 606 OFFCURVE",
"-623 606 CURVE",
"-188 606 LINE SMOOTH"
);
},
{
closed = 1;
nodes = (
"-954 512 OFFCURVE",
"-959 514 OFFCURVE",
"-959 521 CURVE SMOOTH",
"-959 546 OFFCURVE",
"-873 608 OFFCURVE",
"-836 608 CURVE SMOOTH",
"-794 608 OFFCURVE",
"-735 547 OFFCURVE",
"-735 487 CURVE SMOOTH",
"-735 419 OFFCURVE",
"-811 366 OFFCURVE",
"-843 351 CURVE",
"-793 331 OFFCURVE",
"-751 277 OFFCURVE",
"-751 211 CURVE SMOOTH",
"-751 121 OFFCURVE",
"-838 27 OFFCURVE",
"-1001 27 CURVE SMOOTH",
"-1122 27 OFFCURVE",
"-1209 97 OFFCURVE",
"-1209 183 CURVE SMOOTH",
"-1209 267 OFFCURVE",
"-1108 337 OFFCURVE",
"-1081 337 CURVE SMOOTH",
"-1052 337 OFFCURVE",
"-1102 278 OFFCURVE",
"-1102 199 CURVE SMOOTH",
"-1102 149 OFFCURVE",
"-1083 110 OFFCURVE",
"-1010 110 CURVE SMOOTH",
"-930 110 OFFCURVE",
"-871 146 OFFCURVE",
"-871 226 CURVE SMOOTH",
"-871 248 OFFCURVE",
"-874 299 OFFCURVE",
"-921 299 CURVE SMOOTH",
"-943 299 OFFCURVE",
"-957 295 OFFCURVE",
"-974 295 CURVE SMOOTH",
"-986 295 OFFCURVE",
"-989 303 OFFCURVE",
"-989 320 CURVE SMOOTH",
"-989 373 OFFCURVE",
"-980 379 OFFCURVE",
"-958 379 CURVE SMOOTH",
"-896 379 OFFCURVE",
"-848 384 OFFCURVE",
"-848 440 CURVE SMOOTH",
"-848 477 OFFCURVE",
"-856 525 OFFCURVE",
"-882 525 CURVE SMOOTH",
"-896 525 OFFCURVE",
"-933 512 OFFCURVE",
"-947 512 CURVE SMOOTH"
);
},
{
closed = 1;
nodes = (
"-266 538 OFFCURVE",
"-289 361 OFFCURVE",
"-300 174 CURVE SMOOTH",
"-304 107 OFFCURVE",
"-366 -21 OFFCURVE",
"-407 -21 CURVE SMOOTH",
"-438 -21 OFFCURVE",
"-433 14 OFFCURVE",
"-427 56 CURVE SMOOTH",
"-413 162 OFFCURVE",
"-379 541 OFFCURVE",
"-379 541 CURVE",
"-266 538 LINE"
);
},
{
closed = 1;
nodes = (
"-804 393 LINE",
"-763 367 OFFCURVE",
"-690 345 OFFCURVE",
"-624 375 CURVE",
"-634 267 LINE",
"-733 270 OFFCURVE",
"-796 313 OFFCURVE",
"-843 351 CURVE"
);
},
{
closed = 1;
nodes = (
"367 475 OFFCURVE",
"336 475 OFFCURVE",
"324 475 CURVE",
"318 475 OFFCURVE",
"313 473 OFFCURVE",
"312 463 CURVE SMOOTH",
"307 411 OFFCURVE",
"290 235 OFFCURVE",
"280 98 CURVE SMOOTH",
"275 28 OFFCURVE",
"265 -2 OFFCURVE",
"291 -2 CURVE SMOOTH",
"315 -2 OFFCURVE",
"386 51 OFFCURVE",
"393 134 CURVE SMOOTH",
"405 282 OFFCURVE",
"417 411 OFFCURVE",
"423 464 CURVE SMOOTH",
"424 473 OFFCURVE",
"420 475 OFFCURVE",
"413 475 CURVE"
);
},
{
closed = 1;
nodes = (
"313 485 OFFCURVE",
"410 414 OFFCURVE",
"401 332 CURVE SMOOTH",
"378 112 LINE SMOOTH",
"377 102 OFFCURVE",
"380 93 OFFCURVE",
"393 93 CURVE SMOOTH",
"453 93 LINE SMOOTH",
"463 93 OFFCURVE",
"475 91 OFFCURVE",
"468 71 CURVE SMOOTH",
"465 61 OFFCURVE",
"455 30 OFFCURVE",
"451 18 CURVE SMOOTH",
"446 4 OFFCURVE",
"440 -1 OFFCURVE",
"426 -1 CURVE SMOOTH",
"387 -1 OFFCURVE",
"316 20 OFFCURVE",
"300 84 CURVE",
"279 124 LINE",
"294 268 OFFCURVE",
"297 308 OFFCURVE",
"303 377 CURVE SMOOTH",
"307 420 OFFCURVE",
"265 426 OFFCURVE",
"257 426 CURVE SMOOTH",
"195 426 OFFCURVE",
"109 345 OFFCURVE",
"83 345 CURVE SMOOTH",
"74 345 OFFCURVE",
"71 350 OFFCURVE",
"71 358 CURVE SMOOTH",
"71 376 OFFCURVE",
"76 408 OFFCURVE",
"85 428 CURVE SMOOTH",
"104 471 OFFCURVE",
"165 485 OFFCURVE",
"214 485 CURVE SMOOTH"
);
}
);
};
hints = (
{
origin = "{0, 15}";
type = Corner;
name = _corner.serif;
}
);
layerId = "B0B60A8F-2DEB-4A58-A43B-60A0DADABD8F";
paths = (
{
closed = 1;
nodes = (
"514 484 OFFCURVE",
"509 489 OFFCURVE",
"503 489 CURVE SMOOTH",
"489 489 OFFCURVE",
"445 466 OFFCURVE",
"382 456 CURVE",
"358 305 LINE",
"371 279 LINE",
"354 204 LINE SMOOTH",
"337 130 OFFCURVE",
"328 89 OFFCURVE",
"328 66 CURVE SMOOTH",
"328 26 OFFCURVE",
"336 -10 OFFCURVE",
"367 -10 CURVE SMOOTH",
"432 -10 LINE",
"453 213 LINE SMOOTH",
"466 348 OFFCURVE",
"514 466 OFFCURVE",
"514 477 CURVE SMOOTH"
);
},
{
closed = 1;
nodes = (
"208 -16 OFFCURVE",
"293 67 OFFCURVE",
"401 308 CURVE",
"380 397 LINE",
"281 161 OFFCURVE",
"193 82 OFFCURVE",
"168 82 CURVE SMOOTH",
"143 82 OFFCURVE",
"132 123 OFFCURVE",
"132 200 CURVE SMOOTH",
"132 325 OFFCURVE",
"177 415 OFFCURVE",
"234 415 CURVE SMOOTH",
"261 415 OFFCURVE",
"345 386 OFFCURVE",
"399 350 CURVE",
"428 455 LINE",
"395 471 OFFCURVE",
"346 490 OFFCURVE",
"289 490 CURVE SMOOTH",
"142 490 OFFCURVE",
"19 351 OFFCURVE",
"19 157 CURVE SMOOTH",
"19 48 OFFCURVE",
"48 -16 OFFCURVE",
"123 -16 CURVE SMOOTH"
);
}
);
width = 514;
},
{
associatedMasterId = "B0B60A8F-2DEB-4A58-A43B-60A0DADABD8F";
background = {
paths = (
{
closed = 1;
nodes = (
"-823 823 OFFCURVE",
"-726 721 OFFCURVE",
"-611 721 CURVE SMOOTH",
"-474 721 OFFCURVE",
"-358 834 OFFCURVE",
"-358 937 CURVE SMOOTH",
"-358 1027 OFFCURVE",
"-409 1173 OFFCURVE",
"-475 1173 CURVE SMOOTH",
"-499 1173 OFFCURVE",
"-538 1159 OFFCURVE",
"-572 1133 CURVE SMOOTH",
"-597 1114 OFFCURVE",
"-614 1086 OFFCURVE",
"-614 1076 CURVE SMOOTH",
"-614 1073 OFFCURVE",
"-613 1068 OFFCURVE",
"-607 1068 CURVE SMOOTH",
"-593 1068 OFFCURVE",
"-561 1085 OFFCURVE",
"-547 1085 CURVE SMOOTH",
"-511 1085 OFFCURVE",
"-475 974 OFFCURVE",
"-475 915 CURVE SMOOTH",
"-475 862 OFFCURVE",
"-544 805 OFFCURVE",
"-605 805 CURVE SMOOTH",
"-679 805 OFFCURVE",
"-719 907 OFFCURVE",
"-719 995 CURVE SMOOTH",
"-719 1080 OFFCURVE",
"-689 1122 OFFCURVE",
"-689 1150 CURVE SMOOTH",
"-689 1154 OFFCURVE",
"-691 1158 OFFCURVE",
"-697 1158 CURVE SMOOTH",
"-719 1158 OFFCURVE",
"-823 1050 OFFCURVE",
"-823 933 CURVE SMOOTH"
);
},
{
closed = 1;
nodes = (
"-381 873 LINE",
"-347 873 OFFCURVE",
"-298 823 OFFCURVE",
"-287 779 CURVE",
"-278 853 LINE",
"-276 903 OFFCURVE",
"-346 987 OFFCURVE",
"-381 987 CURVE"
);
},
{
closed = 1;
nodes = (
"-257 1225 LINE",
"-257 1225 OFFCURVE",
"-287 860 OFFCURVE",
"-304 740 CURVE SMOOTH",
"-309 704 OFFCURVE",
"-319 663 OFFCURVE",
"-293 663 CURVE SMOOTH",
"-247 663 OFFCURVE",
"-182 791 OFFCURVE",
"-178 858 CURVE SMOOTH",
"-167 1045 OFFCURVE",
"-144 1222 OFFCURVE",
"-144 1222 CURVE"
);
},
{
closed = 1;
nodes = (
"-868 1290 LINE",
"-897 1290 OFFCURVE",
"-910 1293 OFFCURVE",
"-917 1271 CURVE SMOOTH",
"-933 1218 LINE SMOOTH",
"-938 1203 OFFCURVE",
"-931 1196 OFFCURVE",
"-912 1196 CURVE SMOOTH",
"-90 1196 LINE",
"-61 1196 OFFCURVE",
"-48 1193 OFFCURVE",
"-41 1215 CURVE SMOOTH",
"-24 1268 LINE SMOOTH",
"-19 1283 OFFCURVE",
"-26 1290 OFFCURVE",
"-45 1290 CURVE SMOOTH"
);
},
{
closed = 1;
nodes = (
"-487 538 OFFCURVE",
"-510 361 OFFCURVE",
"-521 174 CURVE SMOOTH",
"-525 107 OFFCURVE",
"-587 -21 OFFCURVE",
"-628 -21 CURVE SMOOTH",
"-659 -21 OFFCURVE",
"-654 14 OFFCURVE",
"-648 56 CURVE SMOOTH",
"-634 162 OFFCURVE",
"-600 541 OFFCURVE",
"-600 541 CURVE",
"-487 538 LINE"
);
},
{
closed = 1;
nodes = (
"-155 606 OFFCURVE",
"-148 599 OFFCURVE",
"-153 584 CURVE SMOOTH",
"-170 531 LINE SMOOTH",
"-177 509 OFFCURVE",
"-190 512 OFFCURVE",
"-219 512 CURVE",
"-653 512 LINE SMOOTH",
"-672 512 OFFCURVE",
"-679 519 OFFCURVE",
"-674 534 CURVE SMOOTH",
"-658 587 LINE SMOOTH",
"-651 609 OFFCURVE",
"-638 606 OFFCURVE",
"-609 606 CURVE",
"-174 606 LINE SMOOTH"
);
},
{
closed = 1;
nodes = (
"-940 512 OFFCURVE",
"-945 514 OFFCURVE",
"-945 521 CURVE SMOOTH",
"-945 546 OFFCURVE",
"-859 608 OFFCURVE",
"-822 608 CURVE SMOOTH",
"-780 608 OFFCURVE",
"-721 547 OFFCURVE",
"-721 487 CURVE SMOOTH",
"-721 419 OFFCURVE",
"-797 366 OFFCURVE",
"-829 351 CURVE",
"-779 331 OFFCURVE",
"-737 277 OFFCURVE",
"-737 211 CURVE SMOOTH",
"-737 121 OFFCURVE",
"-824 27 OFFCURVE",
"-987 27 CURVE SMOOTH",
"-1108 27 OFFCURVE",
"-1195 97 OFFCURVE",
"-1195 183 CURVE SMOOTH",
"-1195 267 OFFCURVE",
"-1094 337 OFFCURVE",
"-1067 337 CURVE SMOOTH",
"-1038 337 OFFCURVE",
"-1088 278 OFFCURVE",
"-1088 199 CURVE SMOOTH",
"-1088 149 OFFCURVE",
"-1069 110 OFFCURVE",
"-996 110 CURVE SMOOTH",
"-916 110 OFFCURVE",
"-857 146 OFFCURVE",
"-857 226 CURVE SMOOTH",
"-857 248 OFFCURVE",
"-860 299 OFFCURVE",
"-907 299 CURVE SMOOTH",
"-929 299 OFFCURVE",
"-943 295 OFFCURVE",
"-960 295 CURVE SMOOTH",
"-972 295 OFFCURVE",
"-975 303 OFFCURVE",
"-975 320 CURVE SMOOTH",
"-975 373 OFFCURVE",
"-966 379 OFFCURVE",
"-944 379 CURVE SMOOTH",
"-882 379 OFFCURVE",
"-834 384 OFFCURVE",
"-834 440 CURVE SMOOTH",
"-834 477 OFFCURVE",
"-842 525 OFFCURVE",
"-868 525 CURVE SMOOTH",
"-882 525 OFFCURVE",
"-919 512 OFFCURVE",
"-933 512 CURVE SMOOTH"
);
},
{
closed = 1;
nodes = (
"-252 538 OFFCURVE",
"-275 361 OFFCURVE",
"-286 174 CURVE SMOOTH",
"-290 107 OFFCURVE",
"-352 -21 OFFCURVE",
"-393 -21 CURVE SMOOTH",
"-424 -21 OFFCURVE",
"-419 14 OFFCURVE",
"-413 56 CURVE SMOOTH",
"-399 162 OFFCURVE",
"-365 541 OFFCURVE",
"-365 541 CURVE",
"-252 538 LINE"
);
},
{
closed = 1;
nodes = (
"-790 393 LINE",
"-749 367 OFFCURVE",
"-676 345 OFFCURVE",
"-610 375 CURVE",
"-620 267 LINE",
"-719 270 OFFCURVE",
"-782 313 OFFCURVE",
"-829 351 CURVE"
);
},
{
closed = 1;
nodes = (
"381 475 OFFCURVE",
"350 475 OFFCURVE",
"338 475 CURVE",
"332 475 OFFCURVE",
"327 473 OFFCURVE",
"326 463 CURVE SMOOTH",
"321 411 OFFCURVE",
"304 235 OFFCURVE",
"294 98 CURVE SMOOTH",
"289 28 OFFCURVE",
"279 -2 OFFCURVE",
"305 -2 CURVE SMOOTH",
"329 -2 OFFCURVE",
"400 51 OFFCURVE",
"407 134 CURVE SMOOTH",
"419 282 OFFCURVE",
"431 411 OFFCURVE",
"437 464 CURVE SMOOTH",
"438 473 OFFCURVE",
"434 475 OFFCURVE",
"427 475 CURVE"
);
},
{
closed = 1;
nodes = (
"327 485 OFFCURVE",
"424 414 OFFCURVE",
"415 332 CURVE SMOOTH",
"392 112 LINE SMOOTH",
"391 102 OFFCURVE",
"394 93 OFFCURVE",
"407 93 CURVE SMOOTH",
"467 93 LINE SMOOTH",
"477 93 OFFCURVE",
"489 91 OFFCURVE",
"482 71 CURVE SMOOTH",
"479 61 OFFCURVE",
"469 30 OFFCURVE",
"465 18 CURVE SMOOTH",
"460 4 OFFCURVE",
"454 -1 OFFCURVE",
"440 -1 CURVE SMOOTH",
"401 -1 OFFCURVE",
"330 20 OFFCURVE",
"314 84 CURVE",
"293 124 LINE",
"308 268 OFFCURVE",
"311 308 OFFCURVE",
"317 377 CURVE SMOOTH",
"321 420 OFFCURVE",
"279 426 OFFCURVE",
"271 426 CURVE SMOOTH",
"209 426 OFFCURVE",
"123 345 OFFCURVE",
"97 345 CURVE SMOOTH",
"88 345 OFFCURVE",
"85 350 OFFCURVE",
"85 358 CURVE SMOOTH",
"85 376 OFFCURVE",
"90 408 OFFCURVE",
"99 428 CURVE SMOOTH",
"118 471 OFFCURVE",
"179 485 OFFCURVE",
"228 485 CURVE SMOOTH"
);
}
);
};
layerId = "AD57F8BB-8B07-4902-90E2-B97BD9304486";
name = "Mar 9 21, 11:01";
paths = (
{
closed = 1;
nodes = (
"215 -16 OFFCURVE",
"256 23 OFFCURVE",
"297 70 CURVE SMOOTH",
"377 162 LINE",
"379 366 LINE",
"358 192 OFFCURVE",
"259 64 OFFCURVE",
"199 64 CURVE SMOOTH",
"162 64 OFFCURVE",
"133 114 OFFCURVE",
"133 192 CURVE SMOOTH",
"133 309 OFFCURVE",
"181 440 OFFCURVE",
"271 440 CURVE SMOOTH",
"324 440 OFFCURVE",
"384 387 OFFCURVE",
"417 358 CURVE",
"489 443 LINE",
"423 464 OFFCURVE",
"355 490 OFFCURVE",
"285 490 CURVE SMOOTH",
"145 490 OFFCURVE",
"28 345 OFFCURVE",
"28 173 CURVE SMOOTH",
"28 64 OFFCURVE",
"75 -16 OFFCURVE",
"157 -16 CURVE SMOOTH"
);
},
{
closed = 1;
nodes = (
"339 8 OFFCURVE",
"348 -16 OFFCURVE",
"366 -16 CURVE SMOOTH",
"392 -16 OFFCURVE",
"448 24 OFFCURVE",
"448 58 CURVE SMOOTH",
"448 80 OFFCURVE",
"440 94 OFFCURVE",
"445 128 CURVE SMOOTH",
"489 443 LINE",
"389 448 LINE",
"357 201 LINE",
"358 185 LINE",
"351 127 LINE SMOOTH",
"346 87 OFFCURVE",
"339 50 OFFCURVE",
"339 31 CURVE SMOOTH"
);
}
);
width = 534;
},
{
associatedMasterId = "B0B60A8F-2DEB-4A58-A43B-60A0DADABD8F";
background = {
paths = (
{
closed = 1;
nodes = (
"-823 823 OFFCURVE",
"-726 721 OFFCURVE",
"-611 721 CURVE SMOOTH",
"-474 721 OFFCURVE",
"-358 834 OFFCURVE",
"-358 937 CURVE SMOOTH",
"-358 1027 OFFCURVE",
"-409 1173 OFFCURVE",
"-475 1173 CURVE SMOOTH",
"-499 1173 OFFCURVE",
"-538 1159 OFFCURVE",
"-572 1133 CURVE SMOOTH",
"-597 1114 OFFCURVE",
"-614 1086 OFFCURVE",
"-614 1076 CURVE SMOOTH",
"-614 1073 OFFCURVE",
"-613 1068 OFFCURVE",
"-607 1068 CURVE SMOOTH",
"-593 1068 OFFCURVE",
"-561 1085 OFFCURVE",
"-547 1085 CURVE SMOOTH",
"-511 1085 OFFCURVE",
"-475 974 OFFCURVE",
"-475 915 CURVE SMOOTH",
"-475 862 OFFCURVE",
"-544 805 OFFCURVE",
"-605 805 CURVE SMOOTH",
"-679 805 OFFCURVE",
"-719 907 OFFCURVE",
"-719 995 CURVE SMOOTH",
"-719 1080 OFFCURVE",
"-689 1122 OFFCURVE",
"-689 1150 CURVE SMOOTH",
"-689 1154 OFFCURVE",
"-691 1158 OFFCURVE",
"-697 1158 CURVE SMOOTH",
"-719 1158 OFFCURVE",
"-823 1050 OFFCURVE",
"-823 933 CURVE SMOOTH"
);
},
{
closed = 1;
nodes = (
"-381 873 LINE",
"-347 873 OFFCURVE",
"-298 823 OFFCURVE",
"-287 779 CURVE",
"-278 853 LINE",
"-276 903 OFFCURVE",
"-346 987 OFFCURVE",
"-381 987 CURVE"
);
},
{
closed = 1;
nodes = (
"-257 1225 LINE",
"-257 1225 OFFCURVE",
"-287 860 OFFCURVE",
"-304 740 CURVE SMOOTH",
"-309 704 OFFCURVE",
"-319 663 OFFCURVE",
"-293 663 CURVE SMOOTH",
"-247 663 OFFCURVE",
"-182 791 OFFCURVE",
"-178 858 CURVE SMOOTH",
"-167 1045 OFFCURVE",
"-144 1222 OFFCURVE",
"-144 1222 CURVE"
);
},
{
closed = 1;
nodes = (
"-868 1290 LINE",
"-897 1290 OFFCURVE",
"-910 1293 OFFCURVE",
"-917 1271 CURVE SMOOTH",
"-933 1218 LINE SMOOTH",
"-938 1203 OFFCURVE",
"-931 1196 OFFCURVE",
"-912 1196 CURVE SMOOTH",
"-90 1196 LINE",
"-61 1196 OFFCURVE",
"-48 1193 OFFCURVE",
"-41 1215 CURVE SMOOTH",
"-24 1268 LINE SMOOTH",
"-19 1283 OFFCURVE",
"-26 1290 OFFCURVE",
"-45 1290 CURVE SMOOTH"
);
},
{
closed = 1;
nodes = (
"-487 538 OFFCURVE",
"-510 361 OFFCURVE",
"-521 174 CURVE SMOOTH",
"-525 107 OFFCURVE",
"-587 -21 OFFCURVE",
"-628 -21 CURVE SMOOTH",
"-659 -21 OFFCURVE",
"-654 14 OFFCURVE",
"-648 56 CURVE SMOOTH",
"-634 162 OFFCURVE",
"-600 541 OFFCURVE",
"-600 541 CURVE",
"-487 538 LINE"
);
},
{
closed = 1;
nodes = (
"-155 606 OFFCURVE",
"-148 599 OFFCURVE",
"-153 584 CURVE SMOOTH",
"-170 531 LINE SMOOTH",
"-177 509 OFFCURVE",
"-190 512 OFFCURVE",
"-219 512 CURVE",
"-653 512 LINE SMOOTH",
"-672 512 OFFCURVE",
"-679 519 OFFCURVE",
"-674 534 CURVE SMOOTH",
"-658 587 LINE SMOOTH",
"-651 609 OFFCURVE",
"-638 606 OFFCURVE",
"-609 606 CURVE",
"-174 606 LINE SMOOTH"
);
},
{
closed = 1;
nodes = (
"-940 512 OFFCURVE",
"-945 514 OFFCURVE",
"-945 521 CURVE SMOOTH",
"-945 546 OFFCURVE",
"-859 608 OFFCURVE",
"-822 608 CURVE SMOOTH",
"-780 608 OFFCURVE",
"-721 547 OFFCURVE",
"-721 487 CURVE SMOOTH",
"-721 419 OFFCURVE",
"-797 366 OFFCURVE",
"-829 351 CURVE",
"-779 331 OFFCURVE",
"-737 277 OFFCURVE",
"-737 211 CURVE SMOOTH",
"-737 121 OFFCURVE",
"-824 27 OFFCURVE",
"-987 27 CURVE SMOOTH",
"-1108 27 OFFCURVE",
"-1195 97 OFFCURVE",
"-1195 183 CURVE SMOOTH",
"-1195 267 OFFCURVE",
"-1094 337 OFFCURVE",
"-1067 337 CURVE SMOOTH",
"-1038 337 OFFCURVE",
"-1088 278 OFFCURVE",
"-1088 199 CURVE SMOOTH",
"-1088 149 OFFCURVE",
"-1069 110 OFFCURVE",
"-996 110 CURVE SMOOTH",
"-916 110 OFFCURVE",
"-857 146 OFFCURVE",
"-857 226 CURVE SMOOTH",
"-857 248 OFFCURVE",
"-860 299 OFFCURVE",
"-907 299 CURVE SMOOTH",
"-929 299 OFFCURVE",
"-943 295 OFFCURVE",
"-960 295 CURVE SMOOTH",
"-972 295 OFFCURVE",
"-975 303 OFFCURVE",
"-975 320 CURVE SMOOTH",
"-975 373 OFFCURVE",
"-966 379 OFFCURVE",
"-944 379 CURVE SMOOTH",
"-882 379 OFFCURVE",
"-834 384 OFFCURVE",
"-834 440 CURVE SMOOTH",
"-834 477 OFFCURVE",
"-842 525 OFFCURVE",
"-868 525 CURVE SMOOTH",
"-882 525 OFFCURVE",
"-919 512 OFFCURVE",
"-933 512 CURVE SMOOTH"
);
},
{
closed = 1;
nodes = (
"-252 538 OFFCURVE",
"-275 361 OFFCURVE",
"-286 174 CURVE SMOOTH",
"-290 107 OFFCURVE",
"-352 -21 OFFCURVE",
"-393 -21 CURVE SMOOTH",
"-424 -21 OFFCURVE",
"-419 14 OFFCURVE",
"-413 56 CURVE SMOOTH",
"-399 162 OFFCURVE",
"-365 541 OFFCURVE",
"-365 541 CURVE",
"-252 538 LINE"
);
},
{
closed = 1;
nodes = (
"-790 393 LINE",
"-749 367 OFFCURVE",
"-676 345 OFFCURVE",
"-610 375 CURVE",
"-620 267 LINE",
"-719 270 OFFCURVE",
"-782 313 OFFCURVE",
"-829 351 CURVE"
);
},
{
closed = 1;
nodes = (
"381 475 OFFCURVE",
"350 475 OFFCURVE",
"338 475 CURVE",
"332 475 OFFCURVE",
"327 473 OFFCURVE",
"326 463 CURVE SMOOTH",
"321 411 OFFCURVE",
"304 235 OFFCURVE",
"294 98 CURVE SMOOTH",
"289 28 OFFCURVE",
"279 -2 OFFCURVE",
"305 -2 CURVE SMOOTH",
"329 -2 OFFCURVE",
"400 51 OFFCURVE",
"407 134 CURVE SMOOTH",
"419 282 OFFCURVE",
"431 411 OFFCURVE",
"437 464 CURVE SMOOTH",
"438 473 OFFCURVE",
"434 475 OFFCURVE",
"427 475 CURVE"
);
},
{
closed = 1;
nodes = (
"327 485 OFFCURVE",
"424 414 OFFCURVE",
"415 332 CURVE SMOOTH",
"392 112 LINE SMOOTH",
"391 102 OFFCURVE",
"394 93 OFFCURVE",
"407 93 CURVE SMOOTH",
"467 93 LINE SMOOTH",
"477 93 OFFCURVE",
"489 91 OFFCURVE",
"482 71 CURVE SMOOTH",
"479 61 OFFCURVE",
"469 30 OFFCURVE",
"465 18 CURVE SMOOTH",
"460 4 OFFCURVE",
"454 -1 OFFCURVE",
"440 -1 CURVE SMOOTH",
"401 -1 OFFCURVE",
"330 20 OFFCURVE",
"314 84 CURVE",
"293 124 LINE",
"308 268 OFFCURVE",
"311 308 OFFCURVE",
"317 377 CURVE SMOOTH",
"321 420 OFFCURVE",
"279 426 OFFCURVE",
"271 426 CURVE SMOOTH",
"209 426 OFFCURVE",
"123 345 OFFCURVE",
"97 345 CURVE SMOOTH",
"88 345 OFFCURVE",
"85 350 OFFCURVE",
"85 358 CURVE SMOOTH",
"85 376 OFFCURVE",
"90 408 OFFCURVE",
"99 428 CURVE SMOOTH",
"118 471 OFFCURVE",
"179 485 OFFCURVE",
"228 485 CURVE SMOOTH"
);
}
);
};
layerId = "96DC1021-6EB0-4FBD-9745-F4D01918C460";
name = "Apr 5 21, 11:21";
paths = (
{
closed = 1;
nodes = (
"28 64 OFFCURVE",
"75 -16 OFFCURVE",
"157 -16 CURVE SMOOTH",
"215 -16 OFFCURVE",
"256 23 OFFCURVE",
"297 70 CURVE SMOOTH",
"377 162 LINE",
"379 366 LINE",
"358 192 OFFCURVE",
"259 64 OFFCURVE",
"199 64 CURVE SMOOTH",
"162 64 OFFCURVE",
"133 114 OFFCURVE",
"133 192 CURVE SMOOTH",
"133 309 OFFCURVE",
"181 440 OFFCURVE",
"271 440 CURVE SMOOTH",
"308 440 OFFCURVE",
"349 414 OFFCURVE",
"381 388 CURVE",
"357 201 LINE",
"358 185 LINE",
"351 127 LINE SMOOTH",
"346 87 OFFCURVE",
"339 50 OFFCURVE",
"339 31 CURVE SMOOTH",
"339 8 OFFCURVE",
"348 -16 OFFCURVE",
"366 -16 CURVE SMOOTH",
"392 -16 OFFCURVE",
"448 24 OFFCURVE",
"448 58 CURVE SMOOTH",
"448 80 OFFCURVE",
"440 94 OFFCURVE",
"445 128 CURVE SMOOTH",
"479 376 LINE SMOOTH",
"488 439 OFFCURVE",
"484 444 OFFCURVE",
"436 460 CURVE SMOOTH",
"415 467 OFFCURVE",
"351 490 OFFCURVE",
"285 490 CURVE SMOOTH",
"145 490 OFFCURVE",
"28 345 OFFCURVE",
"28 173 CURVE SMOOTH"
);
}
);
width = 545;
}
);
leftMetricsKey = d;
unicode = 0061;
},
{
glyphname = b;
lastChange = "2021-04-06 07:06:45 +0000";
layers = (
{
background = {
paths = (
{
closed = 1;
nodes = (
"131 707 OFFCURVE",
"116 707 OFFCURVE",
"104 707 CURVE",
"96 707 OFFCURVE",
"85 705 OFFCURVE",
"84 687 CURVE SMOOTH",
"80 635 OFFCURVE",
"44 235 OFFCURVE",
"31 98 CURVE SMOOTH",
"24 28 OFFCURVE",
"16 -2 OFFCURVE",
"42 -2 CURVE SMOOTH",
"66 -2 OFFCURVE",
"128 48 OFFCURVE",
"135 131 CURVE SMOOTH",
"147 279 OFFCURVE",
"187 634 OFFCURVE",
"193 687 CURVE SMOOTH",
"195 705 OFFCURVE",
"186 707 OFFCURVE",
"177 707 CURVE"
);
},
{
closed = 1;
nodes = (
"450 136 OFFCURVE",
"340 -9 OFFCURVE",
"192 -6 CURVE SMOOTH",
"84 -5 OFFCURVE",
"31 56 OFFCURVE",
"31 98 CURVE SMOOTH",
"31 262 OFFCURVE",
"139 492 OFFCURVE",
"299 492 CURVE SMOOTH",
"416 492 OFFCURVE",
"460 403 OFFCURVE",
"456 287 CURVE SMOOTH"
);
},
{
closed = 1;
nodes = (
"325 62 OFFCURVE",
"344 223 OFFCURVE",
"344 320 CURVE SMOOTH",
"344 385 OFFCURVE",
"308 431 OFFCURVE",
"233 431 CURVE SMOOTH",
"169 431 OFFCURVE",
"138 274 OFFCURVE",
"138 173 CURVE SMOOTH",
"138 91 OFFCURVE",
"207 62 OFFCURVE",
"258 62 CURVE SMOOTH"
);
}
);
};
hints = (
{
origin = "{0, 12}";
type = Corner;
name = _corner.serif;
}
);
layerId = "B0B60A8F-2DEB-4A58-A43B-60A0DADABD8F";
paths = (
{
closed = 1;
nodes = (
"31 20 OFFCURVE",
"94 -16 OFFCURVE",
"217 -16 CURVE",
"146 34 LINE",
"142 225 LINE",
"194 490 LINE SMOOTH",
"208 561 OFFCURVE",
"213 604 OFFCURVE",
"213 633 CURVE SMOOTH",
"213 661 OFFCURVE",
"197 696 OFFCURVE",
"174 696 CURVE SMOOTH",
"104 696 LINE",
"36 68 LINE SMOOTH"
);
},
{
closed = 1;
nodes = (
"318 490 OFFCURVE",
"219 407 OFFCURVE",
"107 166 CURVE",
"137 77 LINE",
"235 313 OFFCURVE",
"327 392 OFFCURVE",
"352 392 CURVE SMOOTH",
"377 392 OFFCURVE",
"388 351 OFFCURVE",
"388 274 CURVE SMOOTH",
"388 149 OFFCURVE",
"340 59 OFFCURVE",
"272 59 CURVE SMOOTH",
"236 59 OFFCURVE",
"188 69 OFFCURVE",
"134 105 CURVE",
"73 24 LINE",
"125 3 OFFCURVE",
"200 -16 OFFCURVE",
"217 -16 CURVE SMOOTH",
"393 -16 OFFCURVE",
"501 123 OFFCURVE",
"501 317 CURVE SMOOTH",
"501 422 OFFCURVE",
"472 490 OFFCURVE",
"397 490 CURVE SMOOTH"
);
}
);
width = 520;
}
);
leftMetricsKey = l;
rightMetricsKey = "=|d";
unicode = 0062;
},
{
glyphname = c;
lastChange = "2021-04-06 10:14:44 +0000";
layers = (
{
background = {
paths = (
{
closed = 1;
nodes = (
"168 492 OFFCURVE",
"-4 323 OFFCURVE",
"-4 148 CURVE SMOOTH",
"-4 43 OFFCURVE",
"95 -4 OFFCURVE",
"187 -4 CURVE SMOOTH",
"262 -4 OFFCURVE",
"375 41 OFFCURVE",
"375 134 CURVE SMOOTH",
"375 158 OFFCURVE",
"357 190 OFFCURVE",
"339 190 CURVE SMOOTH",
"316 190 OFFCURVE",
"280 46 OFFCURVE",
"197 46 CURVE SMOOTH",
"153 46 OFFCURVE",
"99 94 OFFCURVE",
"99 129 CURVE SMOOTH",
"99 167 OFFCURVE",
"180 452 OFFCURVE",
"280 452 CURVE SMOOTH",
"304 452 OFFCURVE",
"318 419 OFFCURVE",
"318 408 CURVE SMOOTH",
"318 385 OFFCURVE",
"263 267 OFFCURVE",
"112 267 CURVE",
"109 224 LINE",
"186 241 OFFCURVE",
"262 252 OFFCURVE",
"327 264 CURVE SMOOTH",
"365 271 OFFCURVE",
"402 345 OFFCURVE",
"402 383 CURVE SMOOTH",
"402 437 OFFCURVE",
"357 492 OFFCURVE",
"285 492 CURVE SMOOTH"
);
},
{
closed = 0;
nodes = (
"193 331 LINE SMOOTH",
"193 382 OFFCURVE",
"236 452 OFFCURVE",
"263 452 CURVE SMOOTH",
"283 452 OFFCURVE",
"311 439 OFFCURVE",
"311 417 CURVE SMOOTH",
"311 389 OFFCURVE",
"295 358 OFFCURVE",
"295 343 CURVE SMOOTH",
"295 335 OFFCURVE",
"301 333 OFFCURVE",
"308 333 CURVE SMOOTH",
"322 333 OFFCURVE",
"354 333 OFFCURVE",
"371 333 CURVE SMOOTH",
"393 333 OFFCURVE",
"399 362 OFFCURVE",
"399 393 CURVE SMOOTH",
"399 450 OFFCURVE",
"341 492 OFFCURVE",
"271 492 CURVE SMOOTH",
"137 492 OFFCURVE",
"75 374 OFFCURVE",
"75 320 CURVE SMOOTH"
);
}
);
};
layerId = "B0B60A8F-2DEB-4A58-A43B-60A0DADABD8F";
paths = (
{
closed = 1;
nodes = (
"14 56 OFFCURVE",
"73 -16 OFFCURVE",
"177 -16 CURVE SMOOTH",
"272 -16 OFFCURVE",
"360 68 OFFCURVE",
"360 117 CURVE SMOOTH",
"360 123 OFFCURVE",
"356 130 OFFCURVE",
"349 130 CURVE SMOOTH",
"343 130 OFFCURVE",
"338 128 OFFCURVE",
"326 121 CURVE SMOOTH",
"293 103 OFFCURVE",
"266 83 OFFCURVE",
"223 83 CURVE SMOOTH",
"160 83 OFFCURVE",
"129 119 OFFCURVE",
"129 206 CURVE SMOOTH",
"129 318 OFFCURVE",
"175 416 OFFCURVE",
"237 416 CURVE SMOOTH",
"277 416 OFFCURVE",
"313 390 OFFCURVE",
"336 377 CURVE SMOOTH",
"342 373 OFFCURVE",
"353 369 OFFCURVE",
"359 369 CURVE SMOOTH",
"375 369 OFFCURVE",
"393 403 OFFCURVE",
"393 434 CURVE SMOOTH",
"393 480 OFFCURVE",
"343 491 OFFCURVE",
"287 491 CURVE SMOOTH",
"129 491 OFFCURVE",
"14 354 OFFCURVE",
"14 156 CURVE SMOOTH"
);
}
);
width = 388;
}
);
leftMetricsKey = o;
unicode = 0063;
},
{
glyphname = d;
lastChange = "2021-04-06 10:04:58 +0000";
layers = (
{
background = {
paths = (
{
closed = 1;
nodes = (
"468 707 OFFCURVE",
"453 707 OFFCURVE",
"441 707 CURVE",
"433 707 OFFCURVE",
"423 705 OFFCURVE",
"421 687 CURVE SMOOTH",
"415 635 OFFCURVE",
"378 235 OFFCURVE",
"368 98 CURVE SMOOTH",
"363 28 OFFCURVE",
"353 -2 OFFCURVE",
"379 -2 CURVE SMOOTH",
"403 -2 OFFCURVE",
"465 48 OFFCURVE",
"472 131 CURVE SMOOTH",
"484 279 OFFCURVE",
"524 634 OFFCURVE",
"530 687 CURVE SMOOTH",
"532 705 OFFCURVE",
"523 707 OFFCURVE",
"514 707 CURVE"
);
},
{
closed = 1;
nodes = (
"460 707 OFFCURVE",
"438 707 OFFCURVE",
"428 707 CURVE",
"420 707 OFFCURVE",
"410 705 OFFCURVE",
"408 687 CURVE SMOOTH",
"404 643 OFFCURVE",
"369 235 OFFCURVE",
"357 124 CURVE",
"369 87 LINE",
"391 25 OFFCURVE",
"482 -1 OFFCURVE",
"507 -1 CURVE SMOOTH",
"518 -1 OFFCURVE",
"524 4 OFFCURVE",
"529 18 CURVE SMOOTH",
"533 30 OFFCURVE",
"543 61 OFFCURVE",
"546 71 CURVE SMOOTH",
"553 91 OFFCURVE",
"542 93 OFFCURVE",
"533 93 CURVE SMOOTH",
"521 93 OFFCURVE",
"481 93 OFFCURVE",
"475 93 CURVE SMOOTH",
"462 93 OFFCURVE",
"459 101 OFFCURVE",
"460 112 CURVE SMOOTH",
"474 283 OFFCURVE",
"513 643 OFFCURVE",
"518 687 CURVE SMOOTH",
"520 705 OFFCURVE",
"511 707 OFFCURVE",
"502 707 CURVE"
);
}
);
};
guideLines = (
{
angle = 84;
position = "{403, 620}";
}
);
hints = (
{
origin = "{0, 7}";
type = Corner;
name = _corner.serif;
},
{
origin = "{0, 18}";
type = Corner;
name = _corner.serif;
}
);
layerId = "B0B60A8F-2DEB-4A58-A43B-60A0DADABD8F";
rightMetricsKey = "=l";
paths = (
{
closed = 1;
nodes = (
"375 204 LINE SMOOTH",
"358 139 OFFCURVE",
"349 99 OFFCURVE",
"349 66 CURVE SMOOTH",
"349 35 OFFCURVE",
"361 -10 OFFCURVE",
"384 -10 CURVE SMOOTH",
"454 -10 LINE",
"455 71 OFFCURVE",
"466 177 OFFCURVE",
"477 273 CURVE SMOOTH",
"500 475 LINE SMOOTH",
"510 561 OFFCURVE",
"516 609 OFFCURVE",
"516 629 CURVE SMOOTH",
"516 660 OFFCURVE",
"499 696 OFFCURVE",
"474 696 CURVE SMOOTH",
"404 696 LINE",
"388 433 LINE",
"381 416 LINE",
"370 311 LINE",
"395 279 LINE"
);
},
{
closed = 1;
nodes = (
"208 -16 OFFCURVE",
"308 67 OFFCURVE",
"414 308 CURVE",
"389 397 LINE",
"291 161 OFFCURVE",
"199 82 OFFCURVE",
"168 82 CURVE SMOOTH",
"143 82 OFFCURVE",
"132 123 OFFCURVE",
"132 200 CURVE SMOOTH",
"132 325 OFFCURVE",
"180 415 OFFCURVE",
"238 415 CURVE SMOOTH",
"264 415 OFFCURVE",
"332 393 OFFCURVE",
"386 357 CURVE",
"418 455 LINE",
"385 471 OFFCURVE",
"336 490 OFFCURVE",
"289 490 CURVE SMOOTH",
"137 490 OFFCURVE",
"19 351 OFFCURVE",
"19 157 CURVE SMOOTH",
"19 44 OFFCURVE",
"48 -16 OFFCURVE",
"120 -16 CURVE SMOOTH"
);
}
);
width = 543;
},
{
associatedMasterId = "B0B60A8F-2DEB-4A58-A43B-60A0DADABD8F";
background = {
paths = (
{
closed = 1;
nodes = (
"447 707 OFFCURVE",
"432 707 OFFCURVE",
"420 707 CURVE",
"412 707 OFFCURVE",
"402 705 OFFCURVE",
"400 687 CURVE SMOOTH",
"394 635 OFFCURVE",
"357 235 OFFCURVE",
"347 98 CURVE SMOOTH",
"342 28 OFFCURVE",
"332 -2 OFFCURVE",
"358 -2 CURVE SMOOTH",
"382 -2 OFFCURVE",
"444 48 OFFCURVE",
"451 131 CURVE SMOOTH",
"463 279 OFFCURVE",
"503 634 OFFCURVE",
"509 687 CURVE SMOOTH",
"511 705 OFFCURVE",
"502 707 OFFCURVE",
"493 707 CURVE"
);
},
{
closed = 1;
nodes = (
"439 707 OFFCURVE",
"417 707 OFFCURVE",
"407 707 CURVE",
"399 707 OFFCURVE",
"389 705 OFFCURVE",
"387 687 CURVE SMOOTH",
"383 643 OFFCURVE",
"348 235 OFFCURVE",
"336 124 CURVE",
"348 87 LINE",
"370 25 OFFCURVE",
"461 -1 OFFCURVE",
"486 -1 CURVE SMOOTH",
"497 -1 OFFCURVE",
"503 4 OFFCURVE",
"508 18 CURVE SMOOTH",
"512 30 OFFCURVE",
"522 61 OFFCURVE",
"525 71 CURVE SMOOTH",
"532 91 OFFCURVE",
"521 93 OFFCURVE",
"512 93 CURVE SMOOTH",
"500 93 OFFCURVE",
"460 93 OFFCURVE",
"454 93 CURVE SMOOTH",
"441 93 OFFCURVE",
"438 101 OFFCURVE",
"439 112 CURVE SMOOTH",
"453 283 OFFCURVE",
"492 643 OFFCURVE",
"497 687 CURVE SMOOTH",
"499 705 OFFCURVE",
"490 707 OFFCURVE",
"481 707 CURVE"
);
}
);
};
layerId = "83499B79-C9B5-49D3-B342-E77AD9BBE674";
name = "Mar 2 21, 10:52";
paths = (
{
closed = 1;
nodes = (
"439 707 OFFCURVE",
"417 707 OFFCURVE",
"407 707 CURVE",
"399 707 OFFCURVE",
"389 705 OFFCURVE",
"387 687 CURVE SMOOTH",
"383 643 OFFCURVE",
"348 235 OFFCURVE",
"336 124 CURVE",
"348 87 LINE",
"353 87 LINE",
"353 35 OFFCURVE",
"450 -1 OFFCURVE",
"486 -1 CURVE SMOOTH",
"497 -1 OFFCURVE",
"503 4 OFFCURVE",
"508 18 CURVE SMOOTH",
"512 30 OFFCURVE",
"522 61 OFFCURVE",
"525 71 CURVE SMOOTH",
"532 91 OFFCURVE",
"521 93 OFFCURVE",
"512 93 CURVE SMOOTH",
"500 93 OFFCURVE",
"460 93 OFFCURVE",
"454 93 CURVE SMOOTH",
"441 93 OFFCURVE",
"438 101 OFFCURVE",
"439 112 CURVE SMOOTH",
"453 283 OFFCURVE",
"492 643 OFFCURVE",
"497 687 CURVE SMOOTH",
"499 705 OFFCURVE",
"490 707 OFFCURVE",
"481 707 CURVE"
);
},
{
closed = 1;
nodes = (
"337 480 OFFCURVE",
"311 479 OFFCURVE",
"271 475 CURVE SMOOTH",
"187 466 OFFCURVE",
"20 376 OFFCURVE",
"20 154 CURVE SMOOTH",
"20 35 OFFCURVE",
"135 -6 OFFCURVE",
"203 -6 CURVE SMOOTH",
"277 -6 OFFCURVE",
"331 58 OFFCURVE",
"348 87 CURVE",
"349 258 LINE",
"339 172 OFFCURVE",
"285 56 OFFCURVE",
"238 56 CURVE SMOOTH",
"197 56 OFFCURVE",
"135 103 OFFCURVE",
"135 144 CURVE SMOOTH",
"135 233 OFFCURVE",
"184 423 OFFCURVE",
"270 423 CURVE SMOOTH",
"307 423 OFFCURVE",
"344 395 OFFCURVE",
"367 379 CURVE",
"377 481 LINE"
);
}
);
width = 547;
},
{
associatedMasterId = "B0B60A8F-2DEB-4A58-A43B-60A0DADABD8F";
background = {
paths = (
{
closed = 1;
nodes = (
"460 707 OFFCURVE",
"445 707 OFFCURVE",
"433 707 CURVE",
"425 707 OFFCURVE",
"415 705 OFFCURVE",
"413 687 CURVE SMOOTH",
"407 635 OFFCURVE",
"370 235 OFFCURVE",
"360 98 CURVE SMOOTH",
"355 28 OFFCURVE",
"345 -2 OFFCURVE",
"371 -2 CURVE SMOOTH",
"395 -2 OFFCURVE",
"457 48 OFFCURVE",
"464 131 CURVE SMOOTH",
"476 279 OFFCURVE",
"516 634 OFFCURVE",
"522 687 CURVE SMOOTH",
"524 705 OFFCURVE",
"515 707 OFFCURVE",
"506 707 CURVE"
);
},
{
closed = 1;
nodes = (
"452 707 OFFCURVE",
"430 707 OFFCURVE",
"420 707 CURVE",
"412 707 OFFCURVE",
"402 705 OFFCURVE",
"400 687 CURVE SMOOTH",
"396 643 OFFCURVE",
"361 235 OFFCURVE",
"349 124 CURVE",
"361 87 LINE",
"383 25 OFFCURVE",
"474 -1 OFFCURVE",
"499 -1 CURVE SMOOTH",
"510 -1 OFFCURVE",
"516 4 OFFCURVE",
"521 18 CURVE SMOOTH",
"525 30 OFFCURVE",
"535 61 OFFCURVE",
"538 71 CURVE SMOOTH",
"545 91 OFFCURVE",
"534 93 OFFCURVE",
"525 93 CURVE SMOOTH",
"513 93 OFFCURVE",
"473 93 OFFCURVE",
"467 93 CURVE SMOOTH",
"454 93 OFFCURVE",
"451 101 OFFCURVE",
"452 112 CURVE SMOOTH",
"466 283 OFFCURVE",
"505 643 OFFCURVE",
"510 687 CURVE SMOOTH",
"512 705 OFFCURVE",
"503 707 OFFCURVE",
"494 707 CURVE"
);
}
);
};
layerId = "6B6006BD-78AB-48A3-96CC-999BB12D5C88";
leftMetricsKey = "=o";
rightMetricsKey = "=l";
name = "Mar 2 21, 11:15";
paths = (
{
closed = 1;
nodes = (
"328 -1 OFFCURVE",
"337 -9 OFFCURVE",
"355 -9 CURVE SMOOTH",
"375 -9 OFFCURVE",
"437 25 OFFCURVE",
"438 61 CURVE SMOOTH",
"439 81 OFFCURVE",
"429 98 OFFCURVE",
"436 147 CURVE SMOOTH",
"505 651 LINE SMOOTH",
"509 678 OFFCURVE",
"501 680 OFFCURVE",
"489 680 CURVE SMOOTH",
"420 680 LINE SMOOTH",
"412 680 OFFCURVE",
"402 678 OFFCURVE",
"399 656 CURVE SMOOTH",
"327 84 LINE",
"328 74 LINE",
"328 17 LINE SMOOTH"
);
},
{
closed = 1;
nodes = (
"216 -16 OFFCURVE",
"234 -4 OFFCURVE",
"270 21 CURVE SMOOTH",
"393 105 LINE",
"363 366 LINE",
"331 104 OFFCURVE",
"283 64 OFFCURVE",
"240 64 CURVE SMOOTH",
"165 64 OFFCURVE",
"137 132 OFFCURVE",
"137 212 CURVE SMOOTH",
"137 359 OFFCURVE",
"203 440 OFFCURVE",
"276 440 CURVE SMOOTH",
"316 440 OFFCURVE",
"348 408 OFFCURVE",
"371 368 CURVE",
"405 453 LINE",
"360 484 OFFCURVE",
"325 490 OFFCURVE",
"280 490 CURVE SMOOTH",
"157 490 OFFCURVE",
"32 361 OFFCURVE",
"32 193 CURVE SMOOTH",
"32 71 OFFCURVE",
"86 -16 OFFCURVE",
"184 -16 CURVE SMOOTH"
);
}
);
width = 528;
},
{
associatedMasterId = "B0B60A8F-2DEB-4A58-A43B-60A0DADABD8F";
background = {
paths = (
{
closed = 1;
nodes = (
"483 707 OFFCURVE",
"468 707 OFFCURVE",
"456 707 CURVE",
"448 707 OFFCURVE",
"438 705 OFFCURVE",
"436 687 CURVE SMOOTH",
"430 635 OFFCURVE",
"393 235 OFFCURVE",
"383 98 CURVE SMOOTH",
"378 28 OFFCURVE",
"368 -2 OFFCURVE",
"394 -2 CURVE SMOOTH",
"418 -2 OFFCURVE",
"480 48 OFFCURVE",
"487 131 CURVE SMOOTH",
"499 279 OFFCURVE",
"539 634 OFFCURVE",
"545 687 CURVE SMOOTH",
"547 705 OFFCURVE",
"538 707 OFFCURVE",
"529 707 CURVE"
);
},
{
closed = 1;
nodes = (
"475 707 OFFCURVE",
"453 707 OFFCURVE",
"443 707 CURVE",
"435 707 OFFCURVE",
"425 705 OFFCURVE",
"423 687 CURVE SMOOTH",
"419 643 OFFCURVE",
"384 235 OFFCURVE",
"372 124 CURVE",
"384 87 LINE",
"406 25 OFFCURVE",
"497 -1 OFFCURVE",
"522 -1 CURVE SMOOTH",
"533 -1 OFFCURVE",
"539 4 OFFCURVE",
"544 18 CURVE SMOOTH",
"548 30 OFFCURVE",
"558 61 OFFCURVE",
"561 71 CURVE SMOOTH",
"568 91 OFFCURVE",
"557 93 OFFCURVE",
"548 93 CURVE SMOOTH",
"536 93 OFFCURVE",
"496 93 OFFCURVE",
"490 93 CURVE SMOOTH",
"477 93 OFFCURVE",
"474 101 OFFCURVE",
"475 112 CURVE SMOOTH",
"489 283 OFFCURVE",
"528 643 OFFCURVE",
"533 687 CURVE SMOOTH",
"535 705 OFFCURVE",
"526 707 OFFCURVE",
"517 707 CURVE"
);
}
);
};
layerId = "D3D5BFF1-0E64-479C-9050-0DC2C85545DE";
leftMetricsKey = "=o";
rightMetricsKey = "=l";
name = "Apr 5 21, 09:42";
paths = (
{
closed = 1;
nodes = (
"224 -16 OFFCURVE",
"264 23 OFFCURVE",
"350 197 CURVE SMOOTH",
"413 324 LINE",
"404 378 LINE",
"237 110 LINE SMOOTH",
"213 72 OFFCURVE",
"198 64 OFFCURVE",
"185 64 CURVE SMOOTH",
"150 64 OFFCURVE",
"128 124 OFFCURVE",
"128 192 CURVE SMOOTH",
"128 309 OFFCURVE",
"186 440 OFFCURVE",
"283 440 CURVE SMOOTH",
"341 440 OFFCURVE",
"404 378 OFFCURVE",
"437 348 CURVE",
"428 465 LINE",
"393 479 OFFCURVE",
"368 490 OFFCURVE",
"297 490 CURVE SMOOTH",
"150 490 OFFCURVE",
"23 345 OFFCURVE",
"23 173 CURVE SMOOTH",
"23 74 OFFCURVE",
"49 -16 OFFCURVE",
"146 -16 CURVE SMOOTH"
);
},
{
closed = 1;
nodes = (
"346 8 OFFCURVE",
"355 -16 OFFCURVE",
"373 -16 CURVE SMOOTH",
"399 -16 OFFCURVE",
"455 24 OFFCURVE",
"455 58 CURVE SMOOTH",
"455 80 OFFCURVE",
"447 94 OFFCURVE",
"452 128 CURVE SMOOTH",
"512 551 LINE SMOOTH",
"516 581 OFFCURVE",
"522 600 OFFCURVE",
"522 627 CURVE SMOOTH",
"522 654 OFFCURVE",
"505 694 OFFCURVE",
"484 694 CURVE SMOOTH",
"460 694 OFFCURVE",
"400 654 OFFCURVE",
"400 620 CURVE SMOOTH",
"400 598 OFFCURVE",
"413 584 OFFCURVE",
"409 550 CURVE SMOOTH",
"378 311 LINE",
"379 295 LINE",
"358 127 LINE SMOOTH",
"353 87 OFFCURVE",
"346 50 OFFCURVE",
"346 31 CURVE SMOOTH"
);
}
);
width = 551;
},
{
associatedMasterId = "B0B60A8F-2DEB-4A58-A43B-60A0DADABD8F";
background = {
paths = (
{
closed = 1;
nodes = (
"492 707 OFFCURVE",
"477 707 OFFCURVE",
"465 707 CURVE",
"457 707 OFFCURVE",
"447 705 OFFCURVE",
"445 687 CURVE SMOOTH",
"439 635 OFFCURVE",
"402 235 OFFCURVE",
"392 98 CURVE SMOOTH",
"387 28 OFFCURVE",
"377 -2 OFFCURVE",
"403 -2 CURVE SMOOTH",
"427 -2 OFFCURVE",
"489 48 OFFCURVE",
"496 131 CURVE SMOOTH",
"508 279 OFFCURVE",
"548 634 OFFCURVE",
"554 687 CURVE SMOOTH",
"556 705 OFFCURVE",
"547 707 OFFCURVE",
"538 707 CURVE"
);
},
{
closed = 1;
nodes = (
"484 707 OFFCURVE",
"462 707 OFFCURVE",
"452 707 CURVE",
"444 707 OFFCURVE",
"434 705 OFFCURVE",
"432 687 CURVE SMOOTH",
"428 643 OFFCURVE",
"393 235 OFFCURVE",
"381 124 CURVE",
"393 87 LINE",
"415 25 OFFCURVE",
"506 -1 OFFCURVE",
"531 -1 CURVE SMOOTH",
"542 -1 OFFCURVE",
"548 4 OFFCURVE",
"553 18 CURVE SMOOTH",
"557 30 OFFCURVE",
"567 61 OFFCURVE",
"570 71 CURVE SMOOTH",
"577 91 OFFCURVE",
"566 93 OFFCURVE",
"557 93 CURVE SMOOTH",
"545 93 OFFCURVE",
"505 93 OFFCURVE",
"499 93 CURVE SMOOTH",
"486 93 OFFCURVE",
"483 101 OFFCURVE",
"484 112 CURVE SMOOTH",
"498 283 OFFCURVE",
"537 643 OFFCURVE",
"542 687 CURVE SMOOTH",
"544 705 OFFCURVE",
"535 707 OFFCURVE",
"526 707 CURVE"
);
}
);
};
guideLines = (
{
angle = 84;
position = "{427, 620}";
},
{
angle = 84;
position = "{537, 620}";
}
);
hints = (
{
origin = "{0, 8}";
type = Corner;
name = _corner.serif;
},
{
origin = "{0, 3}";
type = Corner;
name = _corner.serif;
}
);
layerId = "2F9EDE59-BE84-43ED-A695-1C9284A1F558";
leftMetricsKey = "=o";
rightMetricsKey = "=l";
name = "Apr 5 21, 10:51";
paths = (
{
closed = 1;
nodes = (
"357 -14 OFFCURVE",
"375 -16 OFFCURVE",
"407 -16 CURVE SMOOTH",
"468 -16 LINE",
"542 671 LINE SMOOTH",
"544 688 OFFCURVE",
"536 696 OFFCURVE",
"503 696 CURVE SMOOTH",
"435 696 LINE",
"394 311 LINE",
"406 295 LINE",
"361 9 LINE SMOOTH"
);
},
{
closed = 1;
nodes = (
"238 -16 OFFCURVE",
"300 47 OFFCURVE",
"367 181 CURVE SMOOTH",
"443 332 LINE",
"419 397 LINE",
"388 337 LINE SMOOTH",
"273 115 OFFCURVE",
"232 82 OFFCURVE",
"200 82 CURVE SMOOTH",
"169 82 OFFCURVE",
"154 123 OFFCURVE",
"154 220 CURVE SMOOTH",
"154 342 OFFCURVE",
"192 415 OFFCURVE",
"260 415 CURVE SMOOTH",
"306 415 OFFCURVE",
"364 383 OFFCURVE",
"418 347 CURVE",
"450 455 LINE",
"427 471 OFFCURVE",
"379 490 OFFCURVE",
"320 490 CURVE SMOOTH",
"170 490 OFFCURVE",
"41 351 OFFCURVE",
"41 157 CURVE SMOOTH",
"41 52 OFFCURVE",
"69 -16 OFFCURVE",
"154 -16 CURVE SMOOTH"
);
}
);
width = 572;
}
);
unicode = 0064;
},
{
glyphname = e;
lastChange = "2021-04-06 10:07:45 +0000";
layers = (
{
layerId = "B0B60A8F-2DEB-4A58-A43B-60A0DADABD8F";
leftMetricsKey = "=o";
paths = (
{
closed = 1;
nodes = (
"14 53 OFFCURVE",
"63 -16 OFFCURVE",
"168 -16 CURVE SMOOTH",
"288 -16 OFFCURVE",
"388 80 OFFCURVE",
"388 127 CURVE SMOOTH",
"388 133 OFFCURVE",
"384 140 OFFCURVE",
"377 140 CURVE SMOOTH",
"371 140 OFFCURVE",
"364 136 OFFCURVE",
"353 129 CURVE SMOOTH",
"319 108 OFFCURVE",
"269 84 OFFCURVE",
"215 84 CURVE SMOOTH",
"151 84 OFFCURVE",
"128 119 OFFCURVE",
"128 206 CURVE SMOOTH",
"128 318 OFFCURVE",
"171 416 OFFCURVE",
"252 416 CURVE SMOOTH",
"291 416 OFFCURVE",
"308 388 OFFCURVE",
"306 355 CURVE SMOOTH",
"301 282 OFFCURVE",
"211 237 OFFCURVE",
"102 224 CURVE",
"115 164 LINE",
"305 204 OFFCURVE",
"411 268 OFFCURVE",
"411 376 CURVE SMOOTH",
"411 448 OFFCURVE",
"368 491 OFFCURVE",
"283 491 CURVE SMOOTH",
"127 491 OFFCURVE",
"14 348 OFFCURVE",
"14 156 CURVE SMOOTH"
);
}
);
width = 421;
},
{
associatedMasterId = "B0B60A8F-2DEB-4A58-A43B-60A0DADABD8F";
layerId = "D7640A78-23D6-4EAC-AFF4-FE70A02DFEE8";
name = "Mar 2 21, 10:43";
paths = (
{
closed = 1;
nodes = (
"197 492 OFFCURVE",
"25 323 OFFCURVE",
"25 148 CURVE SMOOTH",
"25 43 OFFCURVE",
"124 -4 OFFCURVE",
"216 -4 CURVE SMOOTH",
"291 -4 OFFCURVE",
"404 41 OFFCURVE",
"404 134 CURVE SMOOTH",
"404 158 OFFCURVE",
"386 190 OFFCURVE",
"368 190 CURVE SMOOTH",
"345 190 OFFCURVE",
"309 46 OFFCURVE",
"226 46 CURVE SMOOTH",
"182 46 OFFCURVE",
"128 94 OFFCURVE",
"128 129 CURVE SMOOTH",
"128 167 OFFCURVE",
"213 447 OFFCURVE",
"308 447 CURVE SMOOTH",
"332 447 OFFCURVE",
"347 421 OFFCURVE",
"347 405 CURVE SMOOTH",
"347 385 OFFCURVE",
"292 274 OFFCURVE",
"141 274 CURVE",
"138 224 LINE",
"215 241 OFFCURVE",
"291 252 OFFCURVE",
"356 264 CURVE SMOOTH",
"394 271 OFFCURVE",
"431 345 OFFCURVE",
"431 383 CURVE SMOOTH",
"431 437 OFFCURVE",
"386 492 OFFCURVE",
"314 492 CURVE SMOOTH"
);
}
);
width = 441;
},
{
associatedMasterId = "B0B60A8F-2DEB-4A58-A43B-60A0DADABD8F";
layerId = "5EC3B3CA-061F-4456-A43F-D0020D4DB31B";
name = "Mar 2 21, 11:00";
paths = (
{
closed = 1;
nodes = (
"269 288 OFFCURVE",
"316 330 OFFCURVE",
"316 366 CURVE SMOOTH",
"316 395 OFFCURVE",
"286 440 OFFCURVE",
"245 440 CURVE SMOOTH",
"188 440 OFFCURVE",
"124 359 OFFCURVE",
"124 212 CURVE SMOOTH",
"124 132 OFFCURVE",
"152 44 OFFCURVE",
"227 44 CURVE SMOOTH",
"317 44 OFFCURVE",
"325 190 OFFCURVE",
"358 190 CURVE SMOOTH",
"377 190 OFFCURVE",
"405 159 OFFCURVE",
"405 132 CURVE SMOOTH",
"405 76 OFFCURVE",
"317 -16 OFFCURVE",
"201 -16 CURVE SMOOTH",
"76 -16 OFFCURVE",
"19 71 OFFCURVE",
"19 193 CURVE SMOOTH",
"19 361 OFFCURVE",
"134 490 OFFCURVE",
"275 490 CURVE SMOOTH",
"358 490 OFFCURVE",
"417 441 OFFCURVE",
"417 390 CURVE SMOOTH",
"417 307 OFFCURVE",
"317 255 OFFCURVE",
"110 182 CURVE",
"98 225 LINE"
);
}
);
width = 441;
},
{
associatedMasterId = "B0B60A8F-2DEB-4A58-A43B-60A0DADABD8F";
layerId = "719E585B-9A5C-4C17-880E-64B8E1EF5070";
name = "Mar 2 21, 11:01";
paths = (
{
closed = 1;
nodes = (
"269 288 OFFCURVE",
"316 330 OFFCURVE",
"316 366 CURVE SMOOTH",
"316 395 OFFCURVE",
"286 440 OFFCURVE",
"245 440 CURVE SMOOTH",
"188 440 OFFCURVE",
"124 359 OFFCURVE",
"124 212 CURVE SMOOTH",
"124 132 OFFCURVE",
"152 74 OFFCURVE",
"247 74 CURVE",
"221 -16 LINE",
"76 -16 OFFCURVE",
"19 71 OFFCURVE",
"19 193 CURVE SMOOTH",
"19 361 OFFCURVE",
"134 490 OFFCURVE",
"275 490 CURVE SMOOTH",
"358 490 OFFCURVE",
"417 441 OFFCURVE",
"417 390 CURVE SMOOTH",
"417 307 OFFCURVE",
"317 255 OFFCURVE",
"110 182 CURVE",
"98 225 LINE"
);
},
{
closed = 1;
nodes = (
"405 159 OFFCURVE",
"377 190 OFFCURVE",
"358 190 CURVE SMOOTH",
"325 190 OFFCURVE",
"306 74 OFFCURVE",
"247 74 CURVE",
"221 -16 LINE",
"298 -16 OFFCURVE",
"405 56 OFFCURVE",
"405 132 CURVE"
);
}
);
width = 441;
},
{
associatedMasterId = "B0B60A8F-2DEB-4A58-A43B-60A0DADABD8F";
layerId = "BB9E4C05-8D1E-43FC-943D-D15990E39ED5";
leftMetricsKey = "=o";
name = "Apr 5 21, 11:15";
paths = (
{
closed = 1;
nodes = (
"344 -16 OFFCURVE",
"467 111 OFFCURVE",
"467 295 CURVE SMOOTH",
"467 420 OFFCURVE",
"419 491 OFFCURVE",
"298 491 CURVE SMOOTH",
"151 491 OFFCURVE",
"28 356 OFFCURVE",
"28 181 CURVE SMOOTH",
"28 48 OFFCURVE",
"77 -16 OFFCURVE",
"204 -16 CURVE SMOOTH"
);
},
{
closed = 1;
nodes = (
"177 59 OFFCURVE",
"141 108 OFFCURVE",
"141 205 CURVE SMOOTH",
"141 337 OFFCURVE",
"192 416 OFFCURVE",
"269 416 CURVE SMOOTH",
"323 416 OFFCURVE",
"354 368 OFFCURVE",
"354 272 CURVE SMOOTH",
"354 138 OFFCURVE",
"305 59 OFFCURVE",
"228 59 CURVE SMOOTH"
);
}
);
width = 450;
},
{
associatedMasterId = "B0B60A8F-2DEB-4A58-A43B-60A0DADABD8F";
layerId = "EA39982F-BDB9-4356-85D7-6A2CCE2681E7";
leftMetricsKey = "=o";
name = "Apr 5 21, 16:25";
paths = (
{
closed = 1;
nodes = (
"25 53 OFFCURVE",
"74 -16 OFFCURVE",
"182 -16 CURVE SMOOTH",
"299 -16 OFFCURVE",
"399 80 OFFCURVE",
"399 127 CURVE SMOOTH",
"399 133 OFFCURVE",
"395 140 OFFCURVE",
"388 140 CURVE SMOOTH",
"382 140 OFFCURVE",
"375 136 OFFCURVE",
"364 129 CURVE SMOOTH",
"330 108 OFFCURVE",
"280 82 OFFCURVE",
"225 82 CURVE SMOOTH",
"162 82 OFFCURVE",
"139 119 OFFCURVE",
"139 206 CURVE SMOOTH",
"139 318 OFFCURVE",
"191 416 OFFCURVE",
"268 416 CURVE SMOOTH",
"297 416 OFFCURVE",
"308 399 OFFCURVE",
"308 374 CURVE SMOOTH",
"308 301 OFFCURVE",
"225 257 OFFCURVE",
"113 224 CURVE",
"126 164 LINE",
"323 224 OFFCURVE",
"426 296 OFFCURVE",
"426 390 CURVE SMOOTH",
"426 469 OFFCURVE",
"371 491 OFFCURVE",
"298 491 CURVE SMOOTH",
"154 491 OFFCURVE",
"25 354 OFFCURVE",
"25 166 CURVE SMOOTH"
);
}
);
width = 461;
}
);
unicode = 0065;
},
{
glyphname = f;
lastChange = "2021-04-06 10:19:36 +0000";
layers = (
{
background = {
paths = (
{
closed = 0;
nodes = (
"244 682 LINE",
"270 682 OFFCURVE",
"297 645 OFFCURVE",
"297 624 CURVE SMOOTH",
"297 601 OFFCURVE",
"282 560 OFFCURVE",
"282 545 CURVE SMOOTH",
"282 537 OFFCURVE",
"289 535 OFFCURVE",
"296 535 CURVE SMOOTH",
"310 535 OFFCURVE",
"346 535 OFFCURVE",
"360 535 CURVE SMOOTH",
"385 535 OFFCURVE",
"393 566 OFFCURVE",
"393 595 CURVE SMOOTH",
"393 675 OFFCURVE",
"316 722 OFFCURVE",
"247 722 CURVE SMOOTH"
);
},
{
closed = 1;
nodes = (
"132 460 OFFCURVE",
"122 460 OFFCURVE",
"110 460 CURVE",
"102 460 OFFCURVE",
"91 458 OFFCURVE",
"90 440 CURVE SMOOTH",
"86 388 OFFCURVE",
"73 249 OFFCURVE",
"61 112 CURVE SMOOTH",
"60 101 OFFCURVE",
"59 93 OFFCURVE",
"46 93 CURVE SMOOTH",
"40 93 OFFCURVE",
"24 93 OFFCURVE",
"12 93 CURVE SMOOTH",
"3 93 OFFCURVE",
"-8 91 OFFCURVE",
"-1 71 CURVE SMOOTH",
"2 61 OFFCURVE",
"12 30 OFFCURVE",
"16 18 CURVE SMOOTH",
"21 4 OFFCURVE",
"27 -1 OFFCURVE",
"38 -1 CURVE SMOOTH",
"80 -1 OFFCURVE",
"155 41 OFFCURVE",
"164 140 CURVE SMOOTH",
"173 234 OFFCURVE",
"188 387 OFFCURVE",
"194 440 CURVE SMOOTH",
"196 458 OFFCURVE",
"187 460 OFFCURVE",
"178 460 CURVE"
);
},
{
closed = 1;
nodes = (
"309 472 OFFCURVE",
"251 472 OFFCURVE",
"197 472 CURVE",
"177 493 LINE",
"109 493 LINE",
"20 401 LINE SMOOTH",
"4 384 OFFCURVE",
"15 369 OFFCURVE",
"29 372 CURVE SMOOTH",
"188 404 LINE",
"282 380 LINE",
"310 372 OFFCURVE",
"315 377 OFFCURVE",
"322 399 CURVE SMOOTH",
"338 450 LINE SMOOTH",
"343 465 OFFCURVE",
"336 472 OFFCURVE",
"317 472 CURVE SMOOTH"
);
}
);
};
layerId = "B0B60A8F-2DEB-4A58-A43B-60A0DADABD8F";
paths = (
{
closed = 1;
nodes = (
"300 405 LINE SMOOTH",
"309 405 OFFCURVE",
"312 410 OFFCURVE",
"315 419 CURVE SMOOTH",
"329 459 LINE SMOOTH",
"332 468 OFFCURVE",
"331 475 OFFCURVE",
"321 475 CURVE SMOOTH",
"47 475 LINE SMOOTH",
"39 475 OFFCURVE",
"37 470 OFFCURVE",
"34 462 CURVE SMOOTH",
"20 422 LINE SMOOTH",
"17 413 OFFCURVE",
"22 405 OFFCURVE",
"31 405 CURVE SMOOTH"
);
},
{
closed = 1;
nodes = (
"9 -159 OFFCURVE",
"8 -175 OFFCURVE",
"8 -188 CURVE SMOOTH",
"8 -207 OFFCURVE",
"15 -219 OFFCURVE",
"33 -219 CURVE SMOOTH",
"64 -219 OFFCURVE",
"133 -91 OFFCURVE",
"140 -24 CURVE SMOOTH",
"147 45 OFFCURVE",
"156 129 OFFCURVE",
"166 208 CURVE SMOOTH",
"202 499 LINE SMOOTH",
"211 572 OFFCURVE",
"221 621 OFFCURVE",
"265 621 CURVE SMOOTH",
"314 621 OFFCURVE",
"355 572 OFFCURVE",
"372 572 CURVE SMOOTH",
"391 572 OFFCURVE",
"404 604 OFFCURVE",
"404 638 CURVE SMOOTH",
"404 677 OFFCURVE",
"380 696 OFFCURVE",
"319 696 CURVE SMOOTH",
"202 696 OFFCURVE",
"107 625 OFFCURVE",
"88 471 CURVE SMOOTH",
"11 -142 LINE SMOOTH"
);
}
);
width = 313;
}
);
unicode = 0066;
},
{
glyphname = g;
lastChange = "2021-04-06 10:04:24 +0000";
layers = (
{
background = {
paths = (
{
closed = 1;
nodes = (
"412 244 OFFCURVE",
"333 152 OFFCURVE",
"217 152 CURVE SMOOTH",
"134 152 OFFCURVE",
"48 187 OFFCURVE",
"48 294 CURVE SMOOTH",
"48 379 OFFCURVE",
"134 492 OFFCURVE",
"248 492 CURVE SMOOTH",
"344 492 OFFCURVE",
"412 433 OFFCURVE",
"412 351 CURVE SMOOTH"
);
},
{
closed = 1;
nodes = (
"293 198 OFFCURVE",
"319 308 OFFCURVE",
"319 370 CURVE SMOOTH",
"319 418 OFFCURVE",
"255 446 OFFCURVE",
"217 446 CURVE SMOOTH",
"167 446 OFFCURVE",
"141 337 OFFCURVE",
"141 275 CURVE SMOOTH",
"141 217 OFFCURVE",
"218 198 OFFCURVE",
"245 198 CURVE SMOOTH"
);
},
{
closed = 1;
nodes = (
"217 166 LINE",
"217 152 LINE",
"180 152 OFFCURVE",
"149 130 OFFCURVE",
"149 122 CURVE SMOOTH",
"149 100 OFFCURVE",
"405 -27 OFFCURVE",
"405 -83 CURVE SMOOTH",
"405 -134 OFFCURVE",
"332 -205 OFFCURVE",
"194 -205 CURVE SMOOTH",
"87 -205 OFFCURVE",
"-41 -160 OFFCURVE",
"-41 -72 CURVE SMOOTH",
"-41 -5 OFFCURVE",
"45 44 OFFCURVE",
"64 44 CURVE SMOOTH",
"69 44 OFFCURVE",
"72 41 OFFCURVE",
"72 36 CURVE SMOOTH",
"72 23 OFFCURVE",
"52 -19 OFFCURVE",
"52 -45 CURVE SMOOTH",
"52 -96 OFFCURVE",
"161 -159 OFFCURVE",
"208 -159 CURVE SMOOTH",
"242 -159 OFFCURVE",
"291 -124 OFFCURVE",
"291 -106 CURVE SMOOTH",
"291 -70 OFFCURVE",
"60 33 OFFCURVE",
"60 86 CURVE SMOOTH",
"60 113 OFFCURVE",
"108 150 OFFCURVE",
"134 161 CURVE",
"134 164 OFFCURVE",
"134 163 OFFCURVE",
"134 166 CURVE"
);
},
{
closed = 1;
nodes = (
"367 548 LINE",
"378 558 OFFCURVE",
"387 567 OFFCURVE",
"393 567 CURVE SMOOTH",
"398 567 OFFCURVE",
"401 563 OFFCURVE",
"406 550 CURVE SMOOTH",
"430 489 LINE SMOOTH",
"435 475 OFFCURVE",
"429 471 OFFCURVE",
"417 471 CURVE",
"347 471 LINE",
"347 465 LINE",
"300 465 LINE",
"300 485 LINE"
);
}
);
};
layerId = "B0B60A8F-2DEB-4A58-A43B-60A0DADABD8F";
leftMetricsKey = "=d";
paths = (
{
closed = 1;
nodes = (
"-5 -180 OFFCURVE",
"73 -221 OFFCURVE",
"169 -221 CURVE SMOOTH",
"301 -221 OFFCURVE",
"443 -156 OFFCURVE",
"450 30 CURVE SMOOTH",
"457 210 LINE SMOOTH",
"463 353 OFFCURVE",
"513 466 OFFCURVE",
"513 477 CURVE SMOOTH",
"513 484 OFFCURVE",
"510 489 OFFCURVE",
"503 489 CURVE SMOOTH",
"488 489 OFFCURVE",
"455 475 OFFCURVE",
"370 465 CURVE",
"363 337 LINE",
"382 313 LINE",
"336 42 LINE SMOOTH",
"309 -116 OFFCURVE",
"273 -142 OFFCURVE",
"210 -143 CURVE SMOOTH",
"160 -144 OFFCURVE",
"76 -98 OFFCURVE",
"40 -78 CURVE SMOOTH",
"23 -69 OFFCURVE",
"13 -63 OFFCURVE",
"6 -63 CURVE SMOOTH",
"0 -63 OFFCURVE",
"-5 -67 OFFCURVE",
"-5 -80 CURVE SMOOTH"
);
},
{
closed = 1;
nodes = (
"208 -16 OFFCURVE",
"308 67 OFFCURVE",
"405 308 CURVE",
"378 397 LINE",
"291 161 OFFCURVE",
"193 82 OFFCURVE",
"168 82 CURVE SMOOTH",
"143 82 OFFCURVE",
"132 123 OFFCURVE",
"132 200 CURVE SMOOTH",
"132 325 OFFCURVE",
"180 415 OFFCURVE",
"238 415 CURVE SMOOTH",
"277 415 OFFCURVE",
"335 393 OFFCURVE",
"389 347 CURVE",
"421 455 LINE",
"388 471 OFFCURVE",
"336 490 OFFCURVE",
"289 490 CURVE SMOOTH",
"137 490 OFFCURVE",
"19 351 OFFCURVE",
"19 157 CURVE SMOOTH",
"19 42 OFFCURVE",
"48 -16 OFFCURVE",
"123 -16 CURVE SMOOTH"
);
}
);
width = 513;
},
{
associatedMasterId = "B0B60A8F-2DEB-4A58-A43B-60A0DADABD8F";
background = {
paths = (
{
closed = 1;
nodes = (
"428 244 OFFCURVE",
"349 152 OFFCURVE",
"233 152 CURVE SMOOTH",
"150 152 OFFCURVE",
"64 187 OFFCURVE",
"64 294 CURVE SMOOTH",
"64 379 OFFCURVE",
"150 492 OFFCURVE",
"264 492 CURVE SMOOTH",
"360 492 OFFCURVE",
"428 433 OFFCURVE",
"428 351 CURVE SMOOTH"
);
},
{
closed = 1;
nodes = (
"309 198 OFFCURVE",
"335 308 OFFCURVE",
"335 370 CURVE SMOOTH",
"335 418 OFFCURVE",
"271 446 OFFCURVE",
"233 446 CURVE SMOOTH",
"183 446 OFFCURVE",
"157 337 OFFCURVE",
"157 275 CURVE SMOOTH",
"157 217 OFFCURVE",
"234 198 OFFCURVE",
"261 198 CURVE SMOOTH"
);
},
{
closed = 1;
nodes = (
"233 166 LINE",
"233 152 LINE",
"196 152 OFFCURVE",
"165 130 OFFCURVE",
"165 122 CURVE SMOOTH",
"165 100 OFFCURVE",
"421 -27 OFFCURVE",
"421 -83 CURVE SMOOTH",
"421 -134 OFFCURVE",
"348 -205 OFFCURVE",
"210 -205 CURVE SMOOTH",
"103 -205 OFFCURVE",
"-25 -160 OFFCURVE",
"-25 -72 CURVE SMOOTH",
"-25 -5 OFFCURVE",
"61 44 OFFCURVE",
"80 44 CURVE SMOOTH",
"85 44 OFFCURVE",
"88 41 OFFCURVE",
"88 36 CURVE SMOOTH",
"88 23 OFFCURVE",
"68 -19 OFFCURVE",
"68 -45 CURVE SMOOTH",
"68 -96 OFFCURVE",
"177 -159 OFFCURVE",
"224 -159 CURVE SMOOTH",
"258 -159 OFFCURVE",
"307 -124 OFFCURVE",
"307 -106 CURVE SMOOTH",
"307 -70 OFFCURVE",
"76 33 OFFCURVE",
"76 86 CURVE SMOOTH",
"76 113 OFFCURVE",
"124 150 OFFCURVE",
"150 161 CURVE",
"150 164 OFFCURVE",
"150 163 OFFCURVE",
"150 166 CURVE"
);
},
{
closed = 1;
nodes = (
"383 548 LINE",
"394 558 OFFCURVE",
"403 567 OFFCURVE",
"409 567 CURVE SMOOTH",
"414 567 OFFCURVE",
"417 563 OFFCURVE",
"422 550 CURVE SMOOTH",
"446 489 LINE SMOOTH",
"451 475 OFFCURVE",
"445 471 OFFCURVE",
"433 471 CURVE",
"363 471 LINE",
"363 465 LINE",
"316 465 LINE",
"316 485 LINE"
);
}
);
};
layerId = "E6CFDFEA-E233-4F3C-8000-48C8AAAA40C6";
name = "Apr 5 21, 10:02";
paths = (
{
closed = 1;
nodes = (
"428 244 OFFCURVE",
"349 152 OFFCURVE",
"233 152 CURVE SMOOTH",
"150 152 OFFCURVE",
"64 187 OFFCURVE",
"64 294 CURVE SMOOTH",
"64 379 OFFCURVE",
"150 492 OFFCURVE",
"264 492 CURVE SMOOTH",
"360 492 OFFCURVE",
"428 433 OFFCURVE",
"428 351 CURVE SMOOTH"
);
},
{
closed = 1;
nodes = (
"309 198 OFFCURVE",
"335 308 OFFCURVE",
"335 370 CURVE SMOOTH",
"335 418 OFFCURVE",
"271 446 OFFCURVE",
"233 446 CURVE SMOOTH",
"183 446 OFFCURVE",
"157 337 OFFCURVE",
"157 275 CURVE SMOOTH",
"157 217 OFFCURVE",
"234 198 OFFCURVE",
"261 198 CURVE SMOOTH"
);
},
{
closed = 1;
nodes = (
"233 166 LINE",
"233 152 LINE",
"196 152 OFFCURVE",
"165 130 OFFCURVE",
"165 122 CURVE SMOOTH",
"165 100 OFFCURVE",
"421 -27 OFFCURVE",
"421 -83 CURVE SMOOTH",
"421 -134 OFFCURVE",
"348 -205 OFFCURVE",
"210 -205 CURVE SMOOTH",
"103 -205 OFFCURVE",
"-25 -160 OFFCURVE",
"-25 -72 CURVE SMOOTH",
"-25 -5 OFFCURVE",
"61 44 OFFCURVE",
"80 44 CURVE SMOOTH",
"85 44 OFFCURVE",
"88 41 OFFCURVE",
"88 36 CURVE SMOOTH",
"88 23 OFFCURVE",
"68 -19 OFFCURVE",
"68 -45 CURVE SMOOTH",
"68 -96 OFFCURVE",
"177 -159 OFFCURVE",
"224 -159 CURVE SMOOTH",
"258 -159 OFFCURVE",
"307 -124 OFFCURVE",
"307 -106 CURVE SMOOTH",
"307 -70 OFFCURVE",
"76 33 OFFCURVE",
"76 86 CURVE SMOOTH",
"76 113 OFFCURVE",
"124 150 OFFCURVE",
"150 161 CURVE",
"150 164 OFFCURVE",
"150 163 OFFCURVE",
"150 166 CURVE"
);
},
{
closed = 1;
nodes = (
"383 548 LINE",
"394 558 OFFCURVE",
"403 567 OFFCURVE",
"409 567 CURVE SMOOTH",
"414 567 OFFCURVE",
"417 563 OFFCURVE",
"422 550 CURVE SMOOTH",
"446 489 LINE SMOOTH",
"450 479 OFFCURVE",
"449 471 OFFCURVE",
"434 471 CURVE SMOOTH",
"429 471 OFFCURVE",
"396 471 OFFCURVE",
"394 471 CURVE SMOOTH",
"382 471 OFFCURVE",
"376 472 OFFCURVE",
"363 476 CURVE",
"363 465 LINE",
"316 465 LINE",
"316 485 LINE"
);
}
);
width = 468;
}
);
rightMetricsKey = "=a";
unicode = 0067;
},
{
glyphname = h;
lastChange = "2021-04-06 10:05:20 +0000";
layers = (
{
background = {
paths = (
{
closed = 1;
nodes = (
"328 13 OFFCURVE",
"336 0 OFFCURVE",
"360 0 CURVE SMOOTH",
"377 0 OFFCURVE",
"387 0 OFFCURVE",
"412 0 CURVE SMOOTH",
"429 0 OFFCURVE",
"432 14 OFFCURVE",
"434 33 CURVE SMOOTH",
"462 326 LINE SMOOTH",
"470 411 OFFCURVE",
"407 483 OFFCURVE",
"318 483 CURVE SMOOTH",
"252 483 OFFCURVE",
"170 421 OFFCURVE",
"147 404 CURVE",
"158 258 LINE",
"164 335 OFFCURVE",
"244 431 OFFCURVE",
"299 431 CURVE SMOOTH",
"330 431 OFFCURVE",
"367 382 OFFCURVE",
"364 347 CURVE SMOOTH",
"356 272 OFFCURVE",
"344 150 OFFCURVE",
"333 55 CURVE SMOOTH"
);
},
{
closed = 1;
nodes = (
"96 475 OFFCURVE",
"88 475 OFFCURVE",
"76 475 CURVE",
"68 475 OFFCURVE",
"58 473 OFFCURVE",
"56 455 CURVE SMOOTH",
"50 403 OFFCURVE",
"38 235 OFFCURVE",
"25 98 CURVE SMOOTH",
"18 28 OFFCURVE",
"10 -2 OFFCURVE",
"36 -2 CURVE SMOOTH",
"60 -2 OFFCURVE",
"122 51 OFFCURVE",
"129 134 CURVE SMOOTH",
"141 282 OFFCURVE",
"152 402 OFFCURVE",
"158 455 CURVE SMOOTH",
"160 473 OFFCURVE",
"151 475 OFFCURVE",
"142 475 CURVE"
);
},
{
closed = 1;
nodes = (
"320 13 OFFCURVE",
"328 0 OFFCURVE",
"352 0 CURVE SMOOTH",
"369 0 OFFCURVE",
"382 0 OFFCURVE",
"407 0 CURVE SMOOTH",
"424 0 OFFCURVE",
"427 14 OFFCURVE",
"429 33 CURVE SMOOTH",
"457 322 LINE SMOOTH",
"464 395 OFFCURVE",
"410 483 OFFCURVE",
"311 483 CURVE SMOOTH",
"257 483 OFFCURVE",
"176 446 OFFCURVE",
"133 424 CURVE",
"141 272 LINE",
"147 320 OFFCURVE",
"236 426 OFFCURVE",
"293 426 CURVE SMOOTH",
"317 426 OFFCURVE",
"359 392 OFFCURVE",
"356 347 CURVE SMOOTH",
"351 272 OFFCURVE",
"337 160 OFFCURVE",
"325 55 CURVE SMOOTH"
);
}
);
};
guideLines = (
{
angle = 262;
position = "{65, 290}";
}
);
hints = (
{
origin = "{1, 0}";
type = Corner;
name = _corner.serif;
},
{
origin = "{0, 18}";
type = Corner;
name = _corner.serif;
}
);
layerId = "B0B60A8F-2DEB-4A58-A43B-60A0DADABD8F";
paths = (
{
closed = 1;
nodes = (
"36 75 LINE SMOOTH",
"26 -6 OFFCURVE",
"32 -14 OFFCURVE",
"58 -14 CURVE SMOOTH",
"81 -14 OFFCURVE",
"146 7 OFFCURVE",
"148 34 CURVE SMOOTH",
"151 74 OFFCURVE",
"155 153 OFFCURVE",
"165 238 CURVE",
"146 225 LINE",
"196 500 LINE SMOOTH",
"207 563 OFFCURVE",
"215 609 OFFCURVE",
"215 629 CURVE SMOOTH",
"215 661 OFFCURVE",
"192 696 OFFCURVE",
"170 696 CURVE SMOOTH",
"100 696 LINE",
"100 620 OFFCURVE",
"96 545 OFFCURVE",
"86 469 CURVE"
);
},
{
closed = 1;
nodes = (
"428 -10 LINE",
"476 303 LINE SMOOTH",
"481 337 OFFCURVE",
"487 369 OFFCURVE",
"487 399 CURVE SMOOTH",
"487 452 OFFCURVE",
"462 490 OFFCURVE",
"403 490 CURVE SMOOTH",
"327 490 OFFCURVE",
"203 406 OFFCURVE",
"122 175 CURVE",
"147 34 LINE",
"169 247 OFFCURVE",
"315 380 OFFCURVE",
"349 380 CURVE SMOOTH",
"362 380 OFFCURVE",
"371 369 OFFCURVE",
"371 349 CURVE SMOOTH",
"371 322 OFFCURVE",
"366 301 OFFCURVE",
"362 274 CURVE SMOOTH",
"345 170 LINE SMOOTH",
"339 133 OFFCURVE",
"332 72 OFFCURVE",
"332 45 CURVE SMOOTH",
"332 29 OFFCURVE",
"338 -10 OFFCURVE",
"355 -10 CURVE SMOOTH"
);
}
);
width = 523;
}
);
leftMetricsKey = l;
rightMetricsKey = n;
unicode = 0068;
},
{
glyphname = i;
lastChange = "2021-04-06 09:42:54 +0000";
layers = (
{
background = {
paths = (
{
closed = 1;
nodes = (
"150 707 OFFCURVE",
"122 707 OFFCURVE",
"110 707 CURVE",
"104 707 OFFCURVE",
"99 705 OFFCURVE",
"98 695 CURVE SMOOTH",
"93 643 OFFCURVE",
"54 235 OFFCURVE",
"44 98 CURVE SMOOTH",
"39 28 OFFCURVE",
"29 -2 OFFCURVE",
"55 -2 CURVE SMOOTH",
"79 -2 OFFCURVE",
"140 46 OFFCURVE",
"147 129 CURVE SMOOTH",
"159 277 OFFCURVE",
"200 643 OFFCURVE",
"206 696 CURVE SMOOTH",
"207 705 OFFCURVE",
"203 707 OFFCURVE",
"196 707 CURVE"
);
}
);
};
hints = (
{
origin = "{1, 14}";
type = Corner;
name = _corner.serif;
},
{
origin = "{1, 3}";
type = Corner;
name = _corner.serif;
}
);
layerId = "B0B60A8F-2DEB-4A58-A43B-60A0DADABD8F";
paths = (
{
closed = 1;
nodes = (
"194 549 OFFCURVE",
"230 583 OFFCURVE",
"230 628 CURVE SMOOTH",
"230 673 OFFCURVE",
"200 696 OFFCURVE",
"162 696 CURVE SMOOTH",
"120 696 OFFCURVE",
"84 667 OFFCURVE",
"84 618 CURVE SMOOTH",
"84 577 OFFCURVE",
"114 549 OFFCURVE",
"152 549 CURVE SMOOTH"
);
},
{
closed = 1;
nodes = (
"36 16 OFFCURVE",
"45 -16 OFFCURVE",
"68 -16 CURVE SMOOTH",
"138 -16 LINE",
"143 30 OFFCURVE",
"150 74 OFFCURVE",
"163 179 CURVE SMOOTH",
"182 342 LINE SMOOTH",
"187 385 OFFCURVE",
"190 400 OFFCURVE",
"190 419 CURVE SMOOTH",
"190 456 OFFCURVE",
"180 491 OFFCURVE",
"153 491 CURVE SMOOTH",
"83 491 LINE",
"47 170 LINE SMOOTH",
"42 125 OFFCURVE",
"36 92 OFFCURVE",
"36 44 CURVE SMOOTH"
);
}
);
width = 225;
}
);
leftMetricsKey = "=n";
unicode = 0069;
},
{
glyphname = j;
lastChange = "2021-04-06 06:12:52 +0000";
layers = (
{
background = {
paths = (
{
closed = 1;
nodes = (
"135 475 OFFCURVE",
"120 475 OFFCURVE",
"108 475 CURVE",
"100 475 OFFCURVE",
"89 473 OFFCURVE",
"88 455 CURVE SMOOTH",
"84 403 OFFCURVE",
"50 38 OFFCURVE",
"38 -99 CURVE SMOOTH",
"37 -110 OFFCURVE",
"36 -118 OFFCURVE",
"23 -118 CURVE SMOOTH",
"8 -118 OFFCURVE",
"-101 -92 OFFCURVE",
"-115 -92 CURVE SMOOTH",
"-122 -92 OFFCURVE",
"-131 -97 OFFCURVE",
"-125 -117 CURVE SMOOTH",
"-123 -124 OFFCURVE",
"-107 -174 OFFCURVE",
"-103 -186 CURVE SMOOTH",
"-98 -200 OFFCURVE",
"-92 -205 OFFCURVE",
"-81 -205 CURVE SMOOTH",
"-11 -205 OFFCURVE",
"133 -185 OFFCURVE",
"145 -49 CURVE SMOOTH",
"155 68 OFFCURVE",
"191 402 OFFCURVE",
"197 455 CURVE SMOOTH",
"199 473 OFFCURVE",
"190 475 OFFCURVE",
"181 475 CURVE"
);
}
);
};
hints = (
{
origin = "{0, 13}";
type = Corner;
name = _corner.serif;
}
);
layerId = "B0B60A8F-2DEB-4A58-A43B-60A0DADABD8F";
paths = (
{
closed = 1;
nodes = (
"-142 -179 OFFCURVE",
"-107 -221 OFFCURVE",
"-56 -221 CURVE SMOOTH",
"51 -221 OFFCURVE",
"141 -146 OFFCURVE",
"164 83 CURVE SMOOTH",
"190 342 LINE SMOOTH",
"195 393 OFFCURVE",
"195 400 OFFCURVE",
"195 419 CURVE SMOOTH",
"195 444 OFFCURVE",
"187 491 OFFCURVE",
"163 491 CURVE SMOOTH",
"91 491 LINE",
"52 92 LINE SMOOTH",
"33 -100 OFFCURVE",
"17 -146 OFFCURVE",
"-13 -146 CURVE SMOOTH",
"-36 -146 OFFCURVE",
"-73 -129 OFFCURVE",
"-99 -113 CURVE SMOOTH",
"-117 -102 OFFCURVE",
"-122 -96 OFFCURVE",
"-129 -96 CURVE SMOOTH",
"-135 -96 OFFCURVE",
"-142 -102 OFFCURVE",
"-142 -115 CURVE SMOOTH"
);
},
{
closed = 1;
nodes = (
"202 549 OFFCURVE",
"238 583 OFFCURVE",
"238 628 CURVE SMOOTH",
"238 673 OFFCURVE",
"208 696 OFFCURVE",
"170 696 CURVE SMOOTH",
"128 696 OFFCURVE",
"92 667 OFFCURVE",
"92 618 CURVE SMOOTH",
"92 577 OFFCURVE",
"122 549 OFFCURVE",
"160 549 CURVE SMOOTH"
);
}
);
width = 227;
}
);
unicode = 006A;
},
{
glyphname = k;
lastChange = "2021-04-06 10:16:25 +0000";
layers = (
{
background = {
paths = (
{
closed = 1;
nodes = (
"188 261 OFFCURVE",
"406 370 OFFCURVE",
"453 370 CURVE SMOOTH",
"479 370 OFFCURVE",
"486 382 OFFCURVE",
"486 392 CURVE SMOOTH",
"486 414 OFFCURVE",
"454 477 OFFCURVE",
"426 477 CURVE SMOOTH",
"368 477 OFFCURVE",
"177 318 OFFCURVE",
"177 262 CURVE",
"181 188 LINE"
);
}
);
};
components = (
{
name = l;
}
);
layerId = "B0B60A8F-2DEB-4A58-A43B-60A0DADABD8F";
paths = (
{
closed = 1;
nodes = (
"210 315 OFFCURVE",
"205 303 OFFCURVE",
"205 289 CURVE SMOOTH",
"205 268 OFFCURVE",
"213 243 OFFCURVE",
"219 227 CURVE SMOOTH",
"267 113 OFFCURVE",
"328 -11 OFFCURVE",
"386 -11 CURVE SMOOTH",
"425 -11 OFFCURVE",
"482 36 OFFCURVE",
"482 79 CURVE SMOOTH",
"482 90 OFFCURVE",
"479 96 OFFCURVE",
"471 96 CURVE SMOOTH",
"461 96 OFFCURVE",
"451 93 OFFCURVE",
"440 93 CURVE SMOOTH",
"405 93 OFFCURVE",
"351 185 OFFCURVE",
"290 342 CURVE",
"285 296 LINE",
"310 339 OFFCURVE",
"344 384 OFFCURVE",
"399 384 CURVE SMOOTH",
"431 384 OFFCURVE",
"455 362 OFFCURVE",
"472 362 CURVE SMOOTH",
"494 362 OFFCURVE",
"504 412 OFFCURVE",
"504 441 CURVE SMOOTH",
"504 467 OFFCURVE",
"492 490 OFFCURVE",
"440 490 CURVE SMOOTH",
"359 490 OFFCURVE",
"271 416 OFFCURVE",
"219 330 CURVE SMOOTH"
);
}
);
width = 504;
},
{
associatedMasterId = "B0B60A8F-2DEB-4A58-A43B-60A0DADABD8F";
background = {
paths = (
{
closed = 1;
nodes = (
"196 261 OFFCURVE",
"414 370 OFFCURVE",
"461 370 CURVE SMOOTH",
"487 370 OFFCURVE",
"494 382 OFFCURVE",
"494 392 CURVE SMOOTH",
"494 414 OFFCURVE",
"462 477 OFFCURVE",
"434 477 CURVE SMOOTH",
"376 477 OFFCURVE",
"185 318 OFFCURVE",
"185 262 CURVE",
"189 188 LINE"
);
}
);
};
hints = (
{
origin = "{2, 18}";
type = Corner;
name = _corner.serif;
}
);
layerId = "A09DAE1E-68B6-4193-B3B5-92EB2FCC08DD";
name = "Apr 5 21, 16:42";
paths = (
{
closed = 1;
nodes = (
"223 264 LINE",
"272 125 OFFCURVE",
"333 -14 OFFCURVE",
"394 -14 CURVE SMOOTH",
"433 -14 OFFCURVE",
"490 33 OFFCURVE",
"490 76 CURVE SMOOTH",
"490 87 OFFCURVE",
"487 93 OFFCURVE",
"479 93 CURVE SMOOTH",
"469 93 OFFCURVE",
"459 90 OFFCURVE",
"448 90 CURVE SMOOTH",
"414 90 OFFCURVE",
"365 174 OFFCURVE",
"300 343 CURVE"
);
},
{
closed = 1;
nodes = (
"160 148 LINE",
"178 180 OFFCURVE",
"211 222 OFFCURVE",
"230 247 CURVE",
"249 269 LINE",
"307 318 OFFCURVE",
"376 382 OFFCURVE",
"420 382 CURVE SMOOTH",
"430 382 OFFCURVE",
"438 377 OFFCURVE",
"447 368 CURVE SMOOTH",
"455 360 OFFCURVE",
"461 357 OFFCURVE",
"468 357 CURVE SMOOTH",
"490 357 OFFCURVE",
"527 398 OFFCURVE",
"527 450 CURVE SMOOTH",
"527 476 OFFCURVE",
"510 490 OFFCURVE",
"478 490 CURVE SMOOTH",
"362 490 OFFCURVE",
"225 335 OFFCURVE",
"166 231 CURVE",
"123 169 LINE"
);
},
{
closed = 1;
nodes = (
"48 75 LINE SMOOTH",
"38 -10 OFFCURVE",
"45 -14 OFFCURVE",
"69 -14 CURVE SMOOTH",
"104 -14 OFFCURVE",
"157 6 OFFCURVE",
"158 34 CURVE SMOOTH",
"164 149 LINE",
"168 188 OFFCURVE",
"172 231 OFFCURVE",
"178 273 CURVE SMOOTH",
"218 560 LINE SMOOTH",
"224 600 OFFCURVE",
"225 628 OFFCURVE",
"225 648 CURVE SMOOTH",
"225 680 OFFCURVE",
"214 696 OFFCURVE",
"178 696 CURVE SMOOTH",
"108 696 LINE",
"108 620 OFFCURVE",
"103 545 OFFCURVE",
"94 469 CURVE SMOOTH"
);
}
);
width = 522;
},
{
associatedMasterId = "B0B60A8F-2DEB-4A58-A43B-60A0DADABD8F";
background = {
paths = (
{
closed = 1;
nodes = (
"188 261 OFFCURVE",
"406 370 OFFCURVE",
"453 370 CURVE SMOOTH",
"479 370 OFFCURVE",
"486 382 OFFCURVE",
"486 392 CURVE SMOOTH",
"486 414 OFFCURVE",
"454 477 OFFCURVE",
"426 477 CURVE SMOOTH",
"368 477 OFFCURVE",
"177 318 OFFCURVE",
"177 262 CURVE",
"181 188 LINE"
);
}
);
};
hints = (
{
origin = "{2, 16}";
type = Corner;
name = _corner.serif;
}
);
layerId = "94C38701-C5DC-4379-B114-6C70829517C9";
name = "Apr 6 21, 10:55";
paths = (
{
closed = 1;
nodes = (
"215 264 LINE",
"264 125 OFFCURVE",
"325 -14 OFFCURVE",
"386 -14 CURVE SMOOTH",
"425 -14 OFFCURVE",
"482 33 OFFCURVE",
"482 76 CURVE SMOOTH",
"482 87 OFFCURVE",
"479 93 OFFCURVE",
"471 93 CURVE SMOOTH",
"461 93 OFFCURVE",
"451 90 OFFCURVE",
"440 90 CURVE SMOOTH",
"406 90 OFFCURVE",
"357 174 OFFCURVE",
"292 343 CURVE"
);
},
{
closed = 1;
nodes = (
"150 34 LINE",
"164 147 OFFCURVE",
"203 222 OFFCURVE",
"232 259 CURVE",
"269 269 LINE",
"297 318 OFFCURVE",
"331 382 OFFCURVE",
"402 382 CURVE SMOOTH",
"412 382 OFFCURVE",
"420 377 OFFCURVE",
"429 368 CURVE SMOOTH",
"437 360 OFFCURVE",
"443 357 OFFCURVE",
"450 357 CURVE SMOOTH",
"472 357 OFFCURVE",
"509 398 OFFCURVE",
"509 450 CURVE SMOOTH",
"509 476 OFFCURVE",
"492 490 OFFCURVE",
"460 490 CURVE SMOOTH",
"345 490 OFFCURVE",
"214 398 OFFCURVE",
"125 153 CURVE"
);
},
{
closed = 1;
nodes = (
"40 75 LINE SMOOTH",
"30 -10 OFFCURVE",
"37 -14 OFFCURVE",
"61 -14 CURVE SMOOTH",
"96 -14 OFFCURVE",
"150 6 OFFCURVE",
"150 34 CURVE SMOOTH",
"150 140 LINE",
"143 200 LINE",
"197 495 LINE SMOOTH",
"208 557 OFFCURVE",
"217 608 OFFCURVE",
"217 628 CURVE SMOOTH",
"217 660 OFFCURVE",
"196 696 OFFCURVE",
"170 696 CURVE SMOOTH",
"100 696 LINE",
"100 620 OFFCURVE",
"95 545 OFFCURVE",
"86 469 CURVE SMOOTH"
);
}
);
width = 504;
},
{
associatedMasterId = "B0B60A8F-2DEB-4A58-A43B-60A0DADABD8F";
background = {
paths = (
{
closed = 1;
nodes = (
"188 261 OFFCURVE",
"406 370 OFFCURVE",
"453 370 CURVE SMOOTH",
"479 370 OFFCURVE",
"486 382 OFFCURVE",
"486 392 CURVE SMOOTH",
"486 414 OFFCURVE",
"454 477 OFFCURVE",
"426 477 CURVE SMOOTH",
"368 477 OFFCURVE",
"177 318 OFFCURVE",
"177 262 CURVE",
"181 188 LINE"
);
}
);
};
components = (
{
name = l;
}
);
layerId = "1B78EB43-E46F-447A-B377-B7BC6B2AF45E";
name = "Apr 6 21, 13:16";
paths = (
{
closed = 1;
nodes = (
"210 315 OFFCURVE",
"205 303 OFFCURVE",
"205 289 CURVE SMOOTH",
"205 268 OFFCURVE",
"213 243 OFFCURVE",
"219 227 CURVE SMOOTH",
"267 113 OFFCURVE",
"328 -11 OFFCURVE",
"386 -11 CURVE SMOOTH",
"425 -11 OFFCURVE",
"482 36 OFFCURVE",
"482 79 CURVE SMOOTH",
"482 90 OFFCURVE",
"479 96 OFFCURVE",
"471 96 CURVE SMOOTH",
"461 96 OFFCURVE",
"451 93 OFFCURVE",
"440 93 CURVE SMOOTH",
"405 93 OFFCURVE",
"351 185 OFFCURVE",
"290 342 CURVE",
"285 296 LINE",
"310 339 OFFCURVE",
"344 384 OFFCURVE",
"399 384 CURVE SMOOTH",
"421 384 OFFCURVE",
"433 362 OFFCURVE",
"450 362 CURVE SMOOTH",
"472 362 OFFCURVE",
"504 403 OFFCURVE",
"504 455 CURVE SMOOTH",
"504 481 OFFCURVE",
"492 490 OFFCURVE",
"460 490 CURVE SMOOTH",
"359 490 OFFCURVE",
"271 416 OFFCURVE",
"219 330 CURVE SMOOTH"
);
}
);
width = 504;
}
);
leftMetricsKey = l;
unicode = 006B;
},
{
glyphname = l;
lastChange = "2021-04-06 10:05:09 +0000";
layers = (
{
background = {
paths = (
{
closed = 1;
nodes = (
"102 707 OFFCURVE",
"80 707 OFFCURVE",
"70 707 CURVE",
"62 707 OFFCURVE",
"52 705 OFFCURVE",
"50 687 CURVE SMOOTH",
"46 643 OFFCURVE",
"11 235 OFFCURVE",
"-1 124 CURVE SMOOTH",
"27 42 OFFCURVE",
"79 -1 OFFCURVE",
"149 -1 CURVE SMOOTH",
"160 -1 OFFCURVE",
"166 4 OFFCURVE",
"171 18 CURVE SMOOTH",
"175 30 OFFCURVE",
"185 61 OFFCURVE",
"188 71 CURVE SMOOTH",
"195 91 OFFCURVE",
"184 93 OFFCURVE",
"175 93 CURVE SMOOTH",
"163 93 OFFCURVE",
"123 93 OFFCURVE",
"117 93 CURVE SMOOTH",
"104 93 OFFCURVE",
"101 101 OFFCURVE",
"102 112 CURVE SMOOTH",
"116 283 OFFCURVE",
"155 643 OFFCURVE",
"160 687 CURVE SMOOTH",
"162 705 OFFCURVE",
"153 707 OFFCURVE",
"144 707 CURVE"
);
}
);
};
hints = (
{
origin = "{0, 6}";
type = Corner;
name = _corner.serif;
},
{
origin = "{0, 17}";
type = Corner;
name = _corner.serif;
}
);
layerId = "B0B60A8F-2DEB-4A58-A43B-60A0DADABD8F";
paths = (
{
closed = 1;
nodes = (
"47 172 OFFCURVE",
"40 104 OFFCURVE",
"39 59 CURVE SMOOTH",
"38 20 OFFCURVE",
"52 -14 OFFCURVE",
"76 -14 CURVE SMOOTH",
"146 -14 LINE",
"150 82 OFFCURVE",
"157 177 OFFCURVE",
"170 273 CURVE SMOOTH",
"202 503 LINE SMOOTH",
"210 558 OFFCURVE",
"217 608 OFFCURVE",
"217 628 CURVE SMOOTH",
"217 660 OFFCURVE",
"193 696 OFFCURVE",
"170 696 CURVE SMOOTH",
"100 696 LINE",
"100 620 OFFCURVE",
"96 545 OFFCURVE",
"86 469 CURVE SMOOTH",
"55 233 LINE SMOOTH"
);
}
);
width = 235;
}
);
unicode = 006C;
},
{
glyphname = m;
lastChange = "2021-04-06 10:05:04 +0000";
layers = (
{
background = {
paths = (
{
closed = 1;
nodes = (
"363 13 OFFCURVE",
"371 0 OFFCURVE",
"395 0 CURVE SMOOTH",
"412 0 OFFCURVE",
"422 0 OFFCURVE",
"447 0 CURVE SMOOTH",
"464 0 OFFCURVE",
"467 14 OFFCURVE",
"469 33 CURVE SMOOTH",
"497 326 LINE SMOOTH",
"505 411 OFFCURVE",
"442 483 OFFCURVE",
"356 483 CURVE SMOOTH",
"284 483 OFFCURVE",
"209 418 OFFCURVE",
"188 399 CURVE",
"187 399 OFFCURVE",
"184 399 OFFCURVE",
"183 399 CURVE",
"183 230 LINE",
"190 230 LINE",
"196 307 OFFCURVE",
"279 426 OFFCURVE",
"334 426 CURVE SMOOTH",
"365 426 OFFCURVE",
"403 382 OFFCURVE",
"399 341 CURVE SMOOTH",
"391 272 OFFCURVE",
"379 150 OFFCURVE",
"368 55 CURVE SMOOTH"
);
},
{
closed = 1;
nodes = (
"20 395 OFFCURVE",
"27 388 OFFCURVE",
"46 388 CURVE SMOOTH",
"82 388 LINE SMOOTH",
"100 388 OFFCURVE",
"107 381 OFFCURVE",
"105 358 CURVE SMOOTH",
"99 291 OFFCURVE",
"87 188 OFFCURVE",
"77 98 CURVE SMOOTH",
"69 28 OFFCURVE",
"63 -2 OFFCURVE",
"89 -2 CURVE SMOOTH",
"113 -2 OFFCURVE",
"174 46 OFFCURVE",
"181 129 CURVE SMOOTH",
"186 195 OFFCURVE",
"205 374 OFFCURVE",
"205 386 CURVE",
"183 399 LINE",
"183 420 OFFCURVE",
"149 477 OFFCURVE",
"74 477 CURVE SMOOTH",
"60 477 OFFCURVE",
"47 480 OFFCURVE",
"40 458 CURVE SMOOTH",
"25 410 LINE SMOOTH"
);
},
{
closed = 1;
nodes = (
"5 395 OFFCURVE",
"12 388 OFFCURVE",
"31 388 CURVE SMOOTH",
"67 388 LINE SMOOTH",
"85 388 OFFCURVE",
"92 381 OFFCURVE",
"90 358 CURVE SMOOTH",
"84 291 OFFCURVE",
"72 188 OFFCURVE",
"62 98 CURVE SMOOTH",
"54 28 OFFCURVE",
"48 -2 OFFCURVE",
"74 -2 CURVE SMOOTH",
"98 -2 OFFCURVE",
"159 46 OFFCURVE",
"166 129 CURVE SMOOTH",
"171 195 OFFCURVE",
"190 374 OFFCURVE",
"190 386 CURVE",
"168 399 LINE",
"168 420 OFFCURVE",
"134 477 OFFCURVE",
"59 477 CURVE SMOOTH",
"45 477 OFFCURVE",
"32 480 OFFCURVE",
"25 458 CURVE SMOOTH",
"10 410 LINE SMOOTH"
);
},
{
closed = 1;
nodes = (
"5 395 OFFCURVE",
"12 388 OFFCURVE",
"31 388 CURVE SMOOTH",
"67 388 LINE SMOOTH",
"85 388 OFFCURVE",
"92 381 OFFCURVE",
"90 358 CURVE SMOOTH",
"84 291 OFFCURVE",
"72 188 OFFCURVE",
"62 98 CURVE SMOOTH",
"54 28 OFFCURVE",
"48 -2 OFFCURVE",
"74 -2 CURVE SMOOTH",
"98 -2 OFFCURVE",
"159 46 OFFCURVE",
"166 129 CURVE SMOOTH",
"171 195 OFFCURVE",
"190 374 OFFCURVE",
"190 386 CURVE",
"168 399 LINE",
"168 420 OFFCURVE",
"134 477 OFFCURVE",
"59 477 CURVE SMOOTH",
"45 477 OFFCURVE",
"32 480 OFFCURVE",
"25 458 CURVE SMOOTH",
"10 410 LINE SMOOTH"
);
},
{
closed = 1;
nodes = (
"605 13 OFFCURVE",
"613 0 OFFCURVE",
"637 0 CURVE SMOOTH",
"654 0 OFFCURVE",
"664 0 OFFCURVE",
"689 0 CURVE SMOOTH",
"706 0 OFFCURVE",
"709 14 OFFCURVE",
"711 33 CURVE SMOOTH",
"739 326 LINE SMOOTH",
"747 411 OFFCURVE",
"684 483 OFFCURVE",
"623 483 CURVE SMOOTH",
"551 483 OFFCURVE",
"469 386 OFFCURVE",
"453 367 CURVE",
"459 194 LINE",
"465 271 OFFCURVE",
"538 426 OFFCURVE",
"593 426 CURVE SMOOTH",
"624 426 OFFCURVE",
"644 390 OFFCURVE",
"641 355 CURVE SMOOTH",
"633 280 OFFCURVE",
"621 150 OFFCURVE",
"610 55 CURVE SMOOTH"
);
},
{
closed = 1;
nodes = (
"605 13 OFFCURVE",
"613 0 OFFCURVE",
"637 0 CURVE SMOOTH",
"654 0 OFFCURVE",
"664 0 OFFCURVE",
"689 0 CURVE SMOOTH",
"706 0 OFFCURVE",
"709 14 OFFCURVE",
"711 33 CURVE SMOOTH",
"739 326 LINE SMOOTH",
"747 411 OFFCURVE",
"684 483 OFFCURVE",
"623 483 CURVE SMOOTH",
"551 483 OFFCURVE",
"469 386 OFFCURVE",
"453 367 CURVE",
"459 194 LINE",
"465 271 OFFCURVE",
"538 426 OFFCURVE",
"593 426 CURVE SMOOTH",
"624 426 OFFCURVE",
"644 390 OFFCURVE",
"641 355 CURVE SMOOTH",
"633 280 OFFCURVE",
"621 150 OFFCURVE",
"610 55 CURVE SMOOTH"
);
}
);
};
guideLines = (
{
position = "{158, 267}";
}
);
hints = (
{
origin = "{1, 9}";
type = Corner;
name = _corner.serif;
},
{
origin = "{2, 0}";
type = Corner;
name = _corner.serif;
}
);
layerId = "B0B60A8F-2DEB-4A58-A43B-60A0DADABD8F";
paths = (
{
closed = 1;
nodes = (
"385 -14 OFFCURVE",
"444 3 OFFCURVE",
"446 34 CURVE",
"462 202 LINE",
"429 190 LINE",
"461 309 OFFCURVE",
"483 356 OFFCURVE",
"483 406 CURVE SMOOTH",
"483 448 OFFCURVE",
"469 490 OFFCURVE",
"403 490 CURVE SMOOTH",
"333 490 OFFCURVE",
"205 406 OFFCURVE",
"124 175 CURVE",
"150 34 LINE",
"172 247 OFFCURVE",
"317 380 OFFCURVE",
"355 380 CURVE SMOOTH",
"369 380 OFFCURVE",
"376 371 OFFCURVE",
"376 352 CURVE SMOOTH",
"376 325 OFFCURVE",
"372 300 OFFCURVE",
"367 273 CURVE SMOOTH",
"349 170 LINE SMOOTH",
"333 76 OFFCURVE",
"330 37 OFFCURVE",
"330 17 CURVE SMOOTH",
"330 -6 OFFCURVE",
"336 -14 OFFCURVE",
"362 -14 CURVE SMOOTH"
);
},
{
closed = 1;
nodes = (
"160 191 LINE",
"134 199 LINE",
"154 267 LINE SMOOTH",
"177 344 OFFCURVE",
"192 392 OFFCURVE",
"192 419 CURVE SMOOTH",
"192 456 OFFCURVE",
"181 491 OFFCURVE",
"153 491 CURVE SMOOTH",
"83 491 LINE",
"39 75 LINE SMOOTH",
"30 -10 OFFCURVE",
"35 -14 OFFCURVE",
"61 -14 CURVE SMOOTH",
"77 -14 OFFCURVE",
"148 6 OFFCURVE",
"150 34 CURVE SMOOTH"
);
},
{
closed = 1;
nodes = (
"728 -10 LINE",
"776 303 LINE SMOOTH",
"781 337 OFFCURVE",
"787 369 OFFCURVE",
"787 397 CURVE SMOOTH",
"787 455 OFFCURVE",
"762 490 OFFCURVE",
"701 490 CURVE SMOOTH",
"627 490 OFFCURVE",
"503 406 OFFCURVE",
"422 175 CURVE",
"445 34 LINE",
"467 247 OFFCURVE",
"615 380 OFFCURVE",
"649 380 CURVE SMOOTH",
"662 380 OFFCURVE",
"671 369 OFFCURVE",
"671 349 CURVE SMOOTH",
"671 322 OFFCURVE",
"666 301 OFFCURVE",
"662 274 CURVE SMOOTH",
"645 170 LINE SMOOTH",
"639 133 OFFCURVE",
"632 72 OFFCURVE",
"632 45 CURVE SMOOTH",
"632 29 OFFCURVE",
"638 -10 OFFCURVE",
"655 -10 CURVE SMOOTH"
);
}
);
width = 823;
},
{
associatedMasterId = "B0B60A8F-2DEB-4A58-A43B-60A0DADABD8F";
background = {
paths = (
{
closed = 1;
nodes = (
"363 13 OFFCURVE",
"371 0 OFFCURVE",
"395 0 CURVE SMOOTH",
"412 0 OFFCURVE",
"422 0 OFFCURVE",
"447 0 CURVE SMOOTH",
"464 0 OFFCURVE",
"467 14 OFFCURVE",
"469 33 CURVE SMOOTH",
"497 326 LINE SMOOTH",
"505 411 OFFCURVE",
"442 483 OFFCURVE",
"356 483 CURVE SMOOTH",
"284 483 OFFCURVE",
"209 418 OFFCURVE",
"188 399 CURVE",
"187 399 OFFCURVE",
"184 399 OFFCURVE",
"183 399 CURVE",
"183 230 LINE",
"190 230 LINE",
"196 307 OFFCURVE",
"279 426 OFFCURVE",
"334 426 CURVE SMOOTH",
"365 426 OFFCURVE",
"403 382 OFFCURVE",
"399 341 CURVE SMOOTH",
"391 272 OFFCURVE",
"379 150 OFFCURVE",
"368 55 CURVE SMOOTH"
);
},
{
closed = 1;
nodes = (
"20 395 OFFCURVE",
"27 388 OFFCURVE",
"46 388 CURVE SMOOTH",
"82 388 LINE SMOOTH",
"100 388 OFFCURVE",
"107 381 OFFCURVE",
"105 358 CURVE SMOOTH",
"99 291 OFFCURVE",
"87 188 OFFCURVE",
"77 98 CURVE SMOOTH",
"69 28 OFFCURVE",
"63 -2 OFFCURVE",
"89 -2 CURVE SMOOTH",
"113 -2 OFFCURVE",
"174 46 OFFCURVE",
"181 129 CURVE SMOOTH",
"186 195 OFFCURVE",
"205 374 OFFCURVE",
"205 386 CURVE",
"183 399 LINE",
"183 420 OFFCURVE",
"149 477 OFFCURVE",
"74 477 CURVE SMOOTH",
"60 477 OFFCURVE",
"47 480 OFFCURVE",
"40 458 CURVE SMOOTH",
"25 410 LINE SMOOTH"
);
},
{
closed = 1;
nodes = (
"5 395 OFFCURVE",
"12 388 OFFCURVE",
"31 388 CURVE SMOOTH",
"67 388 LINE SMOOTH",
"85 388 OFFCURVE",
"92 381 OFFCURVE",
"90 358 CURVE SMOOTH",
"84 291 OFFCURVE",
"72 188 OFFCURVE",
"62 98 CURVE SMOOTH",
"54 28 OFFCURVE",
"48 -2 OFFCURVE",
"74 -2 CURVE SMOOTH",
"98 -2 OFFCURVE",
"159 46 OFFCURVE",
"166 129 CURVE SMOOTH",
"171 195 OFFCURVE",
"190 374 OFFCURVE",
"190 386 CURVE",
"168 399 LINE",
"168 420 OFFCURVE",
"134 477 OFFCURVE",
"59 477 CURVE SMOOTH",
"45 477 OFFCURVE",
"32 480 OFFCURVE",
"25 458 CURVE SMOOTH",
"10 410 LINE SMOOTH"
);
},
{
closed = 1;
nodes = (
"5 395 OFFCURVE",
"12 388 OFFCURVE",
"31 388 CURVE SMOOTH",
"67 388 LINE SMOOTH",
"85 388 OFFCURVE",
"92 381 OFFCURVE",
"90 358 CURVE SMOOTH",
"84 291 OFFCURVE",
"72 188 OFFCURVE",
"62 98 CURVE SMOOTH",
"54 28 OFFCURVE",
"48 -2 OFFCURVE",
"74 -2 CURVE SMOOTH",
"98 -2 OFFCURVE",
"159 46 OFFCURVE",
"166 129 CURVE SMOOTH",
"171 195 OFFCURVE",
"190 374 OFFCURVE",
"190 386 CURVE",
"168 399 LINE",
"168 420 OFFCURVE",
"134 477 OFFCURVE",
"59 477 CURVE SMOOTH",
"45 477 OFFCURVE",
"32 480 OFFCURVE",
"25 458 CURVE SMOOTH",
"10 410 LINE SMOOTH"
);
},
{
closed = 1;
nodes = (
"605 13 OFFCURVE",
"613 0 OFFCURVE",
"637 0 CURVE SMOOTH",
"654 0 OFFCURVE",
"664 0 OFFCURVE",
"689 0 CURVE SMOOTH",
"706 0 OFFCURVE",
"709 14 OFFCURVE",
"711 33 CURVE SMOOTH",
"739 326 LINE SMOOTH",
"747 411 OFFCURVE",
"684 483 OFFCURVE",
"623 483 CURVE SMOOTH",
"551 483 OFFCURVE",
"469 386 OFFCURVE",
"453 367 CURVE",
"459 194 LINE",
"465 271 OFFCURVE",
"538 426 OFFCURVE",
"593 426 CURVE SMOOTH",
"624 426 OFFCURVE",
"644 390 OFFCURVE",
"641 355 CURVE SMOOTH",
"633 280 OFFCURVE",
"621 150 OFFCURVE",
"610 55 CURVE SMOOTH"
);
},
{
closed = 1;
nodes = (
"605 13 OFFCURVE",
"613 0 OFFCURVE",
"637 0 CURVE SMOOTH",
"654 0 OFFCURVE",
"664 0 OFFCURVE",
"689 0 CURVE SMOOTH",
"706 0 OFFCURVE",
"709 14 OFFCURVE",
"711 33 CURVE SMOOTH",
"739 326 LINE SMOOTH",
"747 411 OFFCURVE",
"684 483 OFFCURVE",
"623 483 CURVE SMOOTH",
"551 483 OFFCURVE",
"469 386 OFFCURVE",
"453 367 CURVE",
"459 194 LINE",
"465 271 OFFCURVE",
"538 426 OFFCURVE",
"593 426 CURVE SMOOTH",
"624 426 OFFCURVE",
"644 390 OFFCURVE",
"641 355 CURVE SMOOTH",
"633 280 OFFCURVE",
"621 150 OFFCURVE",
"610 55 CURVE SMOOTH"
);
}
);
};
guideLines = (
{
position = "{158, 267}";
}
);
hints = (
{
origin = "{1, 9}";
type = Corner;
name = _corner.serif;
},
{
origin = "{2, 0}";
type = Corner;
name = _corner.serif;
}
);
layerId = "29BD7B8C-7B83-459F-8C28-47522F7D0AA8";
name = "Apr 6 21, 09:43";
paths = (
{
closed = 1;
nodes = (
"385 -14 OFFCURVE",
"444 3 OFFCURVE",
"446 34 CURVE",
"462 202 LINE",
"429 190 LINE",
"461 309 OFFCURVE",
"483 356 OFFCURVE",
"483 397 CURVE SMOOTH",
"483 440 OFFCURVE",
"469 490 OFFCURVE",
"397 490 CURVE SMOOTH",
"333 490 OFFCURVE",
"205 406 OFFCURVE",
"124 175 CURVE",
"150 34 LINE",
"172 247 OFFCURVE",
"317 380 OFFCURVE",
"355 380 CURVE SMOOTH",
"369 380 OFFCURVE",
"376 371 OFFCURVE",
"376 352 CURVE SMOOTH",
"376 325 OFFCURVE",
"372 300 OFFCURVE",
"367 273 CURVE SMOOTH",
"349 170 LINE SMOOTH",
"333 76 OFFCURVE",
"330 37 OFFCURVE",
"330 17 CURVE SMOOTH",
"330 -6 OFFCURVE",
"336 -14 OFFCURVE",
"362 -14 CURVE SMOOTH"
);
},
{
closed = 1;
nodes = (
"160 191 LINE",
"134 199 LINE",
"154 267 LINE SMOOTH",
"177 344 OFFCURVE",
"192 392 OFFCURVE",
"192 419 CURVE SMOOTH",
"192 456 OFFCURVE",
"181 491 OFFCURVE",
"153 491 CURVE SMOOTH",
"83 491 LINE",
"39 75 LINE SMOOTH",
"30 -10 OFFCURVE",
"35 -14 OFFCURVE",
"61 -14 CURVE SMOOTH",
"77 -14 OFFCURVE",
"148 6 OFFCURVE",
"150 34 CURVE SMOOTH"
);
},
{
closed = 1;
nodes = (
"728 -16 LINE",
"776 303 LINE SMOOTH",
"781 337 OFFCURVE",
"787 369 OFFCURVE",
"787 389 CURVE SMOOTH",
"787 448 OFFCURVE",
"762 490 OFFCURVE",
"699 490 CURVE SMOOTH",
"627 490 OFFCURVE",
"503 406 OFFCURVE",
"422 175 CURVE",
"445 34 LINE",
"467 247 OFFCURVE",
"615 380 OFFCURVE",
"649 380 CURVE SMOOTH",
"662 380 OFFCURVE",
"671 369 OFFCURVE",
"671 349 CURVE SMOOTH",
"671 322 OFFCURVE",
"666 301 OFFCURVE",
"662 274 CURVE SMOOTH",
"645 170 LINE SMOOTH",
"639 133 OFFCURVE",
"632 66 OFFCURVE",
"632 39 CURVE SMOOTH",
"632 23 OFFCURVE",
"638 -16 OFFCURVE",
"655 -16 CURVE SMOOTH"
);
}
);
width = 819;
}
);
leftMetricsKey = n;
rightMetricsKey = n;
unicode = 006D;
},
{
glyphname = n;
lastChange = "2021-04-06 10:04:43 +0000";
layers = (
{
background = {
paths = (
{
closed = 1;
nodes = (
"135 475 OFFCURVE",
"104 475 OFFCURVE",
"92 475 CURVE",
"86 475 OFFCURVE",
"81 473 OFFCURVE",
"80 463 CURVE SMOOTH",
"75 411 OFFCURVE",
"58 235 OFFCURVE",
"48 98 CURVE SMOOTH",
"43 28 OFFCURVE",
"33 -2 OFFCURVE",
"59 -2 CURVE SMOOTH",
"83 -2 OFFCURVE",
"154 51 OFFCURVE",
"161 134 CURVE SMOOTH",
"173 282 OFFCURVE",
"185 411 OFFCURVE",
"191 464 CURVE SMOOTH",
"192 473 OFFCURVE",
"188 475 OFFCURVE",
"181 475 CURVE"
);
},
{
closed = 1;
nodes = (
"-21 390 OFFCURVE",
"-14 383 OFFCURVE",
"5 383 CURVE SMOOTH",
"54 383 LINE SMOOTH",
"72 383 OFFCURVE",
"80 381 OFFCURVE",
"78 358 CURVE SMOOTH",
"72 291 OFFCURVE",
"60 188 OFFCURVE",
"50 98 CURVE SMOOTH",
"42 28 OFFCURVE",
"33 -2 OFFCURVE",
"59 -2 CURVE SMOOTH",
"83 -2 OFFCURVE",
"144 46 OFFCURVE",
"151 129 CURVE SMOOTH",
"156 195 OFFCURVE",
"174 365 OFFCURVE",
"174 377 CURVE",
"152 404 LINE",
"152 425 OFFCURVE",
"109 477 OFFCURVE",
"34 477 CURVE SMOOTH",
"20 477 OFFCURVE",
"7 480 OFFCURVE",
"0 458 CURVE SMOOTH",
"-16 405 LINE SMOOTH"
);
},
{
closed = 1;
nodes = (
"334 13 OFFCURVE",
"342 0 OFFCURVE",
"366 0 CURVE SMOOTH",
"383 0 OFFCURVE",
"396 0 OFFCURVE",
"421 0 CURVE SMOOTH",
"438 0 OFFCURVE",
"441 14 OFFCURVE",
"443 33 CURVE SMOOTH",
"467 322 LINE SMOOTH",
"473 395 OFFCURVE",
"420 483 OFFCURVE",
"321 483 CURVE SMOOTH",
"267 483 OFFCURVE",
"186 446 OFFCURVE",
"143 424 CURVE",
"151 272 LINE",
"157 320 OFFCURVE",
"246 431 OFFCURVE",
"303 431 CURVE SMOOTH",
"327 431 OFFCURVE",
"369 392 OFFCURVE",
"366 347 CURVE SMOOTH",
"361 272 OFFCURVE",
"351 160 OFFCURVE",
"339 55 CURVE SMOOTH"
);
},
{
closed = 1;
nodes = (
"333 13 OFFCURVE",
"341 0 OFFCURVE",
"365 0 CURVE SMOOTH",
"382 0 OFFCURVE",
"392 0 OFFCURVE",
"417 0 CURVE SMOOTH",
"434 0 OFFCURVE",
"437 14 OFFCURVE",
"439 33 CURVE SMOOTH",
"467 326 LINE SMOOTH",
"475 411 OFFCURVE",
"412 483 OFFCURVE",
"326 483 CURVE SMOOTH",
"269 483 OFFCURVE",
"173 416 OFFCURVE",
"153 399 CURVE",
"160 230 LINE",
"166 307 OFFCURVE",
"249 426 OFFCURVE",
"304 426 CURVE SMOOTH",
"335 426 OFFCURVE",
"373 382 OFFCURVE",
"369 341 CURVE SMOOTH",
"361 272 OFFCURVE",
"349 150 OFFCURVE",
"338 55 CURVE SMOOTH"
);
}
);
};
guideLines = (
{
angle = 16.1206;
position = "{390, 307}";
},
{
angle = 27.5824;
position = "{390, 25}";
},
{
angle = 258.5842;
position = "{480, 303}";
},
{
angle = 258.5842;
position = "{354, 222}";
}
);
hints = (
{
origin = "{0, 9}";
type = Corner;
name = _corner.serif;
},
{
origin = "{1, 0}";
type = Corner;
name = _corner.serif;
}
);
layerId = "B0B60A8F-2DEB-4A58-A43B-60A0DADABD8F";
paths = (
{
closed = 1;
nodes = (
"160 191 LINE",
"134 199 LINE",
"154 267 LINE SMOOTH",
"177 344 OFFCURVE",
"192 392 OFFCURVE",
"192 419 CURVE SMOOTH",
"192 456 OFFCURVE",
"173 491 OFFCURVE",
"153 491 CURVE SMOOTH",
"83 491 LINE",
"36 75 LINE SMOOTH",
"26 -10 OFFCURVE",
"32 -14 OFFCURVE",
"58 -14 CURVE SMOOTH",
"74 -14 OFFCURVE",
"145 6 OFFCURVE",
"147 34 CURVE SMOOTH"
);
},
{
closed = 1;
nodes = (
"428 -10 LINE",
"476 303 LINE SMOOTH",
"481 337 OFFCURVE",
"487 369 OFFCURVE",
"487 403 CURVE SMOOTH",
"487 454 OFFCURVE",
"462 490 OFFCURVE",
"403 490 CURVE SMOOTH",
"327 490 OFFCURVE",
"203 406 OFFCURVE",
"122 175 CURVE",
"147 34 LINE",
"169 247 OFFCURVE",
"315 380 OFFCURVE",
"349 380 CURVE SMOOTH",
"362 380 OFFCURVE",
"371 369 OFFCURVE",
"371 349 CURVE SMOOTH",
"371 322 OFFCURVE",
"366 301 OFFCURVE",
"362 274 CURVE SMOOTH",
"345 170 LINE SMOOTH",
"339 133 OFFCURVE",
"332 72 OFFCURVE",
"332 45 CURVE SMOOTH",
"332 29 OFFCURVE",
"338 -10 OFFCURVE",
"355 -10 CURVE SMOOTH"
);
}
);
width = 523;
},
{
associatedMasterId = "B0B60A8F-2DEB-4A58-A43B-60A0DADABD8F";
background = {
paths = (
{
closed = 1;
nodes = (
"160 475 OFFCURVE",
"129 475 OFFCURVE",
"117 475 CURVE",
"111 475 OFFCURVE",
"106 473 OFFCURVE",
"105 463 CURVE SMOOTH",
"100 411 OFFCURVE",
"83 235 OFFCURVE",
"73 98 CURVE SMOOTH",
"68 28 OFFCURVE",
"58 -2 OFFCURVE",
"84 -2 CURVE SMOOTH",
"108 -2 OFFCURVE",
"179 51 OFFCURVE",
"186 134 CURVE SMOOTH",
"198 282 OFFCURVE",
"210 411 OFFCURVE",
"216 464 CURVE SMOOTH",
"217 473 OFFCURVE",
"213 475 OFFCURVE",
"206 475 CURVE"
);
},
{
closed = 1;
nodes = (
"4 390 OFFCURVE",
"11 383 OFFCURVE",
"30 383 CURVE SMOOTH",
"79 383 LINE SMOOTH",
"97 383 OFFCURVE",
"105 381 OFFCURVE",
"103 358 CURVE SMOOTH",
"97 291 OFFCURVE",
"85 188 OFFCURVE",
"75 98 CURVE SMOOTH",
"67 28 OFFCURVE",
"58 -2 OFFCURVE",
"84 -2 CURVE SMOOTH",
"108 -2 OFFCURVE",
"169 46 OFFCURVE",
"176 129 CURVE SMOOTH",
"181 195 OFFCURVE",
"199 365 OFFCURVE",
"199 377 CURVE",
"177 404 LINE",
"177 425 OFFCURVE",
"134 477 OFFCURVE",
"59 477 CURVE SMOOTH",
"45 477 OFFCURVE",
"32 480 OFFCURVE",
"25 458 CURVE SMOOTH",
"9 405 LINE SMOOTH"
);
},
{
closed = 1;
nodes = (
"359 13 OFFCURVE",
"367 0 OFFCURVE",
"391 0 CURVE SMOOTH",
"408 0 OFFCURVE",
"421 0 OFFCURVE",
"446 0 CURVE SMOOTH",
"463 0 OFFCURVE",
"466 14 OFFCURVE",
"468 33 CURVE SMOOTH",
"492 322 LINE SMOOTH",
"498 395 OFFCURVE",
"445 483 OFFCURVE",
"346 483 CURVE SMOOTH",
"292 483 OFFCURVE",
"211 446 OFFCURVE",
"168 424 CURVE",
"176 272 LINE",
"182 320 OFFCURVE",
"271 431 OFFCURVE",
"328 431 CURVE SMOOTH",
"352 431 OFFCURVE",
"394 392 OFFCURVE",
"391 347 CURVE SMOOTH",
"386 272 OFFCURVE",
"376 160 OFFCURVE",
"364 55 CURVE SMOOTH"
);
},
{
closed = 1;
nodes = (
"358 13 OFFCURVE",
"366 0 OFFCURVE",
"390 0 CURVE SMOOTH",
"407 0 OFFCURVE",
"417 0 OFFCURVE",
"442 0 CURVE SMOOTH",
"459 0 OFFCURVE",
"462 14 OFFCURVE",
"464 33 CURVE SMOOTH",
"492 326 LINE SMOOTH",
"500 411 OFFCURVE",
"437 483 OFFCURVE",
"351 483 CURVE SMOOTH",
"294 483 OFFCURVE",
"198 416 OFFCURVE",
"178 399 CURVE",
"185 230 LINE",
"191 307 OFFCURVE",
"274 426 OFFCURVE",
"329 426 CURVE SMOOTH",
"360 426 OFFCURVE",
"398 382 OFFCURVE",
"394 341 CURVE SMOOTH",
"386 272 OFFCURVE",
"374 150 OFFCURVE",
"363 55 CURVE SMOOTH"
);
}
);
};
guideLines = (
{
angle = 16.1206;
position = "{415, 307}";
},
{
angle = 27.5824;
position = "{415, 25}";
},
{
angle = 82;
locked = 1;
position = "{173, 219}";
},
{
angle = 82;
locked = 1;
position = "{70, 219}";
}
);
layerId = "8600F8D2-8627-43CB-A856-BADFD23AB7A7";
name = "Apr 5 21, 10:10";
paths = (
{
closed = 1;
nodes = (
"142 0 LINE",
"174 221 LINE",
"171 229 LINE",
"179 269 OFFCURVE",
"205 425 OFFCURVE",
"205 444 CURVE SMOOTH",
"205 467 OFFCURVE",
"196 491 OFFCURVE",
"178 491 CURVE SMOOTH",
"151 491 OFFCURVE",
"81 451 OFFCURVE",
"81 417 CURVE SMOOTH",
"81 395 OFFCURVE",
"93 381 OFFCURVE",
"88 347 CURVE SMOOTH",
"39 0 LINE"
);
},
{
closed = 1;
nodes = (
"408 -10 OFFCURVE",
"466 30 OFFCURVE",
"466 64 CURVE SMOOTH",
"466 86 OFFCURVE",
"458 100 OFFCURVE",
"464 134 CURVE SMOOTH",
"497 334 LINE SMOOTH",
"510 413 OFFCURVE",
"474 490 OFFCURVE",
"387 490 CURVE SMOOTH",
"319 490 OFFCURVE",
"283 448 OFFCURVE",
"182 269 CURVE SMOOTH",
"129 175 LINE",
"129 77 LINE",
"262 314 LINE SMOOTH",
"297 376 OFFCURVE",
"321 410 OFFCURVE",
"351 410 CURVE SMOOTH",
"380 410 OFFCURVE",
"406 359 OFFCURVE",
"397 309 CURVE SMOOTH",
"367 133 LINE SMOOTH",
"360 93 OFFCURVE",
"355 56 OFFCURVE",
"355 37 CURVE SMOOTH",
"355 14 OFFCURVE",
"364 -10 OFFCURVE",
"382 -10 CURVE SMOOTH"
);
}
);
width = 536;
},
{
associatedMasterId = "B0B60A8F-2DEB-4A58-A43B-60A0DADABD8F";
background = {
paths = (
{
closed = 1;
nodes = (
"135 475 OFFCURVE",
"104 475 OFFCURVE",
"92 475 CURVE",
"86 475 OFFCURVE",
"81 473 OFFCURVE",
"80 463 CURVE SMOOTH",
"75 411 OFFCURVE",
"58 235 OFFCURVE",
"48 98 CURVE SMOOTH",
"43 28 OFFCURVE",
"33 -2 OFFCURVE",
"59 -2 CURVE SMOOTH",
"83 -2 OFFCURVE",
"154 51 OFFCURVE",
"161 134 CURVE SMOOTH",
"173 282 OFFCURVE",
"185 411 OFFCURVE",
"191 464 CURVE SMOOTH",
"192 473 OFFCURVE",
"188 475 OFFCURVE",
"181 475 CURVE"
);
},
{
closed = 1;
nodes = (
"-21 390 OFFCURVE",
"-14 383 OFFCURVE",
"5 383 CURVE SMOOTH",
"54 383 LINE SMOOTH",
"72 383 OFFCURVE",
"80 381 OFFCURVE",
"78 358 CURVE SMOOTH",
"72 291 OFFCURVE",
"60 188 OFFCURVE",
"50 98 CURVE SMOOTH",
"42 28 OFFCURVE",
"33 -2 OFFCURVE",
"59 -2 CURVE SMOOTH",
"83 -2 OFFCURVE",
"144 46 OFFCURVE",
"151 129 CURVE SMOOTH",
"156 195 OFFCURVE",
"174 365 OFFCURVE",
"174 377 CURVE",
"152 404 LINE",
"152 425 OFFCURVE",
"109 477 OFFCURVE",
"34 477 CURVE SMOOTH",
"20 477 OFFCURVE",
"7 480 OFFCURVE",
"0 458 CURVE SMOOTH",
"-16 405 LINE SMOOTH"
);
},
{
closed = 1;
nodes = (
"334 13 OFFCURVE",
"342 0 OFFCURVE",
"366 0 CURVE SMOOTH",
"383 0 OFFCURVE",
"396 0 OFFCURVE",
"421 0 CURVE SMOOTH",
"438 0 OFFCURVE",
"441 14 OFFCURVE",
"443 33 CURVE SMOOTH",
"467 322 LINE SMOOTH",
"473 395 OFFCURVE",
"420 483 OFFCURVE",
"321 483 CURVE SMOOTH",
"267 483 OFFCURVE",
"186 446 OFFCURVE",
"143 424 CURVE",
"151 272 LINE",
"157 320 OFFCURVE",
"246 431 OFFCURVE",
"303 431 CURVE SMOOTH",
"327 431 OFFCURVE",
"369 392 OFFCURVE",
"366 347 CURVE SMOOTH",
"361 272 OFFCURVE",
"351 160 OFFCURVE",
"339 55 CURVE SMOOTH"
);
},
{
closed = 1;
nodes = (
"333 13 OFFCURVE",
"341 0 OFFCURVE",
"365 0 CURVE SMOOTH",
"382 0 OFFCURVE",
"392 0 OFFCURVE",
"417 0 CURVE SMOOTH",
"434 0 OFFCURVE",
"437 14 OFFCURVE",
"439 33 CURVE SMOOTH",
"467 326 LINE SMOOTH",
"475 411 OFFCURVE",
"412 483 OFFCURVE",
"326 483 CURVE SMOOTH",
"269 483 OFFCURVE",
"173 416 OFFCURVE",
"153 399 CURVE",
"160 230 LINE",
"166 307 OFFCURVE",
"249 426 OFFCURVE",
"304 426 CURVE SMOOTH",
"335 426 OFFCURVE",
"373 382 OFFCURVE",
"369 341 CURVE SMOOTH",
"361 272 OFFCURVE",
"349 150 OFFCURVE",
"338 55 CURVE SMOOTH"
);
}
);
};
guideLines = (
{
angle = 16.1206;
position = "{390, 307}";
},
{
angle = 27.5824;
position = "{390, 25}";
},
{
angle = 258.5842;
position = "{480, 303}";
},
{
angle = 258.5842;
position = "{354, 222}";
}
);
layerId = "492DDB55-C0DE-4FBE-9A62-E0A348548ED7";
name = "Apr 6 21, 10:32";
paths = (
{
closed = 1;
nodes = (
"128 8 OFFCURVE",
"146 20 OFFCURVE",
"147 34 CURVE SMOOTH",
"150 70 LINE",
"184 262 OFFCURVE",
"317 380 OFFCURVE",
"349 380 CURVE SMOOTH",
"362 380 OFFCURVE",
"371 369 OFFCURVE",
"371 349 CURVE SMOOTH",
"371 322 OFFCURVE",
"366 301 OFFCURVE",
"362 274 CURVE SMOOTH",
"345 170 LINE SMOOTH",
"339 133 OFFCURVE",
"332 66 OFFCURVE",
"332 39 CURVE SMOOTH",
"332 30 OFFCURVE",
"334 13 OFFCURVE",
"339 0 CURVE",
"109 0 LINE"
);
}
);
width = 523;
}
);
unicode = 006E;
},
{
glyphname = o;
lastChange = "2021-04-06 10:12:55 +0000";
layers = (
{
background = {
paths = (
{
closed = 1;
nodes = (
"182 492 OFFCURVE",
"10 323 OFFCURVE",
"10 148 CURVE SMOOTH",
"10 43 OFFCURVE",
"109 -4 OFFCURVE",
"201 -4 CURVE SMOOTH",
"276 -4 OFFCURVE",
"389 41 OFFCURVE",
"389 134 CURVE SMOOTH",
"389 158 OFFCURVE",
"371 190 OFFCURVE",
"353 190 CURVE SMOOTH",
"330 190 OFFCURVE",
"294 46 OFFCURVE",
"211 46 CURVE SMOOTH",
"167 46 OFFCURVE",
"113 94 OFFCURVE",
"113 129 CURVE SMOOTH",
"113 167 OFFCURVE",
"194 452 OFFCURVE",
"294 452 CURVE SMOOTH",
"318 452 OFFCURVE",
"332 419 OFFCURVE",
"332 408 CURVE SMOOTH",
"332 385 OFFCURVE",
"277 267 OFFCURVE",
"126 267 CURVE",
"123 224 LINE",
"200 241 OFFCURVE",
"276 252 OFFCURVE",
"341 264 CURVE SMOOTH",
"379 271 OFFCURVE",
"416 345 OFFCURVE",
"416 383 CURVE SMOOTH",
"416 437 OFFCURVE",
"371 492 OFFCURVE",
"299 492 CURVE SMOOTH"
);
}
);
};
guideLines = (
{
angle = 84;
position = "{238, 238}";
}
);
layerId = "B0B60A8F-2DEB-4A58-A43B-60A0DADABD8F";
paths = (
{
closed = 1;
nodes = (
"86 -15 OFFCURVE",
"17 53 OFFCURVE",
"17 190 CURVE SMOOTH",
"17 356 OFFCURVE",
"131 491 OFFCURVE",
"277 491 CURVE SMOOTH",
"393 491 OFFCURVE",
"462 423 OFFCURVE",
"462 286 CURVE SMOOTH",
"462 120 OFFCURVE",
"348 -15 OFFCURVE",
"203 -15 CURVE SMOOTH"
);
},
{
closed = 1;
nodes = (
"171 416 OFFCURVE",
"132 324 OFFCURVE",
"132 201 CURVE SMOOTH",
"132 109 OFFCURVE",
"162 60 OFFCURVE",
"223 60 CURVE SMOOTH",
"308 60 OFFCURVE",
"347 152 OFFCURVE",
"347 275 CURVE SMOOTH",
"347 367 OFFCURVE",
"317 416 OFFCURVE",
"256 416 CURVE SMOOTH"
);
}
);
width = 479;
},
{
associatedMasterId = "B0B60A8F-2DEB-4A58-A43B-60A0DADABD8F";
background = {
paths = (
{
closed = 1;
nodes = (
"185 492 OFFCURVE",
"13 323 OFFCURVE",
"13 148 CURVE SMOOTH",
"13 43 OFFCURVE",
"112 -4 OFFCURVE",
"204 -4 CURVE SMOOTH",
"279 -4 OFFCURVE",
"392 41 OFFCURVE",
"392 134 CURVE SMOOTH",
"392 158 OFFCURVE",
"374 190 OFFCURVE",
"356 190 CURVE SMOOTH",
"333 190 OFFCURVE",
"297 46 OFFCURVE",
"214 46 CURVE SMOOTH",
"170 46 OFFCURVE",
"116 94 OFFCURVE",
"116 129 CURVE SMOOTH",
"116 167 OFFCURVE",
"197 452 OFFCURVE",
"297 452 CURVE SMOOTH",
"321 452 OFFCURVE",
"335 419 OFFCURVE",
"335 408 CURVE SMOOTH",
"335 385 OFFCURVE",
"280 267 OFFCURVE",
"129 267 CURVE",
"126 224 LINE",
"203 241 OFFCURVE",
"279 252 OFFCURVE",
"344 264 CURVE SMOOTH",
"382 271 OFFCURVE",
"419 345 OFFCURVE",
"419 383 CURVE SMOOTH",
"419 437 OFFCURVE",
"374 492 OFFCURVE",
"302 492 CURVE SMOOTH"
);
}
);
};
guideLines = (
{
position = "{222, 433}";
},
{
angle = 262;
position = "{233, 170}";
}
);
layerId = "9FE1E166-3154-4098-9290-4AC032F0A176";
name = "Mar 2 21, 10:33";
paths = (
{
closed = 1;
nodes = (
"347 -10 OFFCURVE",
"447 137 OFFCURVE",
"445 297 CURVE SMOOTH",
"443 403 OFFCURVE",
"386 490 OFFCURVE",
"278 490 CURVE SMOOTH",
"124 490 OFFCURVE",
"25 349 OFFCURVE",
"25 192 CURVE SMOOTH",
"25 63 OFFCURVE",
"84 -10 OFFCURVE",
"201 -10 CURVE SMOOTH"
);
},
{
closed = 1;
nodes = (
"155 58 OFFCURVE",
"122 124 OFFCURVE",
"122 243 CURVE SMOOTH",
"122 341 OFFCURVE",
"148 429 OFFCURVE",
"225 429 CURVE SMOOTH",
"308 429 OFFCURVE",
"343 343 OFFCURVE",
"343 244 CURVE SMOOTH",
"343 121 OFFCURVE",
"298 58 OFFCURVE",
"240 58 CURVE SMOOTH"
);
},
{
closed = 0;
nodes = (
"201 -10 LINE SMOOTH",
"347 -10 OFFCURVE",
"447 137 OFFCURVE",
"445 297 CURVE SMOOTH",
"443 403 OFFCURVE",
"386 490 OFFCURVE",
"278 490 CURVE SMOOTH"
);
},
{
closed = 0;
nodes = (
"225 429 LINE SMOOTH",
"308 429 OFFCURVE",
"343 343 OFFCURVE",
"343 244 CURVE SMOOTH",
"343 121 OFFCURVE",
"298 58 OFFCURVE",
"240 58 CURVE SMOOTH"
);
}
);
width = 468;
},
{
associatedMasterId = "B0B60A8F-2DEB-4A58-A43B-60A0DADABD8F";
background = {
paths = (
{
closed = 1;
nodes = (
"185 492 OFFCURVE",
"13 323 OFFCURVE",
"13 148 CURVE SMOOTH",
"13 43 OFFCURVE",
"112 -4 OFFCURVE",
"204 -4 CURVE SMOOTH",
"279 -4 OFFCURVE",
"392 41 OFFCURVE",
"392 134 CURVE SMOOTH",
"392 158 OFFCURVE",
"374 190 OFFCURVE",
"356 190 CURVE SMOOTH",
"333 190 OFFCURVE",
"297 46 OFFCURVE",
"214 46 CURVE SMOOTH",
"170 46 OFFCURVE",
"116 94 OFFCURVE",
"116 129 CURVE SMOOTH",
"116 167 OFFCURVE",
"197 452 OFFCURVE",
"297 452 CURVE SMOOTH",
"321 452 OFFCURVE",
"335 419 OFFCURVE",
"335 408 CURVE SMOOTH",
"335 385 OFFCURVE",
"280 267 OFFCURVE",
"129 267 CURVE",
"126 224 LINE",
"203 241 OFFCURVE",
"279 252 OFFCURVE",
"344 264 CURVE SMOOTH",
"382 271 OFFCURVE",
"419 345 OFFCURVE",
"419 383 CURVE SMOOTH",
"419 437 OFFCURVE",
"374 492 OFFCURVE",
"302 492 CURVE SMOOTH"
);
}
);
};
guideLines = (
{
position = "{222, 433}";
},
{
angle = 262;
position = "{233, 170}";
}
);
layerId = "1854CEBD-7E8C-4DD7-B70F-8A58EB08AD2F";
name = "Mar 2 21, 10:36";
paths = (
{
closed = 1;
nodes = (
"384 490 OFFCURVE",
"445 407 OFFCURVE",
"447 297 CURVE SMOOTH",
"451 108 OFFCURVE",
"347 -15 OFFCURVE",
"207 -15 CURVE SMOOTH",
"79 -15 OFFCURVE",
"22 72 OFFCURVE",
"20 185 CURVE SMOOTH",
"17 353 OFFCURVE",
"132 490 OFFCURVE",
"273 490 CURVE SMOOTH"
);
},
{
closed = 1;
nodes = (
"295 45 OFFCURVE",
"343 111 OFFCURVE",
"343 250 CURVE SMOOTH",
"343 359 OFFCURVE",
"308 430 OFFCURVE",
"238 430 CURVE SMOOTH",
"174 430 OFFCURVE",
"122 370 OFFCURVE",
"122 231 CURVE SMOOTH",
"122 132 OFFCURVE",
"157 45 OFFCURVE",
"232 45 CURVE SMOOTH"
);
},
{
closed = 0;
nodes = (
"273 490 LINE SMOOTH",
"384 490 OFFCURVE",
"445 407 OFFCURVE",
"447 297 CURVE SMOOTH",
"451 108 OFFCURVE",
"347 -15 OFFCURVE",
"207 -15 CURVE SMOOTH"
);
},
{
closed = 0;
nodes = (
"232 45 LINE SMOOTH",
"295 45 OFFCURVE",
"343 111 OFFCURVE",
"343 250 CURVE SMOOTH",
"343 359 OFFCURVE",
"308 430 OFFCURVE",
"238 430 CURVE SMOOTH"
);
}
);
width = 468;
},
{
associatedMasterId = "B0B60A8F-2DEB-4A58-A43B-60A0DADABD8F";
background = {
paths = (
{
closed = 1;
nodes = (
"185 492 OFFCURVE",
"13 323 OFFCURVE",
"13 148 CURVE SMOOTH",
"13 43 OFFCURVE",
"112 -4 OFFCURVE",
"204 -4 CURVE SMOOTH",
"279 -4 OFFCURVE",
"392 41 OFFCURVE",
"392 134 CURVE SMOOTH",
"392 158 OFFCURVE",
"374 190 OFFCURVE",
"356 190 CURVE SMOOTH",
"333 190 OFFCURVE",
"297 46 OFFCURVE",
"214 46 CURVE SMOOTH",
"170 46 OFFCURVE",
"116 94 OFFCURVE",
"116 129 CURVE SMOOTH",
"116 167 OFFCURVE",
"197 452 OFFCURVE",
"297 452 CURVE SMOOTH",
"321 452 OFFCURVE",
"335 419 OFFCURVE",
"335 408 CURVE SMOOTH",
"335 385 OFFCURVE",
"280 267 OFFCURVE",
"129 267 CURVE",
"126 224 LINE",
"203 241 OFFCURVE",
"279 252 OFFCURVE",
"344 264 CURVE SMOOTH",
"382 271 OFFCURVE",
"419 345 OFFCURVE",
"419 383 CURVE SMOOTH",
"419 437 OFFCURVE",
"374 492 OFFCURVE",
"302 492 CURVE SMOOTH"
);
}
);
};
guideLines = (
{
position = "{222, 433}";
},
{
angle = 262;
position = "{233, 170}";
},
{
angle = 27.5824;
position = "{105, 220}";
}
);
layerId = "E92F4FF1-737E-47EB-A648-2978E6CDA384";
name = "Mar 2 21, 10:42";
paths = (
{
closed = 1;
nodes = (
"342 243 LINE",
"342 365 OFFCURVE",
"311 430 OFFCURVE",
"246 430 CURVE SMOOTH",
"178 430 OFFCURVE",
"124 359 OFFCURVE",
"124 232 CURVE",
"19 193 LINE",
"19 361 OFFCURVE",
"124 490 OFFCURVE",
"265 490 CURVE SMOOTH",
"390 490 OFFCURVE",
"447 391 OFFCURVE",
"447 282 CURVE"
);
},
{
closed = 1;
nodes = (
"124 232 LINE",
"124 109 OFFCURVE",
"158 44 OFFCURVE",
"223 44 CURVE SMOOTH",
"291 44 OFFCURVE",
"342 115 OFFCURVE",
"342 243 CURVE",
"447 282 LINE",
"447 113 OFFCURVE",
"342 -16 OFFCURVE",
"201 -16 CURVE SMOOTH",
"76 -16 OFFCURVE",
"19 83 OFFCURVE",
"19 193 CURVE"
);
}
);
width = 468;
},
{
associatedMasterId = "B0B60A8F-2DEB-4A58-A43B-60A0DADABD8F";
background = {
paths = (
{
closed = 1;
nodes = (
"199 492 OFFCURVE",
"27 323 OFFCURVE",
"27 148 CURVE SMOOTH",
"27 43 OFFCURVE",
"126 -4 OFFCURVE",
"218 -4 CURVE SMOOTH",
"293 -4 OFFCURVE",
"406 41 OFFCURVE",
"406 134 CURVE SMOOTH",
"406 158 OFFCURVE",
"388 190 OFFCURVE",
"370 190 CURVE SMOOTH",
"347 190 OFFCURVE",
"311 46 OFFCURVE",
"228 46 CURVE SMOOTH",
"184 46 OFFCURVE",
"130 94 OFFCURVE",
"130 129 CURVE SMOOTH",
"130 167 OFFCURVE",
"211 452 OFFCURVE",
"311 452 CURVE SMOOTH",
"335 452 OFFCURVE",
"349 419 OFFCURVE",
"349 408 CURVE SMOOTH",
"349 385 OFFCURVE",
"294 267 OFFCURVE",
"143 267 CURVE",
"140 224 LINE",
"217 241 OFFCURVE",
"293 252 OFFCURVE",
"358 264 CURVE SMOOTH",
"396 271 OFFCURVE",
"433 345 OFFCURVE",
"433 383 CURVE SMOOTH",
"433 437 OFFCURVE",
"388 492 OFFCURVE",
"316 492 CURVE SMOOTH"
);
}
);
};
guideLines = (
{
position = "{236, 433}";
},
{
angle = 262;
position = "{247, 170}";
},
{
angle = 27.5824;
position = "{119, 220}";
}
);
layerId = "67121026-14B7-4AA5-93D5-0F1306FD90AD";
name = "Mar 2 21, 11:06";
paths = (
{
closed = 1;
nodes = (
"33 351 OFFCURVE",
"143 490 OFFCURVE",
"285 490 CURVE SMOOTH",
"402 490 OFFCURVE",
"461 396 OFFCURVE",
"461 282 CURVE SMOOTH",
"461 123 OFFCURVE",
"346 -16 OFFCURVE",
"215 -16 CURVE SMOOTH",
"90 -16 OFFCURVE",
"33 71 OFFCURVE",
"33 193 CURVE SMOOTH"
);
},
{
closed = 1;
nodes = (
"138 132 OFFCURVE",
"166 34 OFFCURVE",
"241 34 CURVE SMOOTH",
"295 34 OFFCURVE",
"356 115 OFFCURVE",
"356 263 CURVE SMOOTH",
"356 346 OFFCURVE",
"341 440 OFFCURVE",
"271 440 CURVE SMOOTH",
"207 440 OFFCURVE",
"138 365 OFFCURVE",
"138 212 CURVE SMOOTH"
);
}
);
width = 494;
},
{
associatedMasterId = "B0B60A8F-2DEB-4A58-A43B-60A0DADABD8F";
background = {
paths = (
{
closed = 1;
nodes = (
"198 492 OFFCURVE",
"26 323 OFFCURVE",
"26 148 CURVE SMOOTH",
"26 43 OFFCURVE",
"125 -4 OFFCURVE",
"217 -4 CURVE SMOOTH",
"292 -4 OFFCURVE",
"405 41 OFFCURVE",
"405 134 CURVE SMOOTH",
"405 158 OFFCURVE",
"387 190 OFFCURVE",
"369 190 CURVE SMOOTH",
"346 190 OFFCURVE",
"310 46 OFFCURVE",
"227 46 CURVE SMOOTH",
"183 46 OFFCURVE",
"129 94 OFFCURVE",
"129 129 CURVE SMOOTH",
"129 167 OFFCURVE",
"210 452 OFFCURVE",
"310 452 CURVE SMOOTH",
"334 452 OFFCURVE",
"348 419 OFFCURVE",
"348 408 CURVE SMOOTH",
"348 385 OFFCURVE",
"293 267 OFFCURVE",
"142 267 CURVE",
"139 224 LINE",
"216 241 OFFCURVE",
"292 252 OFFCURVE",
"357 264 CURVE SMOOTH",
"395 271 OFFCURVE",
"432 345 OFFCURVE",
"432 383 CURVE SMOOTH",
"432 437 OFFCURVE",
"387 492 OFFCURVE",
"315 492 CURVE SMOOTH"
);
}
);
};
guideLines = (
{
position = "{235, 433}";
},
{
angle = 262;
position = "{246, 170}";
},
{
angle = 27.5824;
position = "{118, 220}";
}
);
layerId = "B5ACCA33-C39B-4039-9C7F-1E40B0E0718B";
name = "Apr 5 21, 10:40";
paths = (
{
closed = 1;
nodes = (
"270 405 LINE",
"192 405 OFFCURVE",
"140 338 OFFCURVE",
"140 219 CURVE SMOOTH",
"140 113 OFFCURVE",
"170 69 OFFCURVE",
"229 69 CURVE",
"192 -16 LINE",
"84 -16 OFFCURVE",
"25 39 OFFCURVE",
"25 157 CURVE SMOOTH",
"25 345 OFFCURVE",
"152 490 OFFCURVE",
"308 490 CURVE"
);
},
{
closed = 1;
nodes = (
"229 69 LINE",
"308 69 OFFCURVE",
"360 136 OFFCURVE",
"360 275 CURVE SMOOTH",
"360 361 OFFCURVE",
"330 405 OFFCURVE",
"270 405 CURVE",
"308 490 LINE",
"416 490 OFFCURVE",
"475 435 OFFCURVE",
"475 317 CURVE SMOOTH",
"475 129 OFFCURVE",
"348 -16 OFFCURVE",
"192 -16 CURVE"
);
}
);
width = 494;
},
{
associatedMasterId = "B0B60A8F-2DEB-4A58-A43B-60A0DADABD8F";
background = {
paths = (
{
closed = 1;
nodes = (
"200 492 OFFCURVE",
"28 323 OFFCURVE",
"28 148 CURVE SMOOTH",
"28 43 OFFCURVE",
"127 -4 OFFCURVE",
"219 -4 CURVE SMOOTH",
"294 -4 OFFCURVE",
"407 41 OFFCURVE",
"407 134 CURVE SMOOTH",
"407 158 OFFCURVE",
"389 190 OFFCURVE",
"371 190 CURVE SMOOTH",
"348 190 OFFCURVE",
"312 46 OFFCURVE",
"229 46 CURVE SMOOTH",
"185 46 OFFCURVE",
"131 94 OFFCURVE",
"131 129 CURVE SMOOTH",
"131 167 OFFCURVE",
"212 452 OFFCURVE",
"312 452 CURVE SMOOTH",
"336 452 OFFCURVE",
"350 419 OFFCURVE",
"350 408 CURVE SMOOTH",
"350 385 OFFCURVE",
"295 267 OFFCURVE",
"144 267 CURVE",
"141 224 LINE",
"218 241 OFFCURVE",
"294 252 OFFCURVE",
"359 264 CURVE SMOOTH",
"397 271 OFFCURVE",
"434 345 OFFCURVE",
"434 383 CURVE SMOOTH",
"434 437 OFFCURVE",
"389 492 OFFCURVE",
"317 492 CURVE SMOOTH"
);
}
);
};
guideLines = (
{
position = "{237, 433}";
},
{
angle = 262;
position = "{248, 170}";
},
{
angle = 27.5824;
position = "{120, 220}";
}
);
layerId = "608874D9-933C-477C-B29B-615EBC2BC0F0";
name = "Apr 5 21, 10:44";
paths = (
{
closed = 1;
nodes = (
"37 345 OFFCURVE",
"164 490 OFFCURVE",
"310 490 CURVE SMOOTH",
"428 490 OFFCURVE",
"477 435 OFFCURVE",
"477 317 CURVE SMOOTH",
"477 129 OFFCURVE",
"349 -16 OFFCURVE",
"204 -16 CURVE SMOOTH",
"86 -16 OFFCURVE",
"37 39 OFFCURVE",
"37 157 CURVE SMOOTH"
);
},
{
closed = 1;
nodes = (
"152 123 OFFCURVE",
"192 69 OFFCURVE",
"251 69 CURVE SMOOTH",
"317 69 OFFCURVE",
"362 106 OFFCURVE",
"362 257 CURVE SMOOTH",
"362 371 OFFCURVE",
"332 415 OFFCURVE",
"272 415 CURVE SMOOTH",
"198 415 OFFCURVE",
"152 349 OFFCURVE",
"152 219 CURVE SMOOTH"
);
},
{
closed = 0;
nodes = (
"477 317 LINE SMOOTH",
"477 129 OFFCURVE",
"349 -16 OFFCURVE",
"204 -16 CURVE SMOOTH",
"86 -16 OFFCURVE",
"37 39 OFFCURVE",
"37 157 CURVE SMOOTH"
);
},
{
closed = 0;
nodes = (
"152 219 LINE SMOOTH",
"152 123 OFFCURVE",
"192 69 OFFCURVE",
"251 69 CURVE SMOOTH",
"317 69 OFFCURVE",
"362 106 OFFCURVE",
"362 257 CURVE SMOOTH"
);
}
);
width = 505;
},
{
associatedMasterId = "B0B60A8F-2DEB-4A58-A43B-60A0DADABD8F";
background = {
paths = (
{
closed = 1;
nodes = (
"200 492 OFFCURVE",
"28 323 OFFCURVE",
"28 148 CURVE SMOOTH",
"28 43 OFFCURVE",
"127 -4 OFFCURVE",
"219 -4 CURVE SMOOTH",
"294 -4 OFFCURVE",
"407 41 OFFCURVE",
"407 134 CURVE SMOOTH",
"407 158 OFFCURVE",
"389 190 OFFCURVE",
"371 190 CURVE SMOOTH",
"348 190 OFFCURVE",
"312 46 OFFCURVE",
"229 46 CURVE SMOOTH",
"185 46 OFFCURVE",
"131 94 OFFCURVE",
"131 129 CURVE SMOOTH",
"131 167 OFFCURVE",
"212 452 OFFCURVE",
"312 452 CURVE SMOOTH",
"336 452 OFFCURVE",
"350 419 OFFCURVE",
"350 408 CURVE SMOOTH",
"350 385 OFFCURVE",
"295 267 OFFCURVE",
"144 267 CURVE",
"141 224 LINE",
"218 241 OFFCURVE",
"294 252 OFFCURVE",
"359 264 CURVE SMOOTH",
"397 271 OFFCURVE",
"434 345 OFFCURVE",
"434 383 CURVE SMOOTH",
"434 437 OFFCURVE",
"389 492 OFFCURVE",
"317 492 CURVE SMOOTH"
);
}
);
};
guideLines = (
{
position = "{237, 433}";
},
{
angle = 262;
position = "{248, 170}";
},
{
angle = 27.5824;
position = "{120, 220}";
}
);
layerId = "37D6E9A9-719D-406A-B4D1-99436C2DD886";
name = "Apr 5 21, 10:48";
paths = (
{
closed = 1;
nodes = (
"427 491 OFFCURVE",
"476 436 OFFCURVE",
"476 317 CURVE SMOOTH",
"476 129 OFFCURVE",
"349 -16 OFFCURVE",
"185 -16 CURVE SMOOTH",
"85 -16 OFFCURVE",
"36 39 OFFCURVE",
"36 158 CURVE SMOOTH",
"36 346 OFFCURVE",
"163 491 OFFCURVE",
"327 491 CURVE SMOOTH"
);
},
{
closed = 1;
nodes = (
"318 59 OFFCURVE",
"362 141 OFFCURVE",
"362 255 CURVE SMOOTH",
"362 360 OFFCURVE",
"326 417 OFFCURVE",
"271 417 CURVE SMOOTH",
"194 417 OFFCURVE",
"150 335 OFFCURVE",
"150 222 CURVE SMOOTH",
"150 116 OFFCURVE",
"186 59 OFFCURVE",
"241 59 CURVE SMOOTH"
);
}
);
width = 505;
},
{
associatedMasterId = "B0B60A8F-2DEB-4A58-A43B-60A0DADABD8F";
background = {
paths = (
{
closed = 1;
nodes = (
"180 492 OFFCURVE",
"8 323 OFFCURVE",
"8 148 CURVE SMOOTH",
"8 43 OFFCURVE",
"107 -4 OFFCURVE",
"199 -4 CURVE SMOOTH",
"274 -4 OFFCURVE",
"387 41 OFFCURVE",
"387 134 CURVE SMOOTH",
"387 158 OFFCURVE",
"369 190 OFFCURVE",
"351 190 CURVE SMOOTH",
"328 190 OFFCURVE",
"292 46 OFFCURVE",
"209 46 CURVE SMOOTH",
"165 46 OFFCURVE",
"111 94 OFFCURVE",
"111 129 CURVE SMOOTH",
"111 167 OFFCURVE",
"192 452 OFFCURVE",
"292 452 CURVE SMOOTH",
"316 452 OFFCURVE",
"330 419 OFFCURVE",
"330 408 CURVE SMOOTH",
"330 385 OFFCURVE",
"275 267 OFFCURVE",
"124 267 CURVE",
"121 224 LINE",
"198 241 OFFCURVE",
"274 252 OFFCURVE",
"339 264 CURVE SMOOTH",
"377 271 OFFCURVE",
"414 345 OFFCURVE",
"414 383 CURVE SMOOTH",
"414 437 OFFCURVE",
"369 492 OFFCURVE",
"297 492 CURVE SMOOTH"
);
}
);
};
guideLines = (
{
position = "{217, 433}";
},
{
angle = 84;
position = "{236, 238}";
}
);
layerId = "B16D205A-9FB1-4184-8E50-965346EB97EB";
name = "Apr 6 21, 10:32";
paths = (
{
closed = 1;
nodes = (
"165 60 OFFCURVE",
"130 102 OFFCURVE",
"130 200 CURVE SMOOTH",
"130 335 OFFCURVE",
"193 416 OFFCURVE",
"255 416 CURVE SMOOTH",
"310 416 OFFCURVE",
"345 374 OFFCURVE",
"345 276 CURVE SMOOTH",
"345 141 OFFCURVE",
"282 60 OFFCURVE",
"220 60 CURVE SMOOTH"
);
}
);
visible = 1;
width = 476;
}
);
rightMetricsKey = "=|";
unicode = 006F;
},
{
glyphname = p;
lastChange = "2021-04-06 15:32:00 +0000";
layers = (
{
background = {
paths = (
{
closed = 1;
nodes = (
"50 98 LINE",
"50 56 OFFCURVE",
"107 -5 OFFCURVE",
"215 -6 CURVE SMOOTH",
"363 -9 OFFCURVE",
"476 125 OFFCURVE",
"476 311 CURVE SMOOTH",
"476 410 OFFCURVE",
"413 481 OFFCURVE",
"312 481 CURVE SMOOTH",
"227 481 OFFCURVE",
"153 396 OFFCURVE",
"101 303 CURVE",
"160 219 LINE",
"167 316 OFFCURVE",
"231 420 OFFCURVE",
"267 420 CURVE SMOOTH",
"314 420 OFFCURVE",
"364 381 OFFCURVE",
"364 323 CURVE SMOOTH",
"364 219 OFFCURVE",
"345 62 OFFCURVE",
"275 62 CURVE SMOOTH",
"239 62 OFFCURVE",
"158 84 OFFCURVE",
"158 129 CURVE SMOOTH",
"158 167 OFFCURVE",
"161 203 OFFCURVE",
"161 204 CURVE"
);
},
{
closed = 1;
nodes = (
"364 -9 OFFCURVE",
"216 -6 CURVE SMOOTH",
"108 -5 OFFCURVE",
"52 58 OFFCURVE",
"52 174 CURVE SMOOTH",
"52 338 OFFCURVE",
"163 492 OFFCURVE",
"323 492 CURVE SMOOTH",
"440 492 OFFCURVE",
"484 403 OFFCURVE",
"480 287 CURVE SMOOTH",
"474 136 OFFCURVE"
);
},
{
closed = 1;
nodes = (
"368 223 OFFCURVE",
"368 320 CURVE SMOOTH",
"368 385 OFFCURVE",
"332 431 OFFCURVE",
"257 431 CURVE SMOOTH",
"193 431 OFFCURVE",
"166 274 OFFCURVE",
"166 173 CURVE SMOOTH",
"166 91 OFFCURVE",
"231 62 OFFCURVE",
"282 62 CURVE SMOOTH",
"349 62 OFFCURVE"
);
},
{
closed = 1;
nodes = (
"152 210 LINE",
"57 106 LINE",
"57 64 OFFCURVE",
"94 -5 OFFCURVE",
"202 -6 CURVE SMOOTH",
"350 -9 OFFCURVE",
"466 131 OFFCURVE",
"466 317 CURVE SMOOTH",
"466 416 OFFCURVE",
"405 487 OFFCURVE",
"312 487 CURVE SMOOTH",
"227 487 OFFCURVE",
"164 397 OFFCURVE",
"155 382 CURVE",
"155 219 LINE",
"160 219 LINE",
"167 324 OFFCURVE",
"233 420 OFFCURVE",
"269 420 CURVE SMOOTH",
"310 420 OFFCURVE",
"354 387 OFFCURVE",
"354 340 CURVE SMOOTH",
"354 237 OFFCURVE",
"332 62 OFFCURVE",
"270 62 CURVE SMOOTH",
"226 62 OFFCURVE",
"155 88 OFFCURVE",
"155 137 CURVE SMOOTH",
"155 167 OFFCURVE",
"159 209 OFFCURVE",
"159 210 CURVE"
);
}
);
};
hints = (
{
origin = "{0, 6}";
type = Corner;
name = _corner.serif;
},
{
origin = "{0, 18}";
type = Corner;
name = _corner.serif;
}
);
layerId = "B0B60A8F-2DEB-4A58-A43B-60A0DADABD8F";
paths = (
{
closed = 1;
nodes = (
"20 -109 OFFCURVE",
"19 -124 OFFCURVE",
"19 -150 CURVE SMOOTH",
"19 -180 OFFCURVE",
"26 -219 OFFCURVE",
"54 -219 CURVE SMOOTH",
"124 -219 LINE",
"148 43 LINE",
"144 56 LINE",
"159 191 LINE",
"137 191 LINE",
"157 267 LINE SMOOTH",
"177 345 OFFCURVE",
"192 393 OFFCURVE",
"192 419 CURVE SMOOTH",
"192 448 OFFCURVE",
"180 491 OFFCURVE",
"153 491 CURVE SMOOTH",
"83 491 LINE",
"27 -43 LINE SMOOTH"
);
},
{
closed = 1;
nodes = (
"321 490 OFFCURVE",
"229 409 OFFCURVE",
"115 166 CURVE",
"137 77 LINE",
"241 315 OFFCURVE",
"336 392 OFFCURVE",
"361 392 CURVE SMOOTH",
"385 392 OFFCURVE",
"397 351 OFFCURVE",
"397 274 CURVE SMOOTH",
"397 149 OFFCURVE",
"349 59 OFFCURVE",
"287 59 CURVE SMOOTH",
"255 59 OFFCURVE",
"187 81 OFFCURVE",
"133 117 CURVE",
"101 19 LINE",
"134 3 OFFCURVE",
"183 -16 OFFCURVE",
"240 -16 CURVE SMOOTH",
"392 -16 OFFCURVE",
"510 123 OFFCURVE",
"510 317 CURVE SMOOTH",
"510 422 OFFCURVE",
"488 490 OFFCURVE",
"406 490 CURVE SMOOTH"
);
}
);
width = 529;
},
{
associatedMasterId = "B0B60A8F-2DEB-4A58-A43B-60A0DADABD8F";
background = {
paths = (
{
closed = 1;
nodes = (
"70 98 LINE",
"70 56 OFFCURVE",
"127 -5 OFFCURVE",
"235 -6 CURVE SMOOTH",
"383 -9 OFFCURVE",
"496 125 OFFCURVE",
"496 311 CURVE SMOOTH",
"496 410 OFFCURVE",
"433 481 OFFCURVE",
"332 481 CURVE SMOOTH",
"247 481 OFFCURVE",
"173 396 OFFCURVE",
"121 303 CURVE",
"180 219 LINE",
"187 316 OFFCURVE",
"251 420 OFFCURVE",
"287 420 CURVE SMOOTH",
"334 420 OFFCURVE",
"384 381 OFFCURVE",
"384 323 CURVE SMOOTH",
"384 219 OFFCURVE",
"365 62 OFFCURVE",
"295 62 CURVE SMOOTH",
"259 62 OFFCURVE",
"178 84 OFFCURVE",
"178 129 CURVE SMOOTH",
"178 167 OFFCURVE",
"181 203 OFFCURVE",
"181 204 CURVE"
);
},
{
closed = 1;
nodes = (
"384 -9 OFFCURVE",
"236 -6 CURVE SMOOTH",
"128 -5 OFFCURVE",
"72 58 OFFCURVE",
"72 174 CURVE SMOOTH",
"72 338 OFFCURVE",
"183 492 OFFCURVE",
"343 492 CURVE SMOOTH",
"460 492 OFFCURVE",
"504 403 OFFCURVE",
"500 287 CURVE SMOOTH",
"494 136 OFFCURVE"
);
},
{
closed = 1;
nodes = (
"388 223 OFFCURVE",
"388 320 CURVE SMOOTH",
"388 385 OFFCURVE",
"352 431 OFFCURVE",
"277 431 CURVE SMOOTH",
"213 431 OFFCURVE",
"186 274 OFFCURVE",
"186 173 CURVE SMOOTH",
"186 91 OFFCURVE",
"251 62 OFFCURVE",
"302 62 CURVE SMOOTH",
"369 62 OFFCURVE"
);
},
{
closed = 1;
nodes = (
"172 210 LINE",
"77 106 LINE",
"77 64 OFFCURVE",
"114 -5 OFFCURVE",
"222 -6 CURVE SMOOTH",
"370 -9 OFFCURVE",
"486 131 OFFCURVE",
"486 317 CURVE SMOOTH",
"486 416 OFFCURVE",
"425 487 OFFCURVE",
"332 487 CURVE SMOOTH",
"247 487 OFFCURVE",
"184 397 OFFCURVE",
"175 382 CURVE",
"175 219 LINE",
"180 219 LINE",
"187 324 OFFCURVE",
"253 420 OFFCURVE",
"289 420 CURVE SMOOTH",
"330 420 OFFCURVE",
"374 387 OFFCURVE",
"374 340 CURVE SMOOTH",
"374 237 OFFCURVE",
"352 62 OFFCURVE",
"290 62 CURVE SMOOTH",
"246 62 OFFCURVE",
"175 88 OFFCURVE",
"175 137 CURVE SMOOTH",
"175 167 OFFCURVE",
"179 209 OFFCURVE",
"179 210 CURVE"
);
}
);
};
hints = (
{
origin = "{1, 10}";
type = Corner;
name = "_corner.x-serif";
},
{
origin = "{1, 3}";
type = Corner;
name = "_corner.x-serif";
}
);
layerId = "1E384780-7766-4143-98D6-94041A984AA9";
name = "Apr 5 21, 10:13";
paths = (
{
closed = 1;
nodes = (
"340 490 OFFCURVE",
"297 452 OFFCURVE",
"254 371 CURVE SMOOTH",
"133 142 LINE",
"154 77 LINE",
"284 319 LINE SMOOTH",
"320 386 OFFCURVE",
"342 410 OFFCURVE",
"364 410 CURVE SMOOTH",
"393 410 OFFCURVE",
"415 368 OFFCURVE",
"415 272 CURVE SMOOTH",
"415 143 OFFCURVE",
"362 53 OFFCURVE",
"267 53 CURVE SMOOTH",
"199 53 OFFCURVE",
"154 97 OFFCURVE",
"122 122 CURVE",
"105 9 LINE",
"128 -6 OFFCURVE",
"165 -16 OFFCURVE",
"214 -16 CURVE SMOOTH",
"393 -16 OFFCURVE",
"520 130 OFFCURVE",
"520 332 CURVE SMOOTH",
"520 419 OFFCURVE",
"487 490 OFFCURVE",
"400 490 CURVE SMOOTH"
);
},
{
closed = 1;
nodes = (
"12 -180 OFFCURVE",
"14 -205 OFFCURVE",
"54 -205 CURVE SMOOTH",
"112 -205 LINE",
"171 191 LINE",
"168 199 LINE",
"200 402 LINE SMOOTH",
"210 466 OFFCURVE",
"210 491 OFFCURVE",
"168 491 CURVE SMOOTH",
"108 491 LINE",
"22 -113 LINE SMOOTH"
);
}
);
width = 516;
},
{
associatedMasterId = "B0B60A8F-2DEB-4A58-A43B-60A0DADABD8F";
background = {
paths = (
{
closed = 1;
nodes = (
"65 98 LINE",
"65 56 OFFCURVE",
"122 -5 OFFCURVE",
"230 -6 CURVE SMOOTH",
"378 -9 OFFCURVE",
"491 125 OFFCURVE",
"491 311 CURVE SMOOTH",
"491 410 OFFCURVE",
"428 481 OFFCURVE",
"327 481 CURVE SMOOTH",
"242 481 OFFCURVE",
"168 396 OFFCURVE",
"116 303 CURVE",
"175 219 LINE",
"182 316 OFFCURVE",
"246 420 OFFCURVE",
"282 420 CURVE SMOOTH",
"329 420 OFFCURVE",
"379 381 OFFCURVE",
"379 323 CURVE SMOOTH",
"379 219 OFFCURVE",
"360 62 OFFCURVE",
"290 62 CURVE SMOOTH",
"254 62 OFFCURVE",
"173 84 OFFCURVE",
"173 129 CURVE SMOOTH",
"173 167 OFFCURVE",
"176 203 OFFCURVE",
"176 204 CURVE"
);
},
{
closed = 1;
nodes = (
"379 -9 OFFCURVE",
"231 -6 CURVE SMOOTH",
"123 -5 OFFCURVE",
"67 58 OFFCURVE",
"67 174 CURVE SMOOTH",
"67 338 OFFCURVE",
"178 492 OFFCURVE",
"338 492 CURVE SMOOTH",
"455 492 OFFCURVE",
"499 403 OFFCURVE",
"495 287 CURVE SMOOTH",
"489 136 OFFCURVE"
);
},
{
closed = 1;
nodes = (
"383 223 OFFCURVE",
"383 320 CURVE SMOOTH",
"383 385 OFFCURVE",
"347 431 OFFCURVE",
"272 431 CURVE SMOOTH",
"208 431 OFFCURVE",
"181 274 OFFCURVE",
"181 173 CURVE SMOOTH",
"181 91 OFFCURVE",
"246 62 OFFCURVE",
"297 62 CURVE SMOOTH",
"364 62 OFFCURVE"
);
},
{
closed = 1;
nodes = (
"167 210 LINE",
"72 106 LINE",
"72 64 OFFCURVE",
"109 -5 OFFCURVE",
"217 -6 CURVE SMOOTH",
"365 -9 OFFCURVE",
"481 131 OFFCURVE",
"481 317 CURVE SMOOTH",
"481 416 OFFCURVE",
"420 487 OFFCURVE",
"327 487 CURVE SMOOTH",
"242 487 OFFCURVE",
"179 397 OFFCURVE",
"170 382 CURVE",
"170 219 LINE",
"175 219 LINE",
"182 324 OFFCURVE",
"248 420 OFFCURVE",
"284 420 CURVE SMOOTH",
"325 420 OFFCURVE",
"369 387 OFFCURVE",
"369 340 CURVE SMOOTH",
"369 237 OFFCURVE",
"347 62 OFFCURVE",
"285 62 CURVE SMOOTH",
"241 62 OFFCURVE",
"170 88 OFFCURVE",
"170 137 CURVE SMOOTH",
"170 167 OFFCURVE",
"174 209 OFFCURVE",
"174 210 CURVE"
);
}
);
};
hints = (
{
origin = "{0, 12}";
type = Corner;
name = _corner.serif;
},
{
origin = "{0, 3}";
type = Corner;
name = _corner.serif;
}
);
layerId = "77909F88-E487-4179-9F94-35EC8167552E";
name = "Apr 5 21, 11:30";
paths = (
{
closed = 1;
nodes = (
"26 -211 OFFCURVE",
"34 -219 OFFCURVE",
"70 -219 CURVE SMOOTH",
"133 -219 LINE",
"157 43 LINE",
"159 56 LINE",
"174 191 LINE",
"148 191 LINE",
"212 454 LINE SMOOTH",
"220 486 OFFCURVE",
"204 491 OFFCURVE",
"159 491 CURVE SMOOTH",
"99 491 LINE",
"33 -143 LINE SMOOTH"
);
},
{
closed = 1;
nodes = (
"316 490 OFFCURVE",
"240 409 OFFCURVE",
"122 166 CURVE",
"147 77 LINE",
"251 315 OFFCURVE",
"331 392 OFFCURVE",
"366 392 CURVE SMOOTH",
"397 392 OFFCURVE",
"412 351 OFFCURVE",
"412 274 CURVE SMOOTH",
"412 149 OFFCURVE",
"364 59 OFFCURVE",
"316 59 CURVE SMOOTH",
"280 59 OFFCURVE",
"202 91 OFFCURVE",
"148 127 CURVE",
"116 19 LINE",
"149 3 OFFCURVE",
"198 -16 OFFCURVE",
"255 -16 CURVE SMOOTH",
"397 -16 OFFCURVE",
"525 123 OFFCURVE",
"525 317 CURVE SMOOTH",
"525 422 OFFCURVE",
"496 490 OFFCURVE",
"411 490 CURVE SMOOTH"
);
}
);
width = 546;
}
);
leftMetricsKey = "=n";
rightMetricsKey = "=|d";
unicode = 0070;
},
{
glyphname = q;
lastChange = "2021-04-06 10:05:26 +0000";
layers = (
{
background = {
paths = (
{
closed = 1;
nodes = (
"429 707 OFFCURVE",
"407 707 OFFCURVE",
"397 707 CURVE",
"389 707 OFFCURVE",
"379 705 OFFCURVE",
"377 687 CURVE SMOOTH",
"373 643 OFFCURVE",
"338 235 OFFCURVE",
"326 124 CURVE",
"338 87 LINE",
"360 25 OFFCURVE",
"451 -1 OFFCURVE",
"476 -1 CURVE SMOOTH",
"487 -1 OFFCURVE",
"493 4 OFFCURVE",
"498 18 CURVE SMOOTH",
"502 30 OFFCURVE",
"512 61 OFFCURVE",
"515 71 CURVE SMOOTH",
"522 91 OFFCURVE",
"511 93 OFFCURVE",
"502 93 CURVE SMOOTH",
"490 93 OFFCURVE",
"450 93 OFFCURVE",
"444 93 CURVE SMOOTH",
"431 93 OFFCURVE",
"428 101 OFFCURVE",
"429 112 CURVE SMOOTH",
"443 283 OFFCURVE",
"482 643 OFFCURVE",
"487 687 CURVE SMOOTH",
"489 705 OFFCURVE",
"480 707 OFFCURVE",
"471 707 CURVE"
);
},
{
closed = 1;
nodes = (
"270 395 OFFCURVE",
"277 388 OFFCURVE",
"296 388 CURVE SMOOTH",
"324 388 LINE SMOOTH",
"342 388 OFFCURVE",
"349 381 OFFCURVE",
"347 358 CURVE SMOOTH",
"341 291 OFFCURVE",
"314 -15 OFFCURVE",
"305 -105 CURVE SMOOTH",
"298 -175 OFFCURVE",
"290 -205 OFFCURVE",
"316 -205 CURVE SMOOTH",
"340 -205 OFFCURVE",
"402 -155 OFFCURVE",
"409 -72 CURVE SMOOTH",
"414 -6 OFFCURVE",
"454 365 OFFCURVE",
"454 377 CURVE",
"433 382 LINE",
"433 410 OFFCURVE",
"399 477 OFFCURVE",
"324 477 CURVE SMOOTH",
"310 477 OFFCURVE",
"297 480 OFFCURVE",
"290 458 CURVE SMOOTH",
"275 410 LINE SMOOTH"
);
},
{
closed = 1;
nodes = (
"347 463 OFFCURVE",
"299 481 OFFCURVE",
"258 481 CURVE SMOOTH",
"134 481 OFFCURVE",
"20 323 OFFCURVE",
"20 152 CURVE SMOOTH",
"20 30 OFFCURVE",
"111 -6 OFFCURVE",
"181 -6 CURVE SMOOTH",
"264 -6 OFFCURVE",
"321 58 OFFCURVE",
"338 87 CURVE",
"341 278 LINE",
"331 192 OFFCURVE",
"275 56 OFFCURVE",
"228 56 CURVE SMOOTH",
"194 56 OFFCURVE",
"134 91 OFFCURVE",
"134 151 CURVE SMOOTH",
"134 229 OFFCURVE",
"174 428 OFFCURVE",
"250 428 CURVE SMOOTH",
"288 428 OFFCURVE",
"335 384 OFFCURVE",
"357 359 CURVE",
"367 453 LINE"
);
}
);
};
hints = (
{
origin = "{1, 3}";
type = Corner;
name = _corner.serif;
}
);
layerId = "B0B60A8F-2DEB-4A58-A43B-60A0DADABD8F";
paths = (
{
closed = 1;
nodes = (
"208 -16 OFFCURVE",
"308 67 OFFCURVE",
"412 308 CURVE",
"385 397 LINE",
"291 161 OFFCURVE",
"193 82 OFFCURVE",
"168 82 CURVE SMOOTH",
"143 82 OFFCURVE",
"132 123 OFFCURVE",
"132 200 CURVE SMOOTH",
"132 325 OFFCURVE",
"180 415 OFFCURVE",
"238 415 CURVE SMOOTH",
"277 415 OFFCURVE",
"342 393 OFFCURVE",
"396 347 CURVE",
"428 455 LINE",
"395 471 OFFCURVE",
"336 490 OFFCURVE",
"289 490 CURVE SMOOTH",
"137 490 OFFCURVE",
"19 351 OFFCURVE",
"19 157 CURVE SMOOTH",
"19 37 OFFCURVE",
"48 -16 OFFCURVE",
"123 -16 CURVE SMOOTH"
);
},
{
closed = 1;
nodes = (
"331 -179 OFFCURVE",
"349 -219 OFFCURVE",
"373 -219 CURVE SMOOTH",
"443 -219 LINE",
"447 -123 OFFCURVE",
"447 -29 OFFCURVE",
"454 56 CURVE SMOOTH",
"466 210 LINE SMOOTH",
"477 353 OFFCURVE",
"520 466 OFFCURVE",
"520 477 CURVE SMOOTH",
"520 484 OFFCURVE",
"517 489 OFFCURVE",
"510 489 CURVE SMOOTH",
"495 489 OFFCURVE",
"461 473 OFFCURVE",
"376 463 CURVE",
"370 337 LINE",
"389 313 LINE",
"351 85 LINE SMOOTH",
"338 6 OFFCURVE",
"331 -77 OFFCURVE",
"331 -138 CURVE SMOOTH"
);
}
);
width = 523;
}
);
leftMetricsKey = d;
unicode = 0071;
},
{
glyphname = r;
lastChange = "2021-04-06 10:16:40 +0000";
layers = (
{
background = {
paths = (
{
closed = 1;
nodes = (
"21 395 OFFCURVE",
"28 388 OFFCURVE",
"47 388 CURVE SMOOTH",
"69 388 LINE SMOOTH",
"87 388 OFFCURVE",
"94 381 OFFCURVE",
"92 358 CURVE SMOOTH",
"86 291 OFFCURVE",
"82 256 OFFCURVE",
"75 195 CURVE SMOOTH",
"62 81 OFFCURVE",
"35 -2 OFFCURVE",
"77 -2 CURVE SMOOTH",
"101 -2 OFFCURVE",
"162 48 OFFCURVE",
"170 131 CURVE SMOOTH",
"176 197 OFFCURVE",
"190 330 OFFCURVE",
"190 342 CURVE",
"175 364 LINE",
"175 416 OFFCURVE",
"136 477 OFFCURVE",
"67 477 CURVE SMOOTH",
"61 477 OFFCURVE",
"48 480 OFFCURVE",
"41 458 CURVE SMOOTH",
"26 410 LINE SMOOTH"
);
}
);
};
hints = (
{
origin = "{1, 9}";
type = Corner;
name = _corner.serif;
}
);
layerId = "B0B60A8F-2DEB-4A58-A43B-60A0DADABD8F";
paths = (
{
closed = 1;
nodes = (
"397 468 OFFCURVE",
"384 490 OFFCURVE",
"354 490 CURVE SMOOTH",
"271 490 OFFCURVE",
"199 366 OFFCURVE",
"125 175 CURVE",
"147 36 LINE",
"160 207 OFFCURVE",
"263 372 OFFCURVE",
"298 372 CURVE SMOOTH",
"328 372 OFFCURVE",
"344 345 OFFCURVE",
"359 345 CURVE SMOOTH",
"383 345 OFFCURVE",
"397 399 OFFCURVE",
"397 439 CURVE SMOOTH"
);
},
{
closed = 1;
nodes = (
"160 191 LINE",
"134 199 LINE",
"154 267 LINE SMOOTH",
"177 344 OFFCURVE",
"192 392 OFFCURVE",
"192 419 CURVE SMOOTH",
"192 456 OFFCURVE",
"173 491 OFFCURVE",
"153 491 CURVE SMOOTH",
"83 491 LINE",
"36 75 LINE SMOOTH",
"27 -9 OFFCURVE",
"32 -13 OFFCURVE",
"58 -13 CURVE SMOOTH",
"74 -13 OFFCURVE",
"145 7 OFFCURVE",
"147 36 CURVE SMOOTH"
);
}
);
width = 380;
}
);
leftMetricsKey = n;
unicode = 0072;
},
